solid 16-copper. STL generated by ONSHAPE BY PTC INC, 1.213. Units = meters
   facet normal 0.391362 0 0.920237
      outer loop
         vertex 0.0096782 -3.5e-05 0.0120822
         vertex 0.0096782 0 0.0120822
         vertex 0.00955452 0 0.0121348
      endloop
   endfacet
   facet normal 0.391362 0 0.920237
      outer loop
         vertex 0.00955452 0 0.0121348
         vertex 0.00955452 -3.5e-05 0.0121348
         vertex 0.0096782 -3.5e-05 0.0120822
      endloop
   endfacet
   facet normal -0.693657 0 0.720305
      outer loop
         vertex 0.00955452 -3.5e-05 0.0121348
         vertex 0.00955452 0 0.0121348
         vertex 0.00889 0 0.0114949
      endloop
   endfacet
   facet normal -0.693657 0 0.720305
      outer loop
         vertex 0.00889 0 0.0114949
         vertex 0.00889 -3.5e-05 0.0114949
         vertex 0.00955452 -3.5e-05 0.0121348
      endloop
   endfacet
   facet normal 0 1 0
      outer loop
         vertex 0.00949232 0 0.0105434
         vertex 0.00889 0 0.0114949
         vertex 0.00955452 0 0.0121348
      endloop
   endfacet
   facet normal 0 1 0
      outer loop
         vertex 0.0096782 0 0.0120822
         vertex 0.0096782 0 0.0105434
         vertex 0.00949232 0 0.0105434
      endloop
   endfacet
   facet normal 0 1 0
      outer loop
         vertex 0.00955452 0 0.0121348
         vertex 0.0096782 0 0.0120822
         vertex 0.00949232 0 0.0105434
      endloop
   endfacet
   facet normal 0 -1 0
      outer loop
         vertex 0.00949232 -3.5e-05 0.0105434
         vertex 0.0096782 -3.5e-05 0.0120822
         vertex 0.00955452 -3.5e-05 0.0121348
      endloop
   endfacet
   facet normal 0 -1 0
      outer loop
         vertex 0.00955452 -3.5e-05 0.0121348
         vertex 0.00889 -3.5e-05 0.0114949
         vertex 0.00949232 -3.5e-05 0.0105434
      endloop
   endfacet
   facet normal 0 -1 0
      outer loop
         vertex 0.00949232 -3.5e-05 0.0105434
         vertex 0.0096782 -3.5e-05 0.0105434
         vertex 0.0096782 -3.5e-05 0.0120822
      endloop
   endfacet
   facet normal -0.844924 0 -0.534886
      outer loop
         vertex 0.00889 -3.5e-05 0.0114949
         vertex 0.00889 0 0.0114949
         vertex 0.00949232 0 0.0105434
      endloop
   endfacet
   facet normal -0.844924 0 -0.534886
      outer loop
         vertex 0.00949232 0 0.0105434
         vertex 0.00949232 -3.5e-05 0.0105434
         vertex 0.00889 -3.5e-05 0.0114949
      endloop
   endfacet
   facet normal 0 0 -1
      outer loop
         vertex 0.00949232 -3.5e-05 0.0105434
         vertex 0.00949232 0 0.0105434
         vertex 0.0096782 0 0.0105434
      endloop
   endfacet
   facet normal 0 0 -1
      outer loop
         vertex 0.0096782 0 0.0105434
         vertex 0.0096782 -3.5e-05 0.0105434
         vertex 0.00949232 -3.5e-05 0.0105434
      endloop
   endfacet
   facet normal 1 0 0
      outer loop
         vertex 0.0096782 -3.5e-05 0.0105434
         vertex 0.0096782 0 0.0105434
         vertex 0.0096782 0 0.0120822
      endloop
   endfacet
   facet normal 1 0 0
      outer loop
         vertex 0.0096782 0 0.0120822
         vertex 0.0096782 -3.5e-05 0.0120822
         vertex 0.0096782 -3.5e-05 0.0105434
      endloop
   endfacet
endsolid 16-copper. Units = meters