solid 1-copper. STL generated by ONSHAPE BY PTC INC, 1.213. Units = meters
   facet normal 0 1 0
      outer loop
         vertex 0.0084728 0 0.0082566
         vertex 0.0084728 0 0.0094566
         vertex 0.0090228 0 0.0094566
      endloop
   endfacet
   facet normal 0 1 0
      outer loop
         vertex 0.0090228 0 0.0094566
         vertex 0.0090228 0 0.0082566
         vertex 0.0084728 0 0.0082566
      endloop
   endfacet
   facet normal 0 0 1
      outer loop
         vertex 0.0090228 -3.5e-05 0.0094566
         vertex 0.0090228 0 0.0094566
         vertex 0.0084728 0 0.0094566
      endloop
   endfacet
   facet normal 0 0 1
      outer loop
         vertex 0.0084728 0 0.0094566
         vertex 0.0084728 -3.5e-05 0.0094566
         vertex 0.0090228 -3.5e-05 0.0094566
      endloop
   endfacet
   facet normal 0 -1 0
      outer loop
         vertex 0.0090228 -3.5e-05 0.0082566
         vertex 0.0090228 -3.5e-05 0.0094566
         vertex 0.0084728 -3.5e-05 0.0094566
      endloop
   endfacet
   facet normal 0 -1 0
      outer loop
         vertex 0.0084728 -3.5e-05 0.0094566
         vertex 0.0084728 -3.5e-05 0.0082566
         vertex 0.0090228 -3.5e-05 0.0082566
      endloop
   endfacet
   facet normal -1 0 0
      outer loop
         vertex 0.0084728 -3.5e-05 0.0094566
         vertex 0.0084728 0 0.0094566
         vertex 0.0084728 0 0.0082566
      endloop
   endfacet
   facet normal -1 0 0
      outer loop
         vertex 0.0084728 0 0.0082566
         vertex 0.0084728 -3.5e-05 0.0082566
         vertex 0.0084728 -3.5e-05 0.0094566
      endloop
   endfacet
   facet normal 0 0 -1
      outer loop
         vertex 0.0084728 -3.5e-05 0.0082566
         vertex 0.0084728 0 0.0082566
         vertex 0.0090228 0 0.0082566
      endloop
   endfacet
   facet normal 0 0 -1
      outer loop
         vertex 0.0090228 0 0.0082566
         vertex 0.0090228 -3.5e-05 0.0082566
         vertex 0.0084728 -3.5e-05 0.0082566
      endloop
   endfacet
   facet normal 1 0 0
      outer loop
         vertex 0.0090228 -3.5e-05 0.0082566
         vertex 0.0090228 0 0.0082566
         vertex 0.0090228 0 0.0094566
      endloop
   endfacet
   facet normal 1 0 0
      outer loop
         vertex 0.0090228 0 0.0094566
         vertex 0.0090228 -3.5e-05 0.0094566
         vertex 0.0090228 -3.5e-05 0.0082566
      endloop
   endfacet
endsolid 1-copper. Units = meters