solid 1-copper. STL generated by ONSHAPE BY PTC INC, 1.213. Units = meters
   facet normal -0.92388 0 0.382683
      outer loop
         vertex 0.0212726 -3.5e-05 0.00627105
         vertex 0.0212883 -3.5e-05 0.00635
         vertex 0.0212883 0 0.00635
      endloop
   endfacet
   facet normal -0.707107 0 0.707107
      outer loop
         vertex 0.0212279 -3.5e-05 0.00620412
         vertex 0.0212726 -3.5e-05 0.00627105
         vertex 0.0212726 0 0.00627105
      endloop
   endfacet
   facet normal -0.382683 0 0.92388
      outer loop
         vertex 0.0211609 -3.5e-05 0.0061594
         vertex 0.0212279 -3.5e-05 0.00620412
         vertex 0.0212279 0 0.00620412
      endloop
   endfacet
   facet normal 1.83697e-16 0 1
      outer loop
         vertex 0.021082 -3.5e-05 0.0061437
         vertex 0.0211609 -3.5e-05 0.0061594
         vertex 0.0211609 0 0.0061594
      endloop
   endfacet
   facet normal 0.382683 0 0.92388
      outer loop
         vertex 0.0210031 -3.5e-05 0.0061594
         vertex 0.021082 -3.5e-05 0.0061437
         vertex 0.021082 0 0.0061437
      endloop
   endfacet
   facet normal 0.707107 0 0.707107
      outer loop
         vertex 0.0209361 -3.5e-05 0.00620412
         vertex 0.0210031 -3.5e-05 0.0061594
         vertex 0.0210031 0 0.0061594
      endloop
   endfacet
   facet normal 0.92388 0 0.382683
      outer loop
         vertex 0.0208914 -3.5e-05 0.00627105
         vertex 0.0209361 -3.5e-05 0.00620412
         vertex 0.0209361 0 0.00620412
      endloop
   endfacet
   facet normal 1 0 -1.22465e-16
      outer loop
         vertex 0.0208757 -3.5e-05 0.00635
         vertex 0.0208914 -3.5e-05 0.00627105
         vertex 0.0208914 0 0.00627105
      endloop
   endfacet
   facet normal 0.92388 0 -0.382683
      outer loop
         vertex 0.0208914 -3.5e-05 0.00642895
         vertex 0.0208757 -3.5e-05 0.00635
         vertex 0.0208757 0 0.00635
      endloop
   endfacet
   facet normal 0.707107 0 -0.707107
      outer loop
         vertex 0.0209361 -3.5e-05 0.00649588
         vertex 0.0208914 -3.5e-05 0.00642895
         vertex 0.0208914 0 0.00642895
      endloop
   endfacet
   facet normal 0.382683 0 -0.92388
      outer loop
         vertex 0.0210031 -3.5e-05 0.0065406
         vertex 0.0209361 -3.5e-05 0.00649588
         vertex 0.0209361 0 0.00649588
      endloop
   endfacet
   facet normal -6.12323e-17 0 -1
      outer loop
         vertex 0.021082 -3.5e-05 0.0065563
         vertex 0.0210031 -3.5e-05 0.0065406
         vertex 0.0210031 0 0.0065406
      endloop
   endfacet
   facet normal -0.382683 0 -0.92388
      outer loop
         vertex 0.0211609 -3.5e-05 0.0065406
         vertex 0.021082 -3.5e-05 0.0065563
         vertex 0.021082 0 0.0065563
      endloop
   endfacet
   facet normal -0.707107 0 -0.707107
      outer loop
         vertex 0.0212279 -3.5e-05 0.00649588
         vertex 0.0211609 -3.5e-05 0.0065406
         vertex 0.0211609 0 0.0065406
      endloop
   endfacet
   facet normal -0.92388 0 -0.382683
      outer loop
         vertex 0.0212726 -3.5e-05 0.00642895
         vertex 0.0212279 -3.5e-05 0.00649588
         vertex 0.0212279 0 0.00649588
      endloop
   endfacet
   facet normal -1 0 0
      outer loop
         vertex 0.0212883 -3.5e-05 0.00635
         vertex 0.0212726 -3.5e-05 0.00642895
         vertex 0.0212726 0 0.00642895
      endloop
   endfacet
   facet normal -0.92388 0 -0.382683
      outer loop
         vertex 0.0212726 0 0.00642895
         vertex 0.0212883 0 0.00635
         vertex 0.0212883 -3.5e-05 0.00635
      endloop
   endfacet
   facet normal -0.707107 0 -0.707107
      outer loop
         vertex 0.0212279 0 0.00649588
         vertex 0.0212726 0 0.00642895
         vertex 0.0212726 -3.5e-05 0.00642895
      endloop
   endfacet
   facet normal -0.382683 0 -0.92388
      outer loop
         vertex 0.0211609 0 0.0065406
         vertex 0.0212279 0 0.00649588
         vertex 0.0212279 -3.5e-05 0.00649588
      endloop
   endfacet
   facet normal -6.12323e-17 0 -1
      outer loop
         vertex 0.021082 0 0.0065563
         vertex 0.0211609 0 0.0065406
         vertex 0.0211609 -3.5e-05 0.0065406
      endloop
   endfacet
   facet normal 0.382683 0 -0.92388
      outer loop
         vertex 0.0210031 0 0.0065406
         vertex 0.021082 0 0.0065563
         vertex 0.021082 -3.5e-05 0.0065563
      endloop
   endfacet
   facet normal 0.707107 0 -0.707107
      outer loop
         vertex 0.0209361 0 0.00649588
         vertex 0.0210031 0 0.0065406
         vertex 0.0210031 -3.5e-05 0.0065406
      endloop
   endfacet
   facet normal 0.92388 0 -0.382683
      outer loop
         vertex 0.0208914 0 0.00642895
         vertex 0.0209361 0 0.00649588
         vertex 0.0209361 -3.5e-05 0.00649588
      endloop
   endfacet
   facet normal 1 0 -1.22465e-16
      outer loop
         vertex 0.0208757 0 0.00635
         vertex 0.0208914 0 0.00642895
         vertex 0.0208914 -3.5e-05 0.00642895
      endloop
   endfacet
   facet normal 0.92388 0 0.382683
      outer loop
         vertex 0.0208914 0 0.00627105
         vertex 0.0208757 0 0.00635
         vertex 0.0208757 -3.5e-05 0.00635
      endloop
   endfacet
   facet normal 0.707107 0 0.707107
      outer loop
         vertex 0.0209361 0 0.00620412
         vertex 0.0208914 0 0.00627105
         vertex 0.0208914 -3.5e-05 0.00627105
      endloop
   endfacet
   facet normal 0.382683 0 0.92388
      outer loop
         vertex 0.0210031 0 0.0061594
         vertex 0.0209361 0 0.00620412
         vertex 0.0209361 -3.5e-05 0.00620412
      endloop
   endfacet
   facet normal 1.83697e-16 0 1
      outer loop
         vertex 0.021082 0 0.0061437
         vertex 0.0210031 0 0.0061594
         vertex 0.0210031 -3.5e-05 0.0061594
      endloop
   endfacet
   facet normal -0.382683 0 0.92388
      outer loop
         vertex 0.0211609 0 0.0061594
         vertex 0.021082 0 0.0061437
         vertex 0.021082 -3.5e-05 0.0061437
      endloop
   endfacet
   facet normal -0.707107 0 0.707107
      outer loop
         vertex 0.0212279 0 0.00620412
         vertex 0.0211609 0 0.0061594
         vertex 0.0211609 -3.5e-05 0.0061594
      endloop
   endfacet
   facet normal -0.92388 0 0.382683
      outer loop
         vertex 0.0212726 0 0.00627105
         vertex 0.0212279 0 0.00620412
         vertex 0.0212279 -3.5e-05 0.00620412
      endloop
   endfacet
   facet normal -1 0 0
      outer loop
         vertex 0.0212883 0 0.00635
         vertex 0.0212726 0 0.00627105
         vertex 0.0212726 -3.5e-05 0.00627105
      endloop
   endfacet
   facet normal 0 1 0
      outer loop
         vertex 0.0205105 0 0.00615767
         vertex 0.0205105 0 0.00641533
         vertex 0.0208757 0 0.00635
      endloop
   endfacet
   facet normal 0 1 0
      outer loop
         vertex 0.0208757 0 0.00635
         vertex 0.0208914 0 0.00627105
         vertex 0.0205105 0 0.00615767
      endloop
   endfacet
   facet normal 0 1 0
      outer loop
         vertex 0.0222079 0 0.006764
         vertex 0.0212726 0 0.00642895
         vertex 0.0212279 0 0.00649588
      endloop
   endfacet
   facet normal 0 1 0
      outer loop
         vertex 0.0199695 0 0.00452556
         vertex 0.0202297 0 0.00573741
         vertex 0.0204119 0 0.0059196
      endloop
   endfacet
   facet normal 0 1 0
      outer loop
         vertex 0.0208914 0 0.00627105
         vertex 0.0209361 0 0.00620412
         vertex 0.0205105 0 0.00615767
      endloop
   endfacet
   facet normal 0 1 0
      outer loop
         vertex 0.0222079 0 0.006764
         vertex 0.0212883 0 0.00635
         vertex 0.0212726 0 0.00642895
      endloop
   endfacet
   facet normal 0 1 0
      outer loop
         vertex 0.0222079 0 0.006764
         vertex 0.0212279 0 0.00620412
         vertex 0.0212726 0 0.00627105
      endloop
   endfacet
   facet normal 0 1 0
      outer loop
         vertex 0.0199695 0 0.00452556
         vertex 0.0211609 0 0.0061594
         vertex 0.0212279 0 0.00620412
      endloop
   endfacet
   facet normal 0 1 0
      outer loop
         vertex 0.0204119 0 0.0059196
         vertex 0.0205105 0 0.00615767
         vertex 0.021082 0 0.0061437
      endloop
   endfacet
   facet normal 0 1 0
      outer loop
         vertex 0.0199695 0 0.00452556
         vertex 0.0199916 0 0.0056388
         vertex 0.0202297 0 0.00573741
      endloop
   endfacet
   facet normal 0 1 0
      outer loop
         vertex 0.0192699 0 0.00587154
         vertex 0.0193094 0 0.00588022
         vertex 0.0193491 0 0.0058728
      endloop
   endfacet
   facet normal 0 1 0
      outer loop
         vertex 0.0193828 0 0.00585047
         vertex 0.0192157 0 0.00581374
         vertex 0.0192369 0 0.00584815
      endloop
   endfacet
   facet normal 0 1 0
      outer loop
         vertex 0.0156614 0 0.00164635
         vertex 0.0157234 0 0.00174314
         vertex 0.0157166 0 0.00170327
      endloop
   endfacet
   facet normal 0 1 0
      outer loop
         vertex 0.017487 0 0.00475951
         vertex 0.0171924 0 0.003473
         vertex 0.0171528 0 0.00346464
      endloop
   endfacet
   facet normal 0 1 0
      outer loop
         vertex 0.017487 0 0.00475951
         vertex 0.0177251 0 0.0046609
         vertex 0.0172238 0 0.0034944
      endloop
   endfacet
   facet normal 0 1 0
      outer loop
         vertex 0.0204119 0 0.0066534
         vertex 0.0210031 0 0.0065406
         vertex 0.0209361 0 0.00649588
      endloop
   endfacet
   facet normal 0 1 0
      outer loop
         vertex 0.0209361 0 0.00620412
         vertex 0.0210031 0 0.0061594
         vertex 0.0205105 0 0.00615767
      endloop
   endfacet
   facet normal 0 1 0
      outer loop
         vertex 0.0205105 0 0.00641533
         vertex 0.0209361 0 0.00649588
         vertex 0.0208914 0 0.00642895
      endloop
   endfacet
   facet normal 0 1 0
      outer loop
         vertex 0.0211609 0 0.0065406
         vertex 0.021082 0 0.0065563
         vertex 0.0212262 0 0.006836
      endloop
   endfacet
   facet normal 0 1 0
      outer loop
         vertex 0.0212279 0 0.00649588
         vertex 0.021375 0 0.00698479
         vertex 0.0222079 0 0.006764
      endloop
   endfacet
   facet normal 0 1 0
      outer loop
         vertex 0.0212279 0 0.00620412
         vertex 0.0222079 0 0.006764
         vertex 0.0199695 0 0.00452556
      endloop
   endfacet
   facet normal 0 1 0
      outer loop
         vertex 0.0204119 0 0.0059196
         vertex 0.0211609 0 0.0061594
         vertex 0.0199695 0 0.00452556
      endloop
   endfacet
   facet normal 0 1 0
      outer loop
         vertex 0.0192369 0 0.00584815
         vertex 0.0192699 0 0.00587154
         vertex 0.0193828 0 0.00585047
      endloop
   endfacet
   facet normal 0 1 0
      outer loop
         vertex 0.0157166 0 0.00170327
         vertex 0.0156948 0 0.00166921
         vertex 0.0156614 0 0.00164635
      endloop
   endfacet
   facet normal 0 1 0
      outer loop
         vertex 0.0154178 0 0.00232275
         vertex 0.0149588 0 0.00199233
         vertex 0.0149504 0 0.0020319
      endloop
   endfacet
   facet normal 0 1 0
      outer loop
         vertex 0.0172238 0 0.0034944
         vertex 0.0171924 0 0.003473
         vertex 0.017487 0 0.00475951
      endloop
   endfacet
   facet normal 0 1 0
      outer loop
         vertex 0.020373 0 0.00673116
         vertex 0.0204016 0 0.00680509
         vertex 0.0204349 0 0.00682795
      endloop
   endfacet
   facet normal 0 1 0
      outer loop
         vertex 0.0204119 0 0.0066534
         vertex 0.021082 0 0.0065563
         vertex 0.0210031 0 0.0065406
      endloop
   endfacet
   facet normal 0 1 0
      outer loop
         vertex 0.0208914 0 0.00642895
         vertex 0.0208757 0 0.00635
         vertex 0.0205105 0 0.00641533
      endloop
   endfacet
   facet normal 0 1 0
      outer loop
         vertex 0.0212279 0 0.00649588
         vertex 0.0211609 0 0.0065406
         vertex 0.021375 0 0.00698479
      endloop
   endfacet
   facet normal 0 1 0
      outer loop
         vertex 0.021082 0 0.0061437
         vertex 0.0211609 0 0.0061594
         vertex 0.0204119 0 0.0059196
      endloop
   endfacet
   facet normal 0 1 0
      outer loop
         vertex 0.0193828 0 0.00585047
         vertex 0.0192094 0 0.00577863
         vertex 0.0192157 0 0.00581374
      endloop
   endfacet
   facet normal 0 1 0
      outer loop
         vertex 0.0156218 0 0.0016383
         vertex 0.0157141 0 0.00178249
         vertex 0.0157234 0 0.00174314
      endloop
   endfacet
   facet normal 0 1 0
      outer loop
         vertex 0.0154178 0 0.00232275
         vertex 0.0149802 0 0.00196087
         vertex 0.0149588 0 0.00199233
      endloop
   endfacet
   facet normal 0 1 0
      outer loop
         vertex 0.0171528 0 0.00346464
         vertex 0.0171131 0 0.00347237
         vertex 0.017487 0 0.00475951
      endloop
   endfacet
   facet normal 0 1 0
      outer loop
         vertex 0.020373 0 0.00673116
         vertex 0.0203798 0 0.00677102
         vertex 0.0204016 0 0.00680509
      endloop
   endfacet
   facet normal 0 1 0
      outer loop
         vertex 0.0210031 0 0.0061594
         vertex 0.021082 0 0.0061437
         vertex 0.0205105 0 0.00615767
      endloop
   endfacet
   facet normal 0 1 0
      outer loop
         vertex 0.0212726 0 0.00627105
         vertex 0.0212883 0 0.00635
         vertex 0.0222079 0 0.006764
      endloop
   endfacet
   facet normal 0 1 0
      outer loop
         vertex 0.0193491 0 0.0058728
         vertex 0.0193828 0 0.00585047
         vertex 0.0192699 0 0.00587154
      endloop
   endfacet
   facet normal 0 1 0
      outer loop
         vertex 0.0173048 0 0.0049417
         vertex 0.0166479 0 0.00516784
         vertex 0.0166801 0 0.00518955
      endloop
   endfacet
   facet normal 0 1 0
      outer loop
         vertex 0.0173048 0 0.0049417
         vertex 0.0148094 0 0.00328566
         vertex 0.0148168 0 0.00332541
      endloop
   endfacet
   facet normal 0 1 0
      outer loop
         vertex 0.0156218 0 0.0016383
         vertex 0.0156936 0 0.00181174
         vertex 0.0157141 0 0.00178249
      endloop
   endfacet
   facet normal 0 1 0
      outer loop
         vertex 0.0155841 0 0.00192131
         vertex 0.0156936 0 0.00181174
         vertex 0.0153448 0 0.0016383
      endloop
   endfacet
   facet normal 0 1 0
      outer loop
         vertex 0.0150622 0 0.00232275
         vertex 0.0150622 0 0.00275725
         vertex 0.0154178 0 0.00275725
      endloop
   endfacet
   facet normal 0 1 0
      outer loop
         vertex 0.0148959 0 0.00315868
         vertex 0.0155841 0 0.00315869
         vertex 0.0154178 0 0.00275725
      endloop
   endfacet
   facet normal 0 1 0
      outer loop
         vertex 0.0149504 0 0.0020319
         vertex 0.0149582 0 0.00207159
         vertex 0.0154178 0 0.00232275
      endloop
   endfacet
   facet normal 0 1 0
      outer loop
         vertex 0.0149802 0 0.00196087
         vertex 0.0154178 0 0.00232275
         vertex 0.0155841 0 0.00192131
      endloop
   endfacet
   facet normal 0 1 0
      outer loop
         vertex 0.0182252 0 0.0044958
         vertex 0.0172238 0 0.0034944
         vertex 0.0179827 0 0.0046609
      endloop
   endfacet
   facet normal 0 1 0
      outer loop
         vertex 0.017487 0 0.00475951
         vertex 0.0162927 0 0.0036322
         vertex 0.0158913 0 0.00346592
      endloop
   endfacet
   facet normal 0 1 0
      outer loop
         vertex 0.0171131 0 0.00347237
         vertex 0.0167273 0 0.0036322
         vertex 0.017487 0 0.00475951
      endloop
   endfacet
   facet normal 0 1 0
      outer loop
         vertex 0.0204746 0 0.006836
         vertex 0.0203823 0 0.00669181
         vertex 0.020373 0 0.00673116
      endloop
   endfacet
   facet normal 0 1 0
      outer loop
         vertex 0.0204746 0 0.006836
         vertex 0.0212262 0 0.006836
         vertex 0.021082 0 0.0065563
      endloop
   endfacet
   facet normal 0 1 0
      outer loop
         vertex 0.0212262 0 0.006836
         vertex 0.021375 0 0.00698479
         vertex 0.0211609 0 0.0065406
      endloop
   endfacet
   facet normal 0 1 0
      outer loop
         vertex 0.0192094 0 0.00531663
         vertex 0.0194959 0 0.00573741
         vertex 0.019734 0 0.0056388
      endloop
   endfacet
   facet normal 0 1 0
      outer loop
         vertex 0.0194959 0 0.00573741
         vertex 0.0192094 0 0.00531663
         vertex 0.0192094 0 0.00577863
      endloop
   endfacet
   facet normal 0 1 0
      outer loop
         vertex 0.0172248 0 0.00513488
         vertex 0.0171309 0 0.0051976
         vertex 0.0171683 0 0.00519047
      endloop
   endfacet
   facet normal 0 1 0
      outer loop
         vertex 0.0166801 0 0.00518955
         vertex 0.0167197 0 0.0051976
         vertex 0.0173048 0 0.0049417
      endloop
   endfacet
   facet normal 0 1 0
      outer loop
         vertex 0.0148168 0 0.00332541
         vertex 0.0148392 0 0.00335912
         vertex 0.0173048 0 0.0049417
      endloop
   endfacet
   facet normal 0 1 0
      outer loop
         vertex 0.0156614 0 0.00164635
         vertex 0.0156218 0 0.0016383
         vertex 0.0157234 0 0.00174314
      endloop
   endfacet
   facet normal 0 1 0
      outer loop
         vertex 0.0153448 0 0.0016383
         vertex 0.0153067 0 0.00164573
         vertex 0.0155841 0 0.00192131
      endloop
   endfacet
   facet normal 0 1 0
      outer loop
         vertex 0.0154178 0 0.00275725
         vertex 0.0150622 0 0.00275725
         vertex 0.0148959 0 0.00315868
      endloop
   endfacet
   facet normal 0 1 0
      outer loop
         vertex 0.0155841 0 0.00192131
         vertex 0.015273 0 0.00166806
         vertex 0.0149802 0 0.00196087
      endloop
   endfacet
   facet normal 0 1 0
      outer loop
         vertex 0.0172238 0 0.0034944
         vertex 0.0177251 0 0.0046609
         vertex 0.0179827 0 0.0046609
      endloop
   endfacet
   facet normal 0 1 0
      outer loop
         vertex 0.0167273 0 0.0036322
         vertex 0.0162927 0 0.0036322
         vertex 0.017487 0 0.00475951
      endloop
   endfacet
   facet normal 0 1 0
      outer loop
         vertex 0.0215155 0 0.00779597
         vertex 0.0213815 0 0.00773797
         vertex 0.0214031 0 0.00777221
      endloop
   endfacet
   facet normal 0 1 0
      outer loop
         vertex 0.0204746 0 0.006836
         vertex 0.0204027 0 0.00666256
         vertex 0.0203823 0 0.00669181
      endloop
   endfacet
   facet normal 0 1 0
      outer loop
         vertex 0.021082 0 0.0065563
         vertex 0.0204119 0 0.0066534
         vertex 0.0204746 0 0.006836
      endloop
   endfacet
   facet normal 0 1 0
      outer loop
         vertex 0.0199695 0 0.00452556
         vertex 0.019734 0 0.0056388
         vertex 0.0199916 0 0.0056388
      endloop
   endfacet
   facet normal 0 1 0
      outer loop
         vertex 0.0193828 0 0.00585047
         vertex 0.0194959 0 0.00573741
         vertex 0.0192094 0 0.00577863
      endloop
   endfacet
   facet normal 0 1 0
      outer loop
         vertex 0.0173048 0 0.0049417
         vertex 0.0148392 0 0.00321544
         vertex 0.0148181 0 0.00324617
      endloop
   endfacet
   facet normal 0 1 0
      outer loop
         vertex 0.0173048 0 0.0049417
         vertex 0.017487 0 0.00475951
         vertex 0.0148959 0 0.00315868
      endloop
   endfacet
   facet normal 0 1 0
      outer loop
         vertex 0.0171683 0 0.00519047
         vertex 0.0172022 0 0.00516841
         vertex 0.0172248 0 0.00513488
      endloop
   endfacet
   facet normal 0 1 0
      outer loop
         vertex 0.0148392 0 0.00335912
         vertex 0.0166479 0 0.00516784
         vertex 0.0173048 0 0.0049417
      endloop
   endfacet
   facet normal 0 1 0
      outer loop
         vertex 0.0153067 0 0.00164573
         vertex 0.015273 0 0.00166806
         vertex 0.0155841 0 0.00192131
      endloop
   endfacet
   facet normal 0 1 0
      outer loop
         vertex 0.0149582 0 0.00207159
         vertex 0.0150622 0 0.00232275
         vertex 0.0154178 0 0.00232275
      endloop
   endfacet
   facet normal 0 1 0
      outer loop
         vertex 0.0158913 0 0.00346592
         vertex 0.0148959 0 0.00315868
         vertex 0.017487 0 0.00475951
      endloop
   endfacet
   facet normal 0 1 0
      outer loop
         vertex 0.0198977 0 0.0044958
         vertex 0.0187043 0 0.00516784
         vertex 0.0187365 0 0.00518955
      endloop
   endfacet
   facet normal 0 1 0
      outer loop
         vertex 0.0184034 0 0.00494214
         vertex 0.0184966 0 0.0050038
         vertex 0.0185403 0 0.0050038
      endloop
   endfacet
   facet normal 0 1 0
      outer loop
         vertex 0.0184966 0 0.0050038
         vertex 0.0184034 0 0.00494214
         vertex 0.0184236 0 0.00497289
      endloop
   endfacet
   facet normal 0 1 0
      outer loop
         vertex 0.0222297 0 0.00775262
         vertex 0.0221329 0 0.00781454
         vertex 0.0221727 0 0.00780777
      endloop
   endfacet
   facet normal 0 1 0
      outer loop
         vertex 0.0214031 0 0.00777221
         vertex 0.0214362 0 0.00779534
         vertex 0.0215155 0 0.00779597
      endloop
   endfacet
   facet normal 0 1 0
      outer loop
         vertex 0.0204119 0 0.0066534
         vertex 0.0204027 0 0.00666256
         vertex 0.0204746 0 0.006836
      endloop
   endfacet
   facet normal 0 1 0
      outer loop
         vertex 0.019734 0 0.0056388
         vertex 0.0199695 0 0.00452556
         vertex 0.0192094 0 0.00531663
      endloop
   endfacet
   facet normal 0 1 0
      outer loop
         vertex 0.0148959 0 0.00315868
         vertex 0.0148392 0 0.00321544
         vertex 0.0173048 0 0.0049417
      endloop
   endfacet
   facet normal 0 1 0
      outer loop
         vertex 0.0167197 0 0.0051976
         vertex 0.0171309 0 0.0051976
         vertex 0.0173048 0 0.0049417
      endloop
   endfacet
   facet normal 0 1 0
      outer loop
         vertex 0.0154178 0 0.00275725
         vertex 0.0154178 0 0.00232275
         vertex 0.0150622 0 0.00232275
      endloop
   endfacet
   facet normal 0 1 0
      outer loop
         vertex 0.0179827 0 0.0046609
         vertex 0.0182208 0 0.00475951
         vertex 0.0182252 0 0.0044958
      endloop
   endfacet
   facet normal 0 1 0
      outer loop
         vertex 0.0187365 0 0.00518955
         vertex 0.0187761 0 0.0051976
         vertex 0.0198977 0 0.0044958
      endloop
   endfacet
   facet normal 0 1 0
      outer loop
         vertex 0.0184236 0 0.00497289
         vertex 0.018457 0 0.00499575
         vertex 0.0184966 0 0.0050038
      endloop
   endfacet
   facet normal 0 1 0
      outer loop
         vertex 0.0198977 0 0.0044958
         vertex 0.0182252 0 0.0044958
         vertex 0.0182208 0 0.00475951
      endloop
   endfacet
   facet normal 0 1 0
      outer loop
         vertex 0.0221727 0 0.00780777
         vertex 0.0222068 0 0.00778597
         vertex 0.0222297 0 0.00775262
      endloop
   endfacet
   facet normal 0 1 0
      outer loop
         vertex 0.0215155 0 0.00779597
         vertex 0.021375 0 0.0077021
         vertex 0.0213815 0 0.00773797
      endloop
   endfacet
   facet normal 0 1 0
      outer loop
         vertex 0.0209361 0 0.00649588
         vertex 0.0205105 0 0.00641533
         vertex 0.0204119 0 0.0066534
      endloop
   endfacet
   facet normal 0 1 0
      outer loop
         vertex 0.0192094 0 0.00531663
         vertex 0.0199373 0 0.00450385
         vertex 0.0198977 0 0.0044958
      endloop
   endfacet
   facet normal 0 1 0
      outer loop
         vertex 0.0172248 0 0.00513488
         vertex 0.0173048 0 0.0049417
         vertex 0.0171309 0 0.0051976
      endloop
   endfacet
   facet normal 0 1 0
      outer loop
         vertex 0.0158913 0 0.00346592
         vertex 0.0155841 0 0.00315869
         vertex 0.0148959 0 0.00315868
      endloop
   endfacet
   facet normal 0 1 0
      outer loop
         vertex 0.0198977 0 0.0044958
         vertex 0.0185403 0 0.0050038
         vertex 0.0187043 0 0.00516784
      endloop
   endfacet
   facet normal 0 1 0
      outer loop
         vertex 0.0182208 0 0.00475951
         vertex 0.0184034 0 0.00494214
         vertex 0.0198977 0 0.0044958
      endloop
   endfacet
   facet normal 0 1 0
      outer loop
         vertex 0.0222377 0 0.007713
         vertex 0.0220972 0 0.00780686
         vertex 0.0221329 0 0.00781454
      endloop
   endfacet
   facet normal 0 1 0
      outer loop
         vertex 0.021922 0 0.0077343
         vertex 0.0220972 0 0.00780686
         vertex 0.0222377 0 0.00683584
      endloop
   endfacet
   facet normal 0 1 0
      outer loop
         vertex 0.0214362 0 0.00779534
         vertex 0.0214758 0 0.0078037
         vertex 0.0215155 0 0.00779597
      endloop
   endfacet
   facet normal 0 1 0
      outer loop
         vertex 0.0204349 0 0.00682795
         vertex 0.0204746 0 0.006836
         vertex 0.020373 0 0.00673116
      endloop
   endfacet
   facet normal 0 1 0
      outer loop
         vertex 0.0192094 0 0.00531663
         vertex 0.0199695 0 0.00452556
         vertex 0.0199373 0 0.00450385
      endloop
   endfacet
   facet normal 0 1 0
      outer loop
         vertex 0.0156218 0 0.0016383
         vertex 0.0153448 0 0.0016383
         vertex 0.0156936 0 0.00181174
      endloop
   endfacet
   facet normal 0 1 0
      outer loop
         vertex 0.0185403 0 0.0050038
         vertex 0.0198977 0 0.0044958
         vertex 0.0184034 0 0.00494214
      endloop
   endfacet
   facet normal 0 1 0
      outer loop
         vertex 0.0222297 0 0.00775262
         vertex 0.0222377 0 0.007713
         vertex 0.0221329 0 0.00781454
      endloop
   endfacet
   facet normal 0 1 0
      outer loop
         vertex 0.0222377 0 0.00683584
         vertex 0.0222079 0 0.006764
         vertex 0.021922 0 0.0077343
      endloop
   endfacet
   facet normal 0 1 0
      outer loop
         vertex 0.0222079 0 0.006764
         vertex 0.021375 0 0.0074916
         vertex 0.0216644 0 0.0077343
      endloop
   endfacet
   facet normal 0 1 0
      outer loop
         vertex 0.0216644 0 0.0077343
         vertex 0.021375 0 0.0074916
         vertex 0.021375 0 0.0077021
      endloop
   endfacet
   facet normal 0 1 0
      outer loop
         vertex 0.0198977 0 0.0044958
         vertex 0.0190904 0 0.0051976
         vertex 0.0192094 0 0.00531663
      endloop
   endfacet
   facet normal 0 1 0
      outer loop
         vertex 0.0187761 0 0.0051976
         vertex 0.0190904 0 0.0051976
         vertex 0.0198977 0 0.0044958
      endloop
   endfacet
   facet normal 0 1 0
      outer loop
         vertex 0.0222377 0 0.00683584
         vertex 0.0222303 0 0.00679771
         vertex 0.0222079 0 0.006764
      endloop
   endfacet
   facet normal 0 1 0
      outer loop
         vertex 0.0215155 0 0.00779597
         vertex 0.0216644 0 0.0077343
         vertex 0.021375 0 0.0077021
      endloop
   endfacet
   facet normal 0 1 0
      outer loop
         vertex 0.021375 0 0.0074916
         vertex 0.0222079 0 0.006764
         vertex 0.021375 0 0.0072884
      endloop
   endfacet
   facet normal 0 1 0
      outer loop
         vertex 0.0148181 0 0.00324617
         vertex 0.0148094 0 0.00328566
         vertex 0.0173048 0 0.0049417
      endloop
   endfacet
   facet normal 0 1 0
      outer loop
         vertex 0.021121 0 0.0074916
         vertex 0.021375 0 0.0072884
         vertex 0.021121 0 0.0072884
      endloop
   endfacet
   facet normal 0 1 0
      outer loop
         vertex 0.0216644 0 0.0077343
         vertex 0.021922 0 0.0077343
         vertex 0.0222079 0 0.006764
      endloop
   endfacet
   facet normal 0 1 0
      outer loop
         vertex 0.021375 0 0.00698479
         vertex 0.021375 0 0.0072884
         vertex 0.0222079 0 0.006764
      endloop
   endfacet
   facet normal 0 1 0
      outer loop
         vertex 0.019571 0 0.00709
         vertex 0.019571 0 0.00769
         vertex 0.021121 0 0.0072884
      endloop
   endfacet
   facet normal 0 1 0
      outer loop
         vertex 0.019571 0 0.00769
         vertex 0.021121 0 0.00769
         vertex 0.021121 0 0.0074916
      endloop
   endfacet
   facet normal 0 1 0
      outer loop
         vertex 0.021375 0 0.0072884
         vertex 0.021121 0 0.0074916
         vertex 0.021375 0 0.0074916
      endloop
   endfacet
   facet normal 0 1 0
      outer loop
         vertex 0.021121 0 0.0072884
         vertex 0.019571 0 0.00769
         vertex 0.021121 0 0.0074916
      endloop
   endfacet
   facet normal 0 1 0
      outer loop
         vertex 0.021121 0 0.0072884
         vertex 0.021121 0 0.00709
         vertex 0.019571 0 0.00709
      endloop
   endfacet
   facet normal 0 1 0
      outer loop
         vertex 0.0222377 0 0.007713
         vertex 0.0222377 0 0.00683584
         vertex 0.0220972 0 0.00780686
      endloop
   endfacet
   facet normal 0 -1 0
      outer loop
         vertex 0.017487 -3.5e-05 0.00475951
         vertex 0.0171924 -3.5e-05 0.003473
         vertex 0.0172238 -3.5e-05 0.0034944
      endloop
   endfacet
   facet normal 0 -1 0
      outer loop
         vertex 0.017487 -3.5e-05 0.00475951
         vertex 0.0171131 -3.5e-05 0.00347237
         vertex 0.0171528 -3.5e-05 0.00346464
      endloop
   endfacet
   facet normal 0 -1 0
      outer loop
         vertex 0.0205105 -3.5e-05 0.00615767
         vertex 0.0208914 -3.5e-05 0.00627105
         vertex 0.0208757 -3.5e-05 0.00635
      endloop
   endfacet
   facet normal 0 -1 0
      outer loop
         vertex 0.0171528 -3.5e-05 0.00346464
         vertex 0.0171924 -3.5e-05 0.003473
         vertex 0.017487 -3.5e-05 0.00475951
      endloop
   endfacet
   facet normal 0 -1 0
      outer loop
         vertex 0.0156614 -3.5e-05 0.00164635
         vertex 0.0156948 -3.5e-05 0.00166921
         vertex 0.0157166 -3.5e-05 0.00170327
      endloop
   endfacet
   facet normal 0 -1 0
      outer loop
         vertex 0.0193828 -3.5e-05 0.00585047
         vertex 0.0192699 -3.5e-05 0.00587154
         vertex 0.0192369 -3.5e-05 0.00584815
      endloop
   endfacet
   facet normal 0 -1 0
      outer loop
         vertex 0.0192699 -3.5e-05 0.00587154
         vertex 0.0193828 -3.5e-05 0.00585047
         vertex 0.0193491 -3.5e-05 0.0058728
      endloop
   endfacet
   facet normal 0 -1 0
      outer loop
         vertex 0.0205105 -3.5e-05 0.00641533
         vertex 0.0209361 -3.5e-05 0.00649588
         vertex 0.0210031 -3.5e-05 0.0065406
      endloop
   endfacet
   facet normal 0 -1 0
      outer loop
         vertex 0.0205105 -3.5e-05 0.00641533
         vertex 0.0208757 -3.5e-05 0.00635
         vertex 0.0208914 -3.5e-05 0.00642895
      endloop
   endfacet
   facet normal 0 -1 0
      outer loop
         vertex 0.0205105 -3.5e-05 0.00615767
         vertex 0.0209361 -3.5e-05 0.00620412
         vertex 0.0208914 -3.5e-05 0.00627105
      endloop
   endfacet
   facet normal 0 -1 0
      outer loop
         vertex 0.017487 -3.5e-05 0.00475951
         vertex 0.0167273 -3.5e-05 0.0036322
         vertex 0.0171131 -3.5e-05 0.00347237
      endloop
   endfacet
   facet normal 0 -1 0
      outer loop
         vertex 0.0154178 -3.5e-05 0.00232275
         vertex 0.0149582 -3.5e-05 0.00207159
         vertex 0.0149504 -3.5e-05 0.0020319
      endloop
   endfacet
   facet normal 0 -1 0
      outer loop
         vertex 0.0157234 -3.5e-05 0.00174314
         vertex 0.0156218 -3.5e-05 0.0016383
         vertex 0.0156614 -3.5e-05 0.00164635
      endloop
   endfacet
   facet normal 0 -1 0
      outer loop
         vertex 0.0193491 -3.5e-05 0.0058728
         vertex 0.0193094 -3.5e-05 0.00588022
         vertex 0.0192699 -3.5e-05 0.00587154
      endloop
   endfacet
   facet normal 0 -1 0
      outer loop
         vertex 0.0212262 -3.5e-05 0.006836
         vertex 0.0212279 -3.5e-05 0.00649588
         vertex 0.0212726 -3.5e-05 0.00642895
      endloop
   endfacet
   facet normal 0 -1 0
      outer loop
         vertex 0.0208914 -3.5e-05 0.00642895
         vertex 0.0209361 -3.5e-05 0.00649588
         vertex 0.0205105 -3.5e-05 0.00641533
      endloop
   endfacet
   facet normal 0 -1 0
      outer loop
         vertex 0.0205105 -3.5e-05 0.00615767
         vertex 0.0210031 -3.5e-05 0.0061594
         vertex 0.0209361 -3.5e-05 0.00620412
      endloop
   endfacet
   facet normal 0 -1 0
      outer loop
         vertex 0.017487 -3.5e-05 0.00475951
         vertex 0.0162927 -3.5e-05 0.0036322
         vertex 0.0167273 -3.5e-05 0.0036322
      endloop
   endfacet
   facet normal 0 -1 0
      outer loop
         vertex 0.017487 -3.5e-05 0.00475951
         vertex 0.0148959 -3.5e-05 0.00315868
         vertex 0.0158913 -3.5e-05 0.00346592
      endloop
   endfacet
   facet normal 0 -1 0
      outer loop
         vertex 0.0149504 -3.5e-05 0.0020319
         vertex 0.0149588 -3.5e-05 0.00199233
         vertex 0.0154178 -3.5e-05 0.00232275
      endloop
   endfacet
   facet normal 0 -1 0
      outer loop
         vertex 0.0157166 -3.5e-05 0.00170327
         vertex 0.0157234 -3.5e-05 0.00174314
         vertex 0.0156614 -3.5e-05 0.00164635
      endloop
   endfacet
   facet normal 0 -1 0
      outer loop
         vertex 0.0192369 -3.5e-05 0.00584815
         vertex 0.0192157 -3.5e-05 0.00581374
         vertex 0.0193828 -3.5e-05 0.00585047
      endloop
   endfacet
   facet normal 0 -1 0
      outer loop
         vertex 0.0199695 -3.5e-05 0.00452556
         vertex 0.021082 -3.5e-05 0.0061437
         vertex 0.0204119 -3.5e-05 0.0059196
      endloop
   endfacet
   facet normal 0 -1 0
      outer loop
         vertex 0.0212262 -3.5e-05 0.006836
         vertex 0.0211609 -3.5e-05 0.0065406
         vertex 0.0212279 -3.5e-05 0.00649588
      endloop
   endfacet
   facet normal 0 -1 0
      outer loop
         vertex 0.0210031 -3.5e-05 0.0065406
         vertex 0.0212262 -3.5e-05 0.006836
         vertex 0.0205105 -3.5e-05 0.00641533
      endloop
   endfacet
   facet normal 0 -1 0
      outer loop
         vertex 0.0205105 -3.5e-05 0.00615767
         vertex 0.021082 -3.5e-05 0.0061437
         vertex 0.0210031 -3.5e-05 0.0061594
      endloop
   endfacet
   facet normal 0 -1 0
      outer loop
         vertex 0.0158913 -3.5e-05 0.00346592
         vertex 0.0162927 -3.5e-05 0.0036322
         vertex 0.017487 -3.5e-05 0.00475951
      endloop
   endfacet
   facet normal 0 -1 0
      outer loop
         vertex 0.0149802 -3.5e-05 0.00196087
         vertex 0.015273 -3.5e-05 0.00166806
         vertex 0.0155841 -3.5e-05 0.00192131
      endloop
   endfacet
   facet normal 0 -1 0
      outer loop
         vertex 0.0154178 -3.5e-05 0.00232275
         vertex 0.0150622 -3.5e-05 0.00232275
         vertex 0.0149582 -3.5e-05 0.00207159
      endloop
   endfacet
   facet normal 0 -1 0
      outer loop
         vertex 0.0148959 -3.5e-05 0.00315868
         vertex 0.0150622 -3.5e-05 0.00275725
         vertex 0.0154178 -3.5e-05 0.00275725
      endloop
   endfacet
   facet normal 0 -1 0
      outer loop
         vertex 0.0154178 -3.5e-05 0.00232275
         vertex 0.0154178 -3.5e-05 0.00275725
         vertex 0.0150622 -3.5e-05 0.00275725
      endloop
   endfacet
   facet normal 0 -1 0
      outer loop
         vertex 0.0155841 -3.5e-05 0.00192131
         vertex 0.0153067 -3.5e-05 0.00164573
         vertex 0.0153448 -3.5e-05 0.0016383
      endloop
   endfacet
   facet normal 0 -1 0
      outer loop
         vertex 0.0157234 -3.5e-05 0.00174314
         vertex 0.0157141 -3.5e-05 0.00178249
         vertex 0.0156218 -3.5e-05 0.0016383
      endloop
   endfacet
   facet normal 0 -1 0
      outer loop
         vertex 0.0173048 -3.5e-05 0.0049417
         vertex 0.0148392 -3.5e-05 0.00335912
         vertex 0.0148168 -3.5e-05 0.00332541
      endloop
   endfacet
   facet normal 0 -1 0
      outer loop
         vertex 0.0173048 -3.5e-05 0.0049417
         vertex 0.0167197 -3.5e-05 0.0051976
         vertex 0.0166801 -3.5e-05 0.00518955
      endloop
   endfacet
   facet normal 0 -1 0
      outer loop
         vertex 0.0192094 -3.5e-05 0.00577863
         vertex 0.0194959 -3.5e-05 0.00573741
         vertex 0.0193828 -3.5e-05 0.00585047
      endloop
   endfacet
   facet normal 0 -1 0
      outer loop
         vertex 0.0204119 -3.5e-05 0.0059196
         vertex 0.0202297 -3.5e-05 0.00573741
         vertex 0.0199695 -3.5e-05 0.00452556
      endloop
   endfacet
   facet normal 0 -1 0
      outer loop
         vertex 0.0212262 -3.5e-05 0.006836
         vertex 0.021082 -3.5e-05 0.0065563
         vertex 0.0211609 -3.5e-05 0.0065406
      endloop
   endfacet
   facet normal 0 -1 0
      outer loop
         vertex 0.0208757 -3.5e-05 0.00635
         vertex 0.0205105 -3.5e-05 0.00641533
         vertex 0.0205105 -3.5e-05 0.00615767
      endloop
   endfacet
   facet normal 0 -1 0
      outer loop
         vertex 0.020373 -3.5e-05 0.00673116
         vertex 0.0204746 -3.5e-05 0.006836
         vertex 0.0204349 -3.5e-05 0.00682795
      endloop
   endfacet
   facet normal 0 -1 0
      outer loop
         vertex 0.0172238 -3.5e-05 0.0034944
         vertex 0.0179827 -3.5e-05 0.0046609
         vertex 0.0177251 -3.5e-05 0.0046609
      endloop
   endfacet
   facet normal 0 -1 0
      outer loop
         vertex 0.0182252 -3.5e-05 0.0044958
         vertex 0.0182208 -3.5e-05 0.00475951
         vertex 0.0179827 -3.5e-05 0.0046609
      endloop
   endfacet
   facet normal 0 -1 0
      outer loop
         vertex 0.0149588 -3.5e-05 0.00199233
         vertex 0.0149802 -3.5e-05 0.00196087
         vertex 0.0154178 -3.5e-05 0.00232275
      endloop
   endfacet
   facet normal 0 -1 0
      outer loop
         vertex 0.0150622 -3.5e-05 0.00275725
         vertex 0.0150622 -3.5e-05 0.00232275
         vertex 0.0154178 -3.5e-05 0.00232275
      endloop
   endfacet
   facet normal 0 -1 0
      outer loop
         vertex 0.0155841 -3.5e-05 0.00192131
         vertex 0.015273 -3.5e-05 0.00166806
         vertex 0.0153067 -3.5e-05 0.00164573
      endloop
   endfacet
   facet normal 0 -1 0
      outer loop
         vertex 0.0156936 -3.5e-05 0.00181174
         vertex 0.0153448 -3.5e-05 0.0016383
         vertex 0.0156218 -3.5e-05 0.0016383
      endloop
   endfacet
   facet normal 0 -1 0
      outer loop
         vertex 0.0173048 -3.5e-05 0.0049417
         vertex 0.0166479 -3.5e-05 0.00516784
         vertex 0.0148392 -3.5e-05 0.00335912
      endloop
   endfacet
   facet normal 0 -1 0
      outer loop
         vertex 0.0173048 -3.5e-05 0.0049417
         vertex 0.0171309 -3.5e-05 0.0051976
         vertex 0.0167197 -3.5e-05 0.0051976
      endloop
   endfacet
   facet normal 0 -1 0
      outer loop
         vertex 0.0172248 -3.5e-05 0.00513488
         vertex 0.0172022 -3.5e-05 0.00516841
         vertex 0.0171683 -3.5e-05 0.00519047
      endloop
   endfacet
   facet normal 0 -1 0
      outer loop
         vertex 0.0192157 -3.5e-05 0.00581374
         vertex 0.0192094 -3.5e-05 0.00577863
         vertex 0.0193828 -3.5e-05 0.00585047
      endloop
   endfacet
   facet normal 0 -1 0
      outer loop
         vertex 0.0192094 -3.5e-05 0.00531663
         vertex 0.0199695 -3.5e-05 0.00452556
         vertex 0.019734 -3.5e-05 0.0056388
      endloop
   endfacet
   facet normal 0 -1 0
      outer loop
         vertex 0.021082 -3.5e-05 0.0061437
         vertex 0.0205105 -3.5e-05 0.00615767
         vertex 0.0204119 -3.5e-05 0.0059196
      endloop
   endfacet
   facet normal 0 -1 0
      outer loop
         vertex 0.0210031 -3.5e-05 0.0065406
         vertex 0.021082 -3.5e-05 0.0065563
         vertex 0.0212262 -3.5e-05 0.006836
      endloop
   endfacet
   facet normal 0 -1 0
      outer loop
         vertex 0.0204349 -3.5e-05 0.00682795
         vertex 0.0204016 -3.5e-05 0.00680509
         vertex 0.020373 -3.5e-05 0.00673116
      endloop
   endfacet
   facet normal 0 -1 0
      outer loop
         vertex 0.0215155 -3.5e-05 0.00779597
         vertex 0.0214362 -3.5e-05 0.00779534
         vertex 0.0214031 -3.5e-05 0.00777221
      endloop
   endfacet
   facet normal 0 -1 0
      outer loop
         vertex 0.0184966 -3.5e-05 0.0050038
         vertex 0.018457 -3.5e-05 0.00499575
         vertex 0.0184236 -3.5e-05 0.00497289
      endloop
   endfacet
   facet normal 0 -1 0
      outer loop
         vertex 0.0184034 -3.5e-05 0.00494214
         vertex 0.0198977 -3.5e-05 0.0044958
         vertex 0.0185403 -3.5e-05 0.0050038
      endloop
   endfacet
   facet normal 0 -1 0
      outer loop
         vertex 0.0198977 -3.5e-05 0.0044958
         vertex 0.0187761 -3.5e-05 0.0051976
         vertex 0.0187365 -3.5e-05 0.00518955
      endloop
   endfacet
   facet normal 0 -1 0
      outer loop
         vertex 0.0179827 -3.5e-05 0.0046609
         vertex 0.0172238 -3.5e-05 0.0034944
         vertex 0.0182252 -3.5e-05 0.0044958
      endloop
   endfacet
   facet normal 0 -1 0
      outer loop
         vertex 0.0154178 -3.5e-05 0.00275725
         vertex 0.0155841 -3.5e-05 0.00315869
         vertex 0.0148959 -3.5e-05 0.00315868
      endloop
   endfacet
   facet normal 0 -1 0
      outer loop
         vertex 0.0157141 -3.5e-05 0.00178249
         vertex 0.0156936 -3.5e-05 0.00181174
         vertex 0.0156218 -3.5e-05 0.0016383
      endloop
   endfacet
   facet normal 0 -1 0
      outer loop
         vertex 0.0166801 -3.5e-05 0.00518955
         vertex 0.0166479 -3.5e-05 0.00516784
         vertex 0.0173048 -3.5e-05 0.0049417
      endloop
   endfacet
   facet normal 0 -1 0
      outer loop
         vertex 0.0171309 -3.5e-05 0.0051976
         vertex 0.0173048 -3.5e-05 0.0049417
         vertex 0.0172248 -3.5e-05 0.00513488
      endloop
   endfacet
   facet normal 0 -1 0
      outer loop
         vertex 0.0173048 -3.5e-05 0.0049417
         vertex 0.0148392 -3.5e-05 0.00321544
         vertex 0.0148959 -3.5e-05 0.00315868
      endloop
   endfacet
   facet normal 0 -1 0
      outer loop
         vertex 0.0173048 -3.5e-05 0.0049417
         vertex 0.0148094 -3.5e-05 0.00328566
         vertex 0.0148181 -3.5e-05 0.00324617
      endloop
   endfacet
   facet normal 0 -1 0
      outer loop
         vertex 0.019734 -3.5e-05 0.0056388
         vertex 0.0194959 -3.5e-05 0.00573741
         vertex 0.0192094 -3.5e-05 0.00531663
      endloop
   endfacet
   facet normal 0 -1 0
      outer loop
         vertex 0.0212726 -3.5e-05 0.00642895
         vertex 0.0212883 -3.5e-05 0.00635
         vertex 0.0212262 -3.5e-05 0.006836
      endloop
   endfacet
   facet normal 0 -1 0
      outer loop
         vertex 0.0204016 -3.5e-05 0.00680509
         vertex 0.0203798 -3.5e-05 0.00677102
         vertex 0.020373 -3.5e-05 0.00673116
      endloop
   endfacet
   facet normal 0 -1 0
      outer loop
         vertex 0.0222079 -3.5e-05 0.006764
         vertex 0.021375 -3.5e-05 0.00698479
         vertex 0.0212262 -3.5e-05 0.006836
      endloop
   endfacet
   facet normal 0 -1 0
      outer loop
         vertex 0.0222297 -3.5e-05 0.00775262
         vertex 0.0222068 -3.5e-05 0.00778597
         vertex 0.0221727 -3.5e-05 0.00780777
      endloop
   endfacet
   facet normal 0 -1 0
      outer loop
         vertex 0.0215155 -3.5e-05 0.00779597
         vertex 0.0214758 -3.5e-05 0.0078037
         vertex 0.0214362 -3.5e-05 0.00779534
      endloop
   endfacet
   facet normal 0 -1 0
      outer loop
         vertex 0.0198977 -3.5e-05 0.0044958
         vertex 0.0184034 -3.5e-05 0.00494214
         vertex 0.0182208 -3.5e-05 0.00475951
      endloop
   endfacet
   facet normal 0 -1 0
      outer loop
         vertex 0.0185403 -3.5e-05 0.0050038
         vertex 0.0184966 -3.5e-05 0.0050038
         vertex 0.0184034 -3.5e-05 0.00494214
      endloop
   endfacet
   facet normal 0 -1 0
      outer loop
         vertex 0.0198977 -3.5e-05 0.0044958
         vertex 0.0190904 -3.5e-05 0.0051976
         vertex 0.0187761 -3.5e-05 0.0051976
      endloop
   endfacet
   facet normal 0 -1 0
      outer loop
         vertex 0.0148959 -3.5e-05 0.00315868
         vertex 0.0155841 -3.5e-05 0.00315869
         vertex 0.0158913 -3.5e-05 0.00346592
      endloop
   endfacet
   facet normal 0 -1 0
      outer loop
         vertex 0.0153448 -3.5e-05 0.0016383
         vertex 0.0156936 -3.5e-05 0.00181174
         vertex 0.0155841 -3.5e-05 0.00192131
      endloop
   endfacet
   facet normal 0 -1 0
      outer loop
         vertex 0.0171683 -3.5e-05 0.00519047
         vertex 0.0171309 -3.5e-05 0.0051976
         vertex 0.0172248 -3.5e-05 0.00513488
      endloop
   endfacet
   facet normal 0 -1 0
      outer loop
         vertex 0.0148181 -3.5e-05 0.00324617
         vertex 0.0148392 -3.5e-05 0.00321544
         vertex 0.0173048 -3.5e-05 0.0049417
      endloop
   endfacet
   facet normal 0 -1 0
      outer loop
         vertex 0.0199695 -3.5e-05 0.00452556
         vertex 0.0199916 -3.5e-05 0.0056388
         vertex 0.019734 -3.5e-05 0.0056388
      endloop
   endfacet
   facet normal 0 -1 0
      outer loop
         vertex 0.0212262 -3.5e-05 0.006836
         vertex 0.0204119 -3.5e-05 0.0066534
         vertex 0.0205105 -3.5e-05 0.00641533
      endloop
   endfacet
   facet normal 0 -1 0
      outer loop
         vertex 0.0204746 -3.5e-05 0.006836
         vertex 0.0204027 -3.5e-05 0.00666256
         vertex 0.0204119 -3.5e-05 0.0066534
      endloop
   endfacet
   facet normal 0 -1 0
      outer loop
         vertex 0.020373 -3.5e-05 0.00673116
         vertex 0.0203823 -3.5e-05 0.00669181
         vertex 0.0204746 -3.5e-05 0.006836
      endloop
   endfacet
   facet normal 0 -1 0
      outer loop
         vertex 0.0212262 -3.5e-05 0.006836
         vertex 0.0212883 -3.5e-05 0.00635
         vertex 0.0222079 -3.5e-05 0.006764
      endloop
   endfacet
   facet normal 0 -1 0
      outer loop
         vertex 0.021375 -3.5e-05 0.0072884
         vertex 0.0222303 -3.5e-05 0.00679771
         vertex 0.0222377 -3.5e-05 0.00683584
      endloop
   endfacet
   facet normal 0 -1 0
      outer loop
         vertex 0.021375 -3.5e-05 0.0072884
         vertex 0.021375 -3.5e-05 0.00698479
         vertex 0.0222079 -3.5e-05 0.006764
      endloop
   endfacet
   facet normal 0 -1 0
      outer loop
         vertex 0.0221329 -3.5e-05 0.00781454
         vertex 0.0222377 -3.5e-05 0.007713
         vertex 0.0222297 -3.5e-05 0.00775262
      endloop
   endfacet
   facet normal 0 -1 0
      outer loop
         vertex 0.0214031 -3.5e-05 0.00777221
         vertex 0.0213815 -3.5e-05 0.00773797
         vertex 0.0215155 -3.5e-05 0.00779597
      endloop
   endfacet
   facet normal 0 -1 0
      outer loop
         vertex 0.0184236 -3.5e-05 0.00497289
         vertex 0.0184034 -3.5e-05 0.00494214
         vertex 0.0184966 -3.5e-05 0.0050038
      endloop
   endfacet
   facet normal 0 -1 0
      outer loop
         vertex 0.0187365 -3.5e-05 0.00518955
         vertex 0.0187043 -3.5e-05 0.00516784
         vertex 0.0198977 -3.5e-05 0.0044958
      endloop
   endfacet
   facet normal 0 -1 0
      outer loop
         vertex 0.0155841 -3.5e-05 0.00192131
         vertex 0.0154178 -3.5e-05 0.00232275
         vertex 0.0149802 -3.5e-05 0.00196087
      endloop
   endfacet
   facet normal 0 -1 0
      outer loop
         vertex 0.0148959 -3.5e-05 0.00315868
         vertex 0.017487 -3.5e-05 0.00475951
         vertex 0.0173048 -3.5e-05 0.0049417
      endloop
   endfacet
   facet normal 0 -1 0
      outer loop
         vertex 0.0192094 -3.5e-05 0.00531663
         vertex 0.0190904 -3.5e-05 0.0051976
         vertex 0.0198977 -3.5e-05 0.0044958
      endloop
   endfacet
   facet normal 0 -1 0
      outer loop
         vertex 0.0202297 -3.5e-05 0.00573741
         vertex 0.0199916 -3.5e-05 0.0056388
         vertex 0.0199695 -3.5e-05 0.00452556
      endloop
   endfacet
   facet normal 0 -1 0
      outer loop
         vertex 0.0203823 -3.5e-05 0.00669181
         vertex 0.0204027 -3.5e-05 0.00666256
         vertex 0.0204746 -3.5e-05 0.006836
      endloop
   endfacet
   facet normal 0 -1 0
      outer loop
         vertex 0.0199695 -3.5e-05 0.00452556
         vertex 0.0222079 -3.5e-05 0.006764
         vertex 0.0212279 -3.5e-05 0.00620412
      endloop
   endfacet
   facet normal 0 -1 0
      outer loop
         vertex 0.0212883 -3.5e-05 0.00635
         vertex 0.0212726 -3.5e-05 0.00627105
         vertex 0.0222079 -3.5e-05 0.006764
      endloop
   endfacet
   facet normal 0 -1 0
      outer loop
         vertex 0.0222079 -3.5e-05 0.006764
         vertex 0.0222303 -3.5e-05 0.00679771
         vertex 0.021375 -3.5e-05 0.0072884
      endloop
   endfacet
   facet normal 0 -1 0
      outer loop
         vertex 0.0221727 -3.5e-05 0.00780777
         vertex 0.0221329 -3.5e-05 0.00781454
         vertex 0.0222297 -3.5e-05 0.00775262
      endloop
   endfacet
   facet normal 0 -1 0
      outer loop
         vertex 0.021375 -3.5e-05 0.0077021
         vertex 0.0216644 -3.5e-05 0.0077343
         vertex 0.0215155 -3.5e-05 0.00779597
      endloop
   endfacet
   facet normal 0 -1 0
      outer loop
         vertex 0.0187043 -3.5e-05 0.00516784
         vertex 0.0185403 -3.5e-05 0.0050038
         vertex 0.0198977 -3.5e-05 0.0044958
      endloop
   endfacet
   facet normal 0 -1 0
      outer loop
         vertex 0.0148168 -3.5e-05 0.00332541
         vertex 0.0148094 -3.5e-05 0.00328566
         vertex 0.0173048 -3.5e-05 0.0049417
      endloop
   endfacet
   facet normal 0 -1 0
      outer loop
         vertex 0.0198977 -3.5e-05 0.0044958
         vertex 0.0199373 -3.5e-05 0.00450385
         vertex 0.0192094 -3.5e-05 0.00531663
      endloop
   endfacet
   facet normal 0 -1 0
      outer loop
         vertex 0.0204119 -3.5e-05 0.0066534
         vertex 0.0212262 -3.5e-05 0.006836
         vertex 0.0204746 -3.5e-05 0.006836
      endloop
   endfacet
   facet normal 0 -1 0
      outer loop
         vertex 0.0212726 -3.5e-05 0.00627105
         vertex 0.0212279 -3.5e-05 0.00620412
         vertex 0.0222079 -3.5e-05 0.006764
      endloop
   endfacet
   facet normal 0 -1 0
      outer loop
         vertex 0.0222377 -3.5e-05 0.00683584
         vertex 0.0220972 -3.5e-05 0.00780686
         vertex 0.021922 -3.5e-05 0.0077343
      endloop
   endfacet
   facet normal 0 -1 0
      outer loop
         vertex 0.0220972 -3.5e-05 0.00780686
         vertex 0.0222377 -3.5e-05 0.00683584
         vertex 0.0222377 -3.5e-05 0.007713
      endloop
   endfacet
   facet normal 0 -1 0
      outer loop
         vertex 0.0213815 -3.5e-05 0.00773797
         vertex 0.021375 -3.5e-05 0.0077021
         vertex 0.0215155 -3.5e-05 0.00779597
      endloop
   endfacet
   facet normal 0 -1 0
      outer loop
         vertex 0.0172238 -3.5e-05 0.0034944
         vertex 0.0177251 -3.5e-05 0.0046609
         vertex 0.017487 -3.5e-05 0.00475951
      endloop
   endfacet
   facet normal 0 -1 0
      outer loop
         vertex 0.0192094 -3.5e-05 0.00577863
         vertex 0.0192094 -3.5e-05 0.00531663
         vertex 0.0194959 -3.5e-05 0.00573741
      endloop
   endfacet
   facet normal 0 -1 0
      outer loop
         vertex 0.0212279 -3.5e-05 0.00620412
         vertex 0.0211609 -3.5e-05 0.0061594
         vertex 0.0199695 -3.5e-05 0.00452556
      endloop
   endfacet
   facet normal 0 -1 0
      outer loop
         vertex 0.0221329 -3.5e-05 0.00781454
         vertex 0.0220972 -3.5e-05 0.00780686
         vertex 0.0222377 -3.5e-05 0.007713
      endloop
   endfacet
   facet normal 0 -1 0
      outer loop
         vertex 0.019571 -3.5e-05 0.00769
         vertex 0.021121 -3.5e-05 0.0072884
         vertex 0.021121 -3.5e-05 0.0074916
      endloop
   endfacet
   facet normal 0 -1 0
      outer loop
         vertex 0.021375 -3.5e-05 0.0074916
         vertex 0.021121 -3.5e-05 0.0074916
         vertex 0.021121 -3.5e-05 0.0072884
      endloop
   endfacet
   facet normal 0 -1 0
      outer loop
         vertex 0.021375 -3.5e-05 0.0077021
         vertex 0.021375 -3.5e-05 0.0074916
         vertex 0.0216644 -3.5e-05 0.0077343
      endloop
   endfacet
   facet normal 0 -1 0
      outer loop
         vertex 0.0199373 -3.5e-05 0.00450385
         vertex 0.0199695 -3.5e-05 0.00452556
         vertex 0.0192094 -3.5e-05 0.00531663
      endloop
   endfacet
   facet normal 0 -1 0
      outer loop
         vertex 0.0222377 -3.5e-05 0.00683584
         vertex 0.021922 -3.5e-05 0.0077343
         vertex 0.021375 -3.5e-05 0.0072884
      endloop
   endfacet
   facet normal 0 -1 0
      outer loop
         vertex 0.021121 -3.5e-05 0.0072884
         vertex 0.021375 -3.5e-05 0.0072884
         vertex 0.021375 -3.5e-05 0.0074916
      endloop
   endfacet
   facet normal 0 -1 0
      outer loop
         vertex 0.021375 -3.5e-05 0.0072884
         vertex 0.021922 -3.5e-05 0.0077343
         vertex 0.0216644 -3.5e-05 0.0077343
      endloop
   endfacet
   facet normal 0 -1 0
      outer loop
         vertex 0.0211609 -3.5e-05 0.0061594
         vertex 0.021082 -3.5e-05 0.0061437
         vertex 0.0199695 -3.5e-05 0.00452556
      endloop
   endfacet
   facet normal 0 -1 0
      outer loop
         vertex 0.021375 -3.5e-05 0.0074916
         vertex 0.021375 -3.5e-05 0.0072884
         vertex 0.0216644 -3.5e-05 0.0077343
      endloop
   endfacet
   facet normal 0 -1 0
      outer loop
         vertex 0.021121 -3.5e-05 0.0074916
         vertex 0.021121 -3.5e-05 0.00769
         vertex 0.019571 -3.5e-05 0.00769
      endloop
   endfacet
   facet normal 0 -1 0
      outer loop
         vertex 0.019571 -3.5e-05 0.00709
         vertex 0.021121 -3.5e-05 0.00709
         vertex 0.021121 -3.5e-05 0.0072884
      endloop
   endfacet
   facet normal 0 -1 0
      outer loop
         vertex 0.021121 -3.5e-05 0.0072884
         vertex 0.019571 -3.5e-05 0.00769
         vertex 0.019571 -3.5e-05 0.00709
      endloop
   endfacet
   facet normal 0 -1 0
      outer loop
         vertex 0.0182208 -3.5e-05 0.00475951
         vertex 0.0182252 -3.5e-05 0.0044958
         vertex 0.0198977 -3.5e-05 0.0044958
      endloop
   endfacet
   facet normal -1 0 0
      outer loop
         vertex 0.019571 -3.5e-05 0.00769
         vertex 0.019571 0 0.00769
         vertex 0.019571 0 0.00709
      endloop
   endfacet
   facet normal -1 0 0
      outer loop
         vertex 0.019571 0 0.00709
         vertex 0.019571 -3.5e-05 0.00709
         vertex 0.019571 -3.5e-05 0.00769
      endloop
   endfacet
   facet normal 0 0 -1
      outer loop
         vertex 0.019571 -3.5e-05 0.00709
         vertex 0.019571 0 0.00709
         vertex 0.021121 0 0.00709
      endloop
   endfacet
   facet normal 0 0 -1
      outer loop
         vertex 0.021121 0 0.00709
         vertex 0.021121 -3.5e-05 0.00709
         vertex 0.019571 -3.5e-05 0.00709
      endloop
   endfacet
   facet normal 1 0 0
      outer loop
         vertex 0.021121 -3.5e-05 0.00709
         vertex 0.021121 0 0.00709
         vertex 0.021121 0 0.0072884
      endloop
   endfacet
   facet normal 1 0 0
      outer loop
         vertex 0.021121 0 0.0072884
         vertex 0.021121 -3.5e-05 0.0072884
         vertex 0.021121 -3.5e-05 0.00709
      endloop
   endfacet
   facet normal 0 0 -1
      outer loop
         vertex 0.021121 -3.5e-05 0.0072884
         vertex 0.021121 0 0.0072884
         vertex 0.021375 0 0.0072884
      endloop
   endfacet
   facet normal 0 0 -1
      outer loop
         vertex 0.021375 0 0.0072884
         vertex 0.021375 -3.5e-05 0.0072884
         vertex 0.021121 -3.5e-05 0.0072884
      endloop
   endfacet
   facet normal -1 0 0
      outer loop
         vertex 0.021375 -3.5e-05 0.0072884
         vertex 0.021375 0 0.0072884
         vertex 0.021375 0 0.00698479
      endloop
   endfacet
   facet normal -1 0 0
      outer loop
         vertex 0.021375 0 0.00698479
         vertex 0.021375 -3.5e-05 0.00698479
         vertex 0.021375 -3.5e-05 0.0072884
      endloop
   endfacet
   facet normal -0.707107 0 0.707107
      outer loop
         vertex 0.021375 -3.5e-05 0.00698479
         vertex 0.021375 0 0.00698479
         vertex 0.0212262 0 0.006836
      endloop
   endfacet
   facet normal -0.707107 0 0.707107
      outer loop
         vertex 0.0212262 0 0.006836
         vertex 0.0212262 -3.5e-05 0.006836
         vertex 0.021375 -3.5e-05 0.00698479
      endloop
   endfacet
   facet normal 0 0 1
      outer loop
         vertex 0.0212262 -3.5e-05 0.006836
         vertex 0.0212262 0 0.006836
         vertex 0.0204746 0 0.006836
      endloop
   endfacet
   facet normal 0 0 1
      outer loop
         vertex 0.0204746 0 0.006836
         vertex 0.0204746 -3.5e-05 0.006836
         vertex 0.0212262 -3.5e-05 0.006836
      endloop
   endfacet
   facet normal -0.199 0 0.98
      outer loop
         vertex 0.0204746 -3.5e-05 0.006836
         vertex 0.0204746 0 0.006836
         vertex 0.0204349 0 0.00682795
      endloop
   endfacet
   facet normal -0.199 0 0.98
      outer loop
         vertex 0.0204349 0 0.00682795
         vertex 0.0204349 -3.5e-05 0.00682795
         vertex 0.0204746 -3.5e-05 0.006836
      endloop
   endfacet
   facet normal -0.565478 0 0.824763
      outer loop
         vertex 0.0204349 -3.5e-05 0.00682795
         vertex 0.0204349 0 0.00682795
         vertex 0.0204016 0 0.00680509
      endloop
   endfacet
   facet normal -0.565478 0 0.824763
      outer loop
         vertex 0.0204016 0 0.00680509
         vertex 0.0204016 -3.5e-05 0.00680509
         vertex 0.0204349 -3.5e-05 0.00682795
      endloop
   endfacet
   facet normal -0.842384 0 0.538878
      outer loop
         vertex 0.0204016 -3.5e-05 0.00680509
         vertex 0.0204016 0 0.00680509
         vertex 0.0203798 0 0.00677102
      endloop
   endfacet
   facet normal -0.842384 0 0.538878
      outer loop
         vertex 0.0203798 0 0.00677102
         vertex 0.0203798 -3.5e-05 0.00677102
         vertex 0.0204016 -3.5e-05 0.00680509
      endloop
   endfacet
   facet normal -0.98585 0 0.167629
      outer loop
         vertex 0.0203798 -3.5e-05 0.00677102
         vertex 0.0203798 0 0.00677102
         vertex 0.020373 0 0.00673116
      endloop
   endfacet
   facet normal -0.98585 0 0.167629
      outer loop
         vertex 0.020373 0 0.00673116
         vertex 0.020373 -3.5e-05 0.00673116
         vertex 0.0203798 -3.5e-05 0.00677102
      endloop
   endfacet
   facet normal -0.973177 0 -0.230057
      outer loop
         vertex 0.020373 -3.5e-05 0.00673116
         vertex 0.020373 0 0.00673116
         vertex 0.0203823 0 0.00669181
      endloop
   endfacet
   facet normal -0.973177 0 -0.230057
      outer loop
         vertex 0.0203823 0 0.00669181
         vertex 0.0203823 -3.5e-05 0.00669181
         vertex 0.020373 -3.5e-05 0.00673116
      endloop
   endfacet
   facet normal -0.820179 0 -0.572107
      outer loop
         vertex 0.0203823 -3.5e-05 0.00669181
         vertex 0.0203823 0 0.00669181
         vertex 0.0204027 0 0.00666256
      endloop
   endfacet
   facet normal -0.820179 0 -0.572107
      outer loop
         vertex 0.0204027 0 0.00666256
         vertex 0.0204027 -3.5e-05 0.00666256
         vertex 0.0203823 -3.5e-05 0.00669181
      endloop
   endfacet
   facet normal -0.707107 0 -0.707107
      outer loop
         vertex 0.0204027 -3.5e-05 0.00666256
         vertex 0.0204027 0 0.00666256
         vertex 0.0204119 0 0.0066534
      endloop
   endfacet
   facet normal -0.707107 0 -0.707107
      outer loop
         vertex 0.0204119 0 0.0066534
         vertex 0.0204119 -3.5e-05 0.0066534
         vertex 0.0204027 -3.5e-05 0.00666256
      endloop
   endfacet
   facet normal -0.923881 0 -0.38268
      outer loop
         vertex 0.0204119 -3.5e-05 0.0066534
         vertex 0.0204119 0 0.0066534
         vertex 0.0205105 0 0.00641533
      endloop
   endfacet
   facet normal -0.923881 0 -0.38268
      outer loop
         vertex 0.0205105 0 0.00641533
         vertex 0.0205105 -3.5e-05 0.00641533
         vertex 0.0204119 -3.5e-05 0.0066534
      endloop
   endfacet
   facet normal -1 0 0
      outer loop
         vertex 0.0205105 -3.5e-05 0.00641533
         vertex 0.0205105 0 0.00641533
         vertex 0.0205105 0 0.00615767
      endloop
   endfacet
   facet normal -1 0 0
      outer loop
         vertex 0.0205105 0 0.00615767
         vertex 0.0205105 -3.5e-05 0.00615767
         vertex 0.0205105 -3.5e-05 0.00641533
      endloop
   endfacet
   facet normal -0.923881 0 0.38268
      outer loop
         vertex 0.0205105 -3.5e-05 0.00615767
         vertex 0.0205105 0 0.00615767
         vertex 0.0204119 0 0.0059196
      endloop
   endfacet
   facet normal -0.923881 0 0.38268
      outer loop
         vertex 0.0204119 0 0.0059196
         vertex 0.0204119 -3.5e-05 0.0059196
         vertex 0.0205105 -3.5e-05 0.00615767
      endloop
   endfacet
   facet normal -0.707107 0 0.707107
      outer loop
         vertex 0.0204119 -3.5e-05 0.0059196
         vertex 0.0204119 0 0.0059196
         vertex 0.0202297 0 0.00573741
      endloop
   endfacet
   facet normal -0.707107 0 0.707107
      outer loop
         vertex 0.0202297 0 0.00573741
         vertex 0.0202297 -3.5e-05 0.00573741
         vertex 0.0204119 -3.5e-05 0.0059196
      endloop
   endfacet
   facet normal -0.382685 0 0.923879
      outer loop
         vertex 0.0202297 -3.5e-05 0.00573741
         vertex 0.0202297 0 0.00573741
         vertex 0.0199916 0 0.0056388
      endloop
   endfacet
   facet normal -0.382685 0 0.923879
      outer loop
         vertex 0.0199916 0 0.0056388
         vertex 0.0199916 -3.5e-05 0.0056388
         vertex 0.0202297 -3.5e-05 0.00573741
      endloop
   endfacet
   facet normal 0 0 1
      outer loop
         vertex 0.0199916 -3.5e-05 0.0056388
         vertex 0.0199916 0 0.0056388
         vertex 0.019734 0 0.0056388
      endloop
   endfacet
   facet normal 0 0 1
      outer loop
         vertex 0.019734 0 0.0056388
         vertex 0.019734 -3.5e-05 0.0056388
         vertex 0.0199916 -3.5e-05 0.0056388
      endloop
   endfacet
   facet normal 0.382685 0 0.923879
      outer loop
         vertex 0.019734 -3.5e-05 0.0056388
         vertex 0.019734 0 0.0056388
         vertex 0.0194959 0 0.00573741
      endloop
   endfacet
   facet normal 0.382685 0 0.923879
      outer loop
         vertex 0.0194959 0 0.00573741
         vertex 0.0194959 -3.5e-05 0.00573741
         vertex 0.019734 -3.5e-05 0.0056388
      endloop
   endfacet
   facet normal 0.707107 0 0.707107
      outer loop
         vertex 0.0194959 -3.5e-05 0.00573741
         vertex 0.0194959 0 0.00573741
         vertex 0.0193828 0 0.00585047
      endloop
   endfacet
   facet normal 0.707107 0 0.707107
      outer loop
         vertex 0.0193828 0 0.00585047
         vertex 0.0193828 -3.5e-05 0.00585047
         vertex 0.0194959 -3.5e-05 0.00573741
      endloop
   endfacet
   facet normal 0.552277 0 0.83366
      outer loop
         vertex 0.0193828 -3.5e-05 0.00585047
         vertex 0.0193828 0 0.00585047
         vertex 0.0193491 0 0.0058728
      endloop
   endfacet
   facet normal 0.552277 0 0.83366
      outer loop
         vertex 0.0193491 0 0.0058728
         vertex 0.0193491 -3.5e-05 0.0058728
         vertex 0.0193828 -3.5e-05 0.00585047
      endloop
   endfacet
   facet normal 0.183394 0 0.983039
      outer loop
         vertex 0.0193491 -3.5e-05 0.0058728
         vertex 0.0193491 0 0.0058728
         vertex 0.0193094 0 0.00588022
      endloop
   endfacet
   facet normal 0.183394 0 0.983039
      outer loop
         vertex 0.0193094 0 0.00588022
         vertex 0.0193094 -3.5e-05 0.00588022
         vertex 0.0193491 -3.5e-05 0.0058728
      endloop
   endfacet
   facet normal -0.214615 0 0.976699
      outer loop
         vertex 0.0193094 -3.5e-05 0.00588022
         vertex 0.0193094 0 0.00588022
         vertex 0.0192699 0 0.00587154
      endloop
   endfacet
   facet normal -0.214615 0 0.976699
      outer loop
         vertex 0.0192699 0 0.00587154
         vertex 0.0192699 -3.5e-05 0.00587154
         vertex 0.0193094 -3.5e-05 0.00588022
      endloop
   endfacet
   facet normal -0.578512 0 0.815674
      outer loop
         vertex 0.0192699 -3.5e-05 0.00587154
         vertex 0.0192699 0 0.00587154
         vertex 0.0192369 0 0.00584815
      endloop
   endfacet
   facet normal -0.578512 0 0.815674
      outer loop
         vertex 0.0192369 0 0.00584815
         vertex 0.0192369 -3.5e-05 0.00584815
         vertex 0.0192699 -3.5e-05 0.00587154
      endloop
   endfacet
   facet normal -0.850875 0 0.525368
      outer loop
         vertex 0.0192369 -3.5e-05 0.00584815
         vertex 0.0192369 0 0.00584815
         vertex 0.0192157 0 0.00581374
      endloop
   endfacet
   facet normal -0.850875 0 0.525368
      outer loop
         vertex 0.0192157 0 0.00581374
         vertex 0.0192157 -3.5e-05 0.00581374
         vertex 0.0192369 -3.5e-05 0.00584815
      endloop
   endfacet
   facet normal -0.984479 0 0.175505
      outer loop
         vertex 0.0192157 -3.5e-05 0.00581374
         vertex 0.0192157 0 0.00581374
         vertex 0.0192094 0 0.00577863
      endloop
   endfacet
   facet normal -0.984479 0 0.175505
      outer loop
         vertex 0.0192094 0 0.00577863
         vertex 0.0192094 -3.5e-05 0.00577863
         vertex 0.0192157 -3.5e-05 0.00581374
      endloop
   endfacet
   facet normal -1 0 0
      outer loop
         vertex 0.0192094 -3.5e-05 0.00577863
         vertex 0.0192094 0 0.00577863
         vertex 0.0192094 0 0.00531663
      endloop
   endfacet
   facet normal -1 0 0
      outer loop
         vertex 0.0192094 0 0.00531663
         vertex 0.0192094 -3.5e-05 0.00531663
         vertex 0.0192094 -3.5e-05 0.00577863
      endloop
   endfacet
   facet normal -0.707107 0 0.707107
      outer loop
         vertex 0.0192094 -3.5e-05 0.00531663
         vertex 0.0192094 0 0.00531663
         vertex 0.0190904 0 0.0051976
      endloop
   endfacet
   facet normal -0.707107 0 0.707107
      outer loop
         vertex 0.0190904 0 0.0051976
         vertex 0.0190904 -3.5e-05 0.0051976
         vertex 0.0192094 -3.5e-05 0.00531663
      endloop
   endfacet
   facet normal 0 0 1
      outer loop
         vertex 0.0190904 -3.5e-05 0.0051976
         vertex 0.0190904 0 0.0051976
         vertex 0.0187761 0 0.0051976
      endloop
   endfacet
   facet normal 0 0 1
      outer loop
         vertex 0.0187761 0 0.0051976
         vertex 0.0187761 -3.5e-05 0.0051976
         vertex 0.0190904 -3.5e-05 0.0051976
      endloop
   endfacet
   facet normal -0.199 0 0.98
      outer loop
         vertex 0.0187761 -3.5e-05 0.0051976
         vertex 0.0187761 0 0.0051976
         vertex 0.0187365 0 0.00518955
      endloop
   endfacet
   facet normal -0.199 0 0.98
      outer loop
         vertex 0.0187365 0 0.00518955
         vertex 0.0187365 -3.5e-05 0.00518955
         vertex 0.0187761 -3.5e-05 0.0051976
      endloop
   endfacet
   facet normal -0.558932 0 0.829214
      outer loop
         vertex 0.0187365 -3.5e-05 0.00518955
         vertex 0.0187365 0 0.00518955
         vertex 0.0187043 0 0.00516784
      endloop
   endfacet
   facet normal -0.558932 0 0.829214
      outer loop
         vertex 0.0187043 0 0.00516784
         vertex 0.0187043 -3.5e-05 0.00516784
         vertex 0.0187365 -3.5e-05 0.00518955
      endloop
   endfacet
   facet normal -0.707107 0 0.707107
      outer loop
         vertex 0.0187043 -3.5e-05 0.00516784
         vertex 0.0187043 0 0.00516784
         vertex 0.0185403 0 0.0050038
      endloop
   endfacet
   facet normal -0.707107 0 0.707107
      outer loop
         vertex 0.0185403 0 0.0050038
         vertex 0.0185403 -3.5e-05 0.0050038
         vertex 0.0187043 -3.5e-05 0.00516784
      endloop
   endfacet
   facet normal 0 0 1
      outer loop
         vertex 0.0185403 -3.5e-05 0.0050038
         vertex 0.0185403 0 0.0050038
         vertex 0.0184966 0 0.0050038
      endloop
   endfacet
   facet normal 0 0 1
      outer loop
         vertex 0.0184966 0 0.0050038
         vertex 0.0184966 -3.5e-05 0.0050038
         vertex 0.0185403 -3.5e-05 0.0050038
      endloop
   endfacet
   facet normal -0.199 0 0.98
      outer loop
         vertex 0.0184966 -3.5e-05 0.0050038
         vertex 0.0184966 0 0.0050038
         vertex 0.018457 0 0.00499575
      endloop
   endfacet
   facet normal -0.199 0 0.98
      outer loop
         vertex 0.018457 0 0.00499575
         vertex 0.018457 -3.5e-05 0.00499575
         vertex 0.0184966 -3.5e-05 0.0050038
      endloop
   endfacet
   facet normal -0.565478 0 0.824763
      outer loop
         vertex 0.018457 -3.5e-05 0.00499575
         vertex 0.018457 0 0.00499575
         vertex 0.0184236 0 0.00497289
      endloop
   endfacet
   facet normal -0.565478 0 0.824763
      outer loop
         vertex 0.0184236 0 0.00497289
         vertex 0.0184236 -3.5e-05 0.00497289
         vertex 0.018457 -3.5e-05 0.00499575
      endloop
   endfacet
   facet normal -0.835844 0 0.548967
      outer loop
         vertex 0.0184236 -3.5e-05 0.00497289
         vertex 0.0184236 0 0.00497289
         vertex 0.0184034 0 0.00494214
      endloop
   endfacet
   facet normal -0.835844 0 0.548967
      outer loop
         vertex 0.0184034 0 0.00494214
         vertex 0.0184034 -3.5e-05 0.00494214
         vertex 0.0184236 -3.5e-05 0.00497289
      endloop
   endfacet
   facet normal -0.707107 0 0.707107
      outer loop
         vertex 0.0184034 -3.5e-05 0.00494214
         vertex 0.0184034 0 0.00494214
         vertex 0.0182208 0 0.00475951
      endloop
   endfacet
   facet normal -0.707107 0 0.707107
      outer loop
         vertex 0.0182208 0 0.00475951
         vertex 0.0182208 -3.5e-05 0.00475951
         vertex 0.0184034 -3.5e-05 0.00494214
      endloop
   endfacet
   facet normal -0.382685 0 0.923879
      outer loop
         vertex 0.0182208 -3.5e-05 0.00475951
         vertex 0.0182208 0 0.00475951
         vertex 0.0179827 0 0.0046609
      endloop
   endfacet
   facet normal -0.382685 0 0.923879
      outer loop
         vertex 0.0179827 0 0.0046609
         vertex 0.0179827 -3.5e-05 0.0046609
         vertex 0.0182208 -3.5e-05 0.00475951
      endloop
   endfacet
   facet normal 0 0 1
      outer loop
         vertex 0.0179827 -3.5e-05 0.0046609
         vertex 0.0179827 0 0.0046609
         vertex 0.0177251 0 0.0046609
      endloop
   endfacet
   facet normal 0 0 1
      outer loop
         vertex 0.0177251 0 0.0046609
         vertex 0.0177251 -3.5e-05 0.0046609
         vertex 0.0179827 -3.5e-05 0.0046609
      endloop
   endfacet
   facet normal 0.382685 0 0.923879
      outer loop
         vertex 0.0177251 -3.5e-05 0.0046609
         vertex 0.0177251 0 0.0046609
         vertex 0.017487 0 0.00475951
      endloop
   endfacet
   facet normal 0.382685 0 0.923879
      outer loop
         vertex 0.017487 0 0.00475951
         vertex 0.017487 -3.5e-05 0.00475951
         vertex 0.0177251 -3.5e-05 0.0046609
      endloop
   endfacet
   facet normal 0.707107 0 0.707107
      outer loop
         vertex 0.017487 -3.5e-05 0.00475951
         vertex 0.017487 0 0.00475951
         vertex 0.0173048 0 0.0049417
      endloop
   endfacet
   facet normal 0.707107 0 0.707107
      outer loop
         vertex 0.0173048 0 0.0049417
         vertex 0.0173048 -3.5e-05 0.0049417
         vertex 0.017487 -3.5e-05 0.00475951
      endloop
   endfacet
   facet normal 0.923881 0 0.38268
      outer loop
         vertex 0.0173048 -3.5e-05 0.0049417
         vertex 0.0173048 0 0.0049417
         vertex 0.0172248 0 0.00513488
      endloop
   endfacet
   facet normal 0.923881 0 0.38268
      outer loop
         vertex 0.0172248 0 0.00513488
         vertex 0.0172248 -3.5e-05 0.00513488
         vertex 0.0173048 -3.5e-05 0.0049417
      endloop
   endfacet
   facet normal 0.829233 0 0.558903
      outer loop
         vertex 0.0172248 -3.5e-05 0.00513488
         vertex 0.0172248 0 0.00513488
         vertex 0.0172022 0 0.00516841
      endloop
   endfacet
   facet normal 0.829233 0 0.558903
      outer loop
         vertex 0.0172022 0 0.00516841
         vertex 0.0172022 -3.5e-05 0.00516841
         vertex 0.0172248 -3.5e-05 0.00513488
      endloop
   endfacet
   facet normal 0.545602 0 0.838044
      outer loop
         vertex 0.0172022 -3.5e-05 0.00516841
         vertex 0.0172022 0 0.00516841
         vertex 0.0171683 0 0.00519047
      endloop
   endfacet
   facet normal 0.545602 0 0.838044
      outer loop
         vertex 0.0171683 0 0.00519047
         vertex 0.0171683 -3.5e-05 0.00519047
         vertex 0.0172022 -3.5e-05 0.00516841
      endloop
   endfacet
   facet normal 0.187249 0 0.982313
      outer loop
         vertex 0.0171683 -3.5e-05 0.00519047
         vertex 0.0171683 0 0.00519047
         vertex 0.0171309 0 0.0051976
      endloop
   endfacet
   facet normal 0.187249 0 0.982313
      outer loop
         vertex 0.0171309 0 0.0051976
         vertex 0.0171309 -3.5e-05 0.0051976
         vertex 0.0171683 -3.5e-05 0.00519047
      endloop
   endfacet
   facet normal 0 0 1
      outer loop
         vertex 0.0171309 -3.5e-05 0.0051976
         vertex 0.0171309 0 0.0051976
         vertex 0.0167197 0 0.0051976
      endloop
   endfacet
   facet normal 0 0 1
      outer loop
         vertex 0.0167197 0 0.0051976
         vertex 0.0167197 -3.5e-05 0.0051976
         vertex 0.0171309 -3.5e-05 0.0051976
      endloop
   endfacet
   facet normal -0.199 0 0.98
      outer loop
         vertex 0.0167197 -3.5e-05 0.0051976
         vertex 0.0167197 0 0.0051976
         vertex 0.0166801 0 0.00518955
      endloop
   endfacet
   facet normal -0.199 0 0.98
      outer loop
         vertex 0.0166801 0 0.00518955
         vertex 0.0166801 -3.5e-05 0.00518955
         vertex 0.0167197 -3.5e-05 0.0051976
      endloop
   endfacet
   facet normal -0.558932 0 0.829214
      outer loop
         vertex 0.0166801 -3.5e-05 0.00518955
         vertex 0.0166801 0 0.00518955
         vertex 0.0166479 0 0.00516784
      endloop
   endfacet
   facet normal -0.558932 0 0.829214
      outer loop
         vertex 0.0166479 0 0.00516784
         vertex 0.0166479 -3.5e-05 0.00516784
         vertex 0.0166801 -3.5e-05 0.00518955
      endloop
   endfacet
   facet normal -0.707107 0 0.707107
      outer loop
         vertex 0.0166479 0 0.00516784
         vertex 0.0148392 0 0.00335912
         vertex 0.0148392 -3.5e-05 0.00335912
      endloop
   endfacet
   facet normal -0.707107 0 0.707107
      outer loop
         vertex 0.0148392 -3.5e-05 0.00335912
         vertex 0.0166479 -3.5e-05 0.00516784
         vertex 0.0166479 0 0.00516784
      endloop
   endfacet
   facet normal -0.833667 0 0.552268
      outer loop
         vertex 0.0148168 -3.5e-05 0.00332541
         vertex 0.0148392 -3.5e-05 0.00335912
         vertex 0.0148392 0 0.00335912
      endloop
   endfacet
   facet normal -0.833667 0 0.552268
      outer loop
         vertex 0.0148392 0 0.00335912
         vertex 0.0148168 0 0.00332541
         vertex 0.0148168 -3.5e-05 0.00332541
      endloop
   endfacet
   facet normal -0.983038 0 0.183402
      outer loop
         vertex 0.0148168 -3.5e-05 0.00332541
         vertex 0.0148168 0 0.00332541
         vertex 0.0148094 0 0.00328566
      endloop
   endfacet
   facet normal -0.983038 0 0.183402
      outer loop
         vertex 0.0148094 0 0.00328566
         vertex 0.0148094 -3.5e-05 0.00328566
         vertex 0.0148168 -3.5e-05 0.00332541
      endloop
   endfacet
   facet normal -0.9767 0 -0.214611
      outer loop
         vertex 0.0148094 -3.5e-05 0.00328566
         vertex 0.0148094 0 0.00328566
         vertex 0.0148181 0 0.00324617
      endloop
   endfacet
   facet normal -0.9767 0 -0.214611
      outer loop
         vertex 0.0148181 0 0.00324617
         vertex 0.0148181 -3.5e-05 0.00324617
         vertex 0.0148094 -3.5e-05 0.00328566
      endloop
   endfacet
   facet normal -0.824788 0 -0.565443
      outer loop
         vertex 0.0148181 -3.5e-05 0.00324617
         vertex 0.0148181 0 0.00324617
         vertex 0.0148392 0 0.00321544
      endloop
   endfacet
   facet normal -0.824788 0 -0.565443
      outer loop
         vertex 0.0148392 0 0.00321544
         vertex 0.0148392 -3.5e-05 0.00321544
         vertex 0.0148181 -3.5e-05 0.00324617
      endloop
   endfacet
   facet normal -0.707107 0 -0.707107
      outer loop
         vertex 0.0148392 -3.5e-05 0.00321544
         vertex 0.0148392 0 0.00321544
         vertex 0.0148959 0 0.00315868
      endloop
   endfacet
   facet normal -0.707107 0 -0.707107
      outer loop
         vertex 0.0148959 0 0.00315868
         vertex 0.0148959 -3.5e-05 0.00315868
         vertex 0.0148392 -3.5e-05 0.00321544
      endloop
   endfacet
   facet normal -0.923881 0 -0.38268
      outer loop
         vertex 0.0148959 -3.5e-05 0.00315868
         vertex 0.0148959 0 0.00315868
         vertex 0.0150622 0 0.00275725
      endloop
   endfacet
   facet normal -0.923881 0 -0.38268
      outer loop
         vertex 0.0150622 0 0.00275725
         vertex 0.0150622 -3.5e-05 0.00275725
         vertex 0.0148959 -3.5e-05 0.00315868
      endloop
   endfacet
   facet normal -1 0 0
      outer loop
         vertex 0.0150622 -3.5e-05 0.00275725
         vertex 0.0150622 0 0.00275725
         vertex 0.0150622 0 0.00232275
      endloop
   endfacet
   facet normal -1 0 0
      outer loop
         vertex 0.0150622 0 0.00232275
         vertex 0.0150622 -3.5e-05 0.00232275
         vertex 0.0150622 -3.5e-05 0.00275725
      endloop
   endfacet
   facet normal -0.923881 0 0.38268
      outer loop
         vertex 0.0150622 -3.5e-05 0.00232275
         vertex 0.0150622 0 0.00232275
         vertex 0.0149582 0 0.00207159
      endloop
   endfacet
   facet normal -0.923881 0 0.38268
      outer loop
         vertex 0.0149582 0 0.00207159
         vertex 0.0149582 -3.5e-05 0.00207159
         vertex 0.0150622 -3.5e-05 0.00232275
      endloop
   endfacet
   facet normal -0.981549 0 0.191212
      outer loop
         vertex 0.0149582 -3.5e-05 0.00207159
         vertex 0.0149582 0 0.00207159
         vertex 0.0149504 0 0.0020319
      endloop
   endfacet
   facet normal -0.981549 0 0.191212
      outer loop
         vertex 0.0149504 0 0.0020319
         vertex 0.0149504 -3.5e-05 0.0020319
         vertex 0.0149582 -3.5e-05 0.00207159
      endloop
   endfacet
   facet normal -0.97838 0 -0.206817
      outer loop
         vertex 0.0149504 -3.5e-05 0.0020319
         vertex 0.0149504 0 0.0020319
         vertex 0.0149588 0 0.00199233
      endloop
   endfacet
   facet normal -0.97838 0 -0.206817
      outer loop
         vertex 0.0149588 0 0.00199233
         vertex 0.0149588 -3.5e-05 0.00199233
         vertex 0.0149504 -3.5e-05 0.0020319
      endloop
   endfacet
   facet normal -0.826985 0 -0.562224
      outer loop
         vertex 0.0149588 -3.5e-05 0.00199233
         vertex 0.0149588 0 0.00199233
         vertex 0.0149802 0 0.00196087
      endloop
   endfacet
   facet normal -0.826985 0 -0.562224
      outer loop
         vertex 0.0149802 0 0.00196087
         vertex 0.0149802 -3.5e-05 0.00196087
         vertex 0.0149588 -3.5e-05 0.00199233
      endloop
   endfacet
   facet normal -0.707107 0 -0.707107
      outer loop
         vertex 0.0149802 -3.5e-05 0.00196087
         vertex 0.0149802 0 0.00196087
         vertex 0.015273 0 0.00166806
      endloop
   endfacet
   facet normal -0.707107 0 -0.707107
      outer loop
         vertex 0.015273 0 0.00166806
         vertex 0.015273 -3.5e-05 0.00166806
         vertex 0.0149802 -3.5e-05 0.00196087
      endloop
   endfacet
   facet normal -0.552277 0 -0.83366
      outer loop
         vertex 0.015273 -3.5e-05 0.00166806
         vertex 0.015273 0 0.00166806
         vertex 0.0153067 0 0.00164573
      endloop
   endfacet
   facet normal -0.552277 0 -0.83366
      outer loop
         vertex 0.0153067 0 0.00164573
         vertex 0.0153067 -3.5e-05 0.00164573
         vertex 0.015273 -3.5e-05 0.00166806
      endloop
   endfacet
   facet normal -0.191206 0 -0.98155
      outer loop
         vertex 0.0153067 -3.5e-05 0.00164573
         vertex 0.0153067 0 0.00164573
         vertex 0.0153448 0 0.0016383
      endloop
   endfacet
   facet normal -0.191206 0 -0.98155
      outer loop
         vertex 0.0153448 0 0.0016383
         vertex 0.0153448 -3.5e-05 0.0016383
         vertex 0.0153067 -3.5e-05 0.00164573
      endloop
   endfacet
   facet normal 0 0 -1
      outer loop
         vertex 0.0153448 -3.5e-05 0.0016383
         vertex 0.0153448 0 0.0016383
         vertex 0.0156218 0 0.0016383
      endloop
   endfacet
   facet normal 0 0 -1
      outer loop
         vertex 0.0156218 0 0.0016383
         vertex 0.0156218 -3.5e-05 0.0016383
         vertex 0.0153448 -3.5e-05 0.0016383
      endloop
   endfacet
   facet normal 0.199 0 -0.98
      outer loop
         vertex 0.0156218 -3.5e-05 0.0016383
         vertex 0.0156218 0 0.0016383
         vertex 0.0156614 0 0.00164635
      endloop
   endfacet
   facet normal 0.199 0 -0.98
      outer loop
         vertex 0.0156614 0 0.00164635
         vertex 0.0156614 -3.5e-05 0.00164635
         vertex 0.0156218 -3.5e-05 0.0016383
      endloop
   endfacet
   facet normal 0.565478 0 -0.824763
      outer loop
         vertex 0.0156614 -3.5e-05 0.00164635
         vertex 0.0156614 0 0.00164635
         vertex 0.0156948 0 0.00166921
      endloop
   endfacet
   facet normal 0.565478 0 -0.824763
      outer loop
         vertex 0.0156948 0 0.00166921
         vertex 0.0156948 -3.5e-05 0.00166921
         vertex 0.0156614 -3.5e-05 0.00164635
      endloop
   endfacet
   facet normal 0.842384 0 -0.538878
      outer loop
         vertex 0.0156948 -3.5e-05 0.00166921
         vertex 0.0156948 0 0.00166921
         vertex 0.0157166 0 0.00170327
      endloop
   endfacet
   facet normal 0.842384 0 -0.538878
      outer loop
         vertex 0.0157166 0 0.00170327
         vertex 0.0157166 -3.5e-05 0.00170327
         vertex 0.0156948 -3.5e-05 0.00166921
      endloop
   endfacet
   facet normal 0.98585 0 -0.167629
      outer loop
         vertex 0.0157166 -3.5e-05 0.00170327
         vertex 0.0157166 0 0.00170327
         vertex 0.0157234 0 0.00174314
      endloop
   endfacet
   facet normal 0.98585 0 -0.167629
      outer loop
         vertex 0.0157234 0 0.00174314
         vertex 0.0157234 -3.5e-05 0.00174314
         vertex 0.0157166 -3.5e-05 0.00170327
      endloop
   endfacet
   facet normal 0.973177 0 0.230057
      outer loop
         vertex 0.0157234 -3.5e-05 0.00174314
         vertex 0.0157234 0 0.00174314
         vertex 0.0157141 0 0.00178249
      endloop
   endfacet
   facet normal 0.973177 0 0.230057
      outer loop
         vertex 0.0157141 0 0.00178249
         vertex 0.0157141 -3.5e-05 0.00178249
         vertex 0.0157234 -3.5e-05 0.00174314
      endloop
   endfacet
   facet normal 0.820179 0 0.572107
      outer loop
         vertex 0.0157141 -3.5e-05 0.00178249
         vertex 0.0157141 0 0.00178249
         vertex 0.0156936 0 0.00181174
      endloop
   endfacet
   facet normal 0.820179 0 0.572107
      outer loop
         vertex 0.0156936 0 0.00181174
         vertex 0.0156936 -3.5e-05 0.00181174
         vertex 0.0157141 -3.5e-05 0.00178249
      endloop
   endfacet
   facet normal 0.707107 0 0.707107
      outer loop
         vertex 0.0155841 0 0.00192131
         vertex 0.0155841 -3.5e-05 0.00192131
         vertex 0.0156936 -3.5e-05 0.00181174
      endloop
   endfacet
   facet normal 0.707107 0 0.707107
      outer loop
         vertex 0.0156936 -3.5e-05 0.00181174
         vertex 0.0156936 0 0.00181174
         vertex 0.0155841 0 0.00192131
      endloop
   endfacet
   facet normal 0.923881 0 0.38268
      outer loop
         vertex 0.0155841 -3.5e-05 0.00192131
         vertex 0.0155841 0 0.00192131
         vertex 0.0154178 0 0.00232275
      endloop
   endfacet
   facet normal 0.923881 0 0.38268
      outer loop
         vertex 0.0154178 0 0.00232275
         vertex 0.0154178 -3.5e-05 0.00232275
         vertex 0.0155841 -3.5e-05 0.00192131
      endloop
   endfacet
   facet normal 1 0 0
      outer loop
         vertex 0.0154178 -3.5e-05 0.00232275
         vertex 0.0154178 0 0.00232275
         vertex 0.0154178 0 0.00275725
      endloop
   endfacet
   facet normal 1 0 0
      outer loop
         vertex 0.0154178 0 0.00275725
         vertex 0.0154178 -3.5e-05 0.00275725
         vertex 0.0154178 -3.5e-05 0.00232275
      endloop
   endfacet
   facet normal 0.923881 0 -0.38268
      outer loop
         vertex 0.0154178 -3.5e-05 0.00275725
         vertex 0.0154178 0 0.00275725
         vertex 0.0155841 0 0.00315869
      endloop
   endfacet
   facet normal 0.923881 0 -0.38268
      outer loop
         vertex 0.0155841 0 0.00315869
         vertex 0.0155841 -3.5e-05 0.00315869
         vertex 0.0154178 -3.5e-05 0.00275725
      endloop
   endfacet
   facet normal 0.707107 0 -0.707107
      outer loop
         vertex 0.0155841 -3.5e-05 0.00315869
         vertex 0.0155841 0 0.00315869
         vertex 0.0158913 0 0.00346592
      endloop
   endfacet
   facet normal 0.707107 0 -0.707107
      outer loop
         vertex 0.0158913 0 0.00346592
         vertex 0.0158913 -3.5e-05 0.00346592
         vertex 0.0155841 -3.5e-05 0.00315869
      endloop
   endfacet
   facet normal 0.382685 0 -0.923879
      outer loop
         vertex 0.0158913 -3.5e-05 0.00346592
         vertex 0.0158913 0 0.00346592
         vertex 0.0162927 0 0.0036322
      endloop
   endfacet
   facet normal 0.382685 0 -0.923879
      outer loop
         vertex 0.0162927 0 0.0036322
         vertex 0.0162927 -3.5e-05 0.0036322
         vertex 0.0158913 -3.5e-05 0.00346592
      endloop
   endfacet
   facet normal 0 0 -1
      outer loop
         vertex 0.0162927 -3.5e-05 0.0036322
         vertex 0.0162927 0 0.0036322
         vertex 0.0167273 0 0.0036322
      endloop
   endfacet
   facet normal 0 0 -1
      outer loop
         vertex 0.0167273 0 0.0036322
         vertex 0.0167273 -3.5e-05 0.0036322
         vertex 0.0162927 -3.5e-05 0.0036322
      endloop
   endfacet
   facet normal -0.382685 0 -0.923879
      outer loop
         vertex 0.0167273 0 0.0036322
         vertex 0.0171131 0 0.00347237
         vertex 0.0171131 -3.5e-05 0.00347237
      endloop
   endfacet
   facet normal -0.382685 0 -0.923879
      outer loop
         vertex 0.0171131 -3.5e-05 0.00347237
         vertex 0.0167273 -3.5e-05 0.0036322
         vertex 0.0167273 0 0.0036322
      endloop
   endfacet
   facet normal -0.191206 0 -0.98155
      outer loop
         vertex 0.0171528 -3.5e-05 0.00346464
         vertex 0.0171131 -3.5e-05 0.00347237
         vertex 0.0171131 0 0.00347237
      endloop
   endfacet
   facet normal -0.191206 0 -0.98155
      outer loop
         vertex 0.0171131 0 0.00347237
         vertex 0.0171528 0 0.00346464
         vertex 0.0171528 -3.5e-05 0.00346464
      endloop
   endfacet
   facet normal 0.206802 0 -0.978383
      outer loop
         vertex 0.0171528 -3.5e-05 0.00346464
         vertex 0.0171528 0 0.00346464
         vertex 0.0171924 0 0.003473
      endloop
   endfacet
   facet normal 0.206802 0 -0.978383
      outer loop
         vertex 0.0171924 0 0.003473
         vertex 0.0171924 -3.5e-05 0.003473
         vertex 0.0171528 -3.5e-05 0.00346464
      endloop
   endfacet
   facet normal 0.562218 0 -0.826989
      outer loop
         vertex 0.0171924 -3.5e-05 0.003473
         vertex 0.0171924 0 0.003473
         vertex 0.0172238 0 0.0034944
      endloop
   endfacet
   facet normal 0.562218 0 -0.826989
      outer loop
         vertex 0.0172238 0 0.0034944
         vertex 0.0172238 -3.5e-05 0.0034944
         vertex 0.0171924 -3.5e-05 0.003473
      endloop
   endfacet
   facet normal 0.707107 0 -0.707107
      outer loop
         vertex 0.0172238 -3.5e-05 0.0034944
         vertex 0.0172238 0 0.0034944
         vertex 0.0182252 0 0.0044958
      endloop
   endfacet
   facet normal 0.707107 0 -0.707107
      outer loop
         vertex 0.0182252 0 0.0044958
         vertex 0.0182252 -3.5e-05 0.0044958
         vertex 0.0172238 -3.5e-05 0.0034944
      endloop
   endfacet
   facet normal 0 0 -1
      outer loop
         vertex 0.0182252 -3.5e-05 0.0044958
         vertex 0.0182252 0 0.0044958
         vertex 0.0198977 0 0.0044958
      endloop
   endfacet
   facet normal 0 0 -1
      outer loop
         vertex 0.0198977 0 0.0044958
         vertex 0.0198977 -3.5e-05 0.0044958
         vertex 0.0182252 -3.5e-05 0.0044958
      endloop
   endfacet
   facet normal 0.199 0 -0.98
      outer loop
         vertex 0.0198977 -3.5e-05 0.0044958
         vertex 0.0198977 0 0.0044958
         vertex 0.0199373 0 0.00450385
      endloop
   endfacet
   facet normal 0.199 0 -0.98
      outer loop
         vertex 0.0199373 0 0.00450385
         vertex 0.0199373 -3.5e-05 0.00450385
         vertex 0.0198977 -3.5e-05 0.0044958
      endloop
   endfacet
   facet normal 0.558932 0 -0.829214
      outer loop
         vertex 0.0199373 -3.5e-05 0.00450385
         vertex 0.0199373 0 0.00450385
         vertex 0.0199695 0 0.00452556
      endloop
   endfacet
   facet normal 0.558932 0 -0.829214
      outer loop
         vertex 0.0199695 0 0.00452556
         vertex 0.0199695 -3.5e-05 0.00452556
         vertex 0.0199373 -3.5e-05 0.00450385
      endloop
   endfacet
   facet normal 0.707107 0 -0.707107
      outer loop
         vertex 0.0199695 -3.5e-05 0.00452556
         vertex 0.0199695 0 0.00452556
         vertex 0.0222079 0 0.006764
      endloop
   endfacet
   facet normal 0.707107 0 -0.707107
      outer loop
         vertex 0.0222079 0 0.006764
         vertex 0.0222079 -3.5e-05 0.006764
         vertex 0.0199695 -3.5e-05 0.00452556
      endloop
   endfacet
   facet normal 0.833667 0 -0.552268
      outer loop
         vertex 0.0222079 -3.5e-05 0.006764
         vertex 0.0222079 0 0.006764
         vertex 0.0222303 0 0.00679771
      endloop
   endfacet
   facet normal 0.833667 0 -0.552268
      outer loop
         vertex 0.0222303 0 0.00679771
         vertex 0.0222303 -3.5e-05 0.00679771
         vertex 0.0222079 -3.5e-05 0.006764
      endloop
   endfacet
   facet normal 0.981549 0 -0.191212
      outer loop
         vertex 0.0222303 -3.5e-05 0.00679771
         vertex 0.0222303 0 0.00679771
         vertex 0.0222377 0 0.00683584
      endloop
   endfacet
   facet normal 0.981549 0 -0.191212
      outer loop
         vertex 0.0222377 0 0.00683584
         vertex 0.0222377 -3.5e-05 0.00683584
         vertex 0.0222303 -3.5e-05 0.00679771
      endloop
   endfacet
   facet normal 1 0 0
      outer loop
         vertex 0.0222377 -3.5e-05 0.00683584
         vertex 0.0222377 0 0.00683584
         vertex 0.0222377 0 0.007713
      endloop
   endfacet
   facet normal 1 0 0
      outer loop
         vertex 0.0222377 0 0.007713
         vertex 0.0222377 -3.5e-05 0.007713
         vertex 0.0222377 -3.5e-05 0.00683584
      endloop
   endfacet
   facet normal 0.979999 0 0.199002
      outer loop
         vertex 0.0222377 -3.5e-05 0.007713
         vertex 0.0222377 0 0.007713
         vertex 0.0222297 0 0.00775262
      endloop
   endfacet
   facet normal 0.979999 0 0.199002
      outer loop
         vertex 0.0222297 0 0.00775262
         vertex 0.0222297 -3.5e-05 0.00775262
         vertex 0.0222377 -3.5e-05 0.007713
      endloop
   endfacet
   facet normal 0.824788 0 0.565443
      outer loop
         vertex 0.0222297 -3.5e-05 0.00775262
         vertex 0.0222297 0 0.00775262
         vertex 0.0222068 0 0.00778597
      endloop
   endfacet
   facet normal 0.824788 0 0.565443
      outer loop
         vertex 0.0222068 0 0.00778597
         vertex 0.0222068 -3.5e-05 0.00778597
         vertex 0.0222297 -3.5e-05 0.00775262
      endloop
   endfacet
   facet normal 0.538883 0 0.842381
      outer loop
         vertex 0.0222068 -3.5e-05 0.00778597
         vertex 0.0222068 0 0.00778597
         vertex 0.0221727 0 0.00780777
      endloop
   endfacet
   facet normal 0.538883 0 0.842381
      outer loop
         vertex 0.0221727 0 0.00780777
         vertex 0.0221727 -3.5e-05 0.00780777
         vertex 0.0222068 -3.5e-05 0.00778597
      endloop
   endfacet
   facet normal 0.167635 0 0.985849
      outer loop
         vertex 0.0221727 -3.5e-05 0.00780777
         vertex 0.0221727 0 0.00780777
         vertex 0.0221329 0 0.00781454
      endloop
   endfacet
   facet normal 0.167635 0 0.985849
      outer loop
         vertex 0.0221329 0 0.00781454
         vertex 0.0221329 -3.5e-05 0.00781454
         vertex 0.0221727 -3.5e-05 0.00780777
      endloop
   endfacet
   facet normal -0.210664 0 0.977558
      outer loop
         vertex 0.0221329 -3.5e-05 0.00781454
         vertex 0.0221329 0 0.00781454
         vertex 0.0220972 0 0.00780686
      endloop
   endfacet
   facet normal -0.210664 0 0.977558
      outer loop
         vertex 0.0220972 0 0.00780686
         vertex 0.0220972 -3.5e-05 0.00780686
         vertex 0.0221329 -3.5e-05 0.00781454
      endloop
   endfacet
   facet normal -0.382685 0 0.923879
      outer loop
         vertex 0.0220972 -3.5e-05 0.00780686
         vertex 0.0220972 0 0.00780686
         vertex 0.021922 0 0.0077343
      endloop
   endfacet
   facet normal -0.382685 0 0.923879
      outer loop
         vertex 0.021922 0 0.0077343
         vertex 0.021922 -3.5e-05 0.0077343
         vertex 0.0220972 -3.5e-05 0.00780686
      endloop
   endfacet
   facet normal 0 0 1
      outer loop
         vertex 0.021922 -3.5e-05 0.0077343
         vertex 0.021922 0 0.0077343
         vertex 0.0216644 0 0.0077343
      endloop
   endfacet
   facet normal 0 0 1
      outer loop
         vertex 0.0216644 0 0.0077343
         vertex 0.0216644 -3.5e-05 0.0077343
         vertex 0.021922 -3.5e-05 0.0077343
      endloop
   endfacet
   facet normal 0.382685 0 0.923879
      outer loop
         vertex 0.0216644 -3.5e-05 0.0077343
         vertex 0.0216644 0 0.0077343
         vertex 0.0215155 0 0.00779597
      endloop
   endfacet
   facet normal 0.382685 0 0.923879
      outer loop
         vertex 0.0215155 0 0.00779597
         vertex 0.0215155 -3.5e-05 0.00779597
         vertex 0.0216644 -3.5e-05 0.0077343
      endloop
   endfacet
   facet normal 0.191206 0 0.98155
      outer loop
         vertex 0.0215155 -3.5e-05 0.00779597
         vertex 0.0215155 0 0.00779597
         vertex 0.0214758 0 0.0078037
      endloop
   endfacet
   facet normal 0.191206 0 0.98155
      outer loop
         vertex 0.0214758 0 0.0078037
         vertex 0.0214758 -3.5e-05 0.0078037
         vertex 0.0215155 -3.5e-05 0.00779597
      endloop
   endfacet
   facet normal -0.206802 0 0.978383
      outer loop
         vertex 0.0214758 -3.5e-05 0.0078037
         vertex 0.0214758 0 0.0078037
         vertex 0.0214362 0 0.00779534
      endloop
   endfacet
   facet normal -0.206802 0 0.978383
      outer loop
         vertex 0.0214362 0 0.00779534
         vertex 0.0214362 -3.5e-05 0.00779534
         vertex 0.0214758 -3.5e-05 0.0078037
      endloop
   endfacet
   facet normal -0.572018 0 0.820241
      outer loop
         vertex 0.0214362 -3.5e-05 0.00779534
         vertex 0.0214362 0 0.00779534
         vertex 0.0214031 0 0.00777221
      endloop
   endfacet
   facet normal -0.572018 0 0.820241
      outer loop
         vertex 0.0214031 0 0.00777221
         vertex 0.0214031 -3.5e-05 0.00777221
         vertex 0.0214362 -3.5e-05 0.00779534
      endloop
   endfacet
   facet normal -0.846644 0 0.532159
      outer loop
         vertex 0.0214031 -3.5e-05 0.00777221
         vertex 0.0214031 0 0.00777221
         vertex 0.0213815 0 0.00773797
      endloop
   endfacet
   facet normal -0.846644 0 0.532159
      outer loop
         vertex 0.0213815 0 0.00773797
         vertex 0.0213815 -3.5e-05 0.00773797
         vertex 0.0214031 -3.5e-05 0.00777221
      endloop
   endfacet
   facet normal -0.983776 0 0.1794
      outer loop
         vertex 0.0213815 -3.5e-05 0.00773797
         vertex 0.0213815 0 0.00773797
         vertex 0.021375 0 0.0077021
      endloop
   endfacet
   facet normal -0.983776 0 0.1794
      outer loop
         vertex 0.021375 0 0.0077021
         vertex 0.021375 -3.5e-05 0.0077021
         vertex 0.0213815 -3.5e-05 0.00773797
      endloop
   endfacet
   facet normal -1 0 0
      outer loop
         vertex 0.021375 -3.5e-05 0.0077021
         vertex 0.021375 0 0.0077021
         vertex 0.021375 0 0.0074916
      endloop
   endfacet
   facet normal -1 0 0
      outer loop
         vertex 0.021375 0 0.0074916
         vertex 0.021375 -3.5e-05 0.0074916
         vertex 0.021375 -3.5e-05 0.0077021
      endloop
   endfacet
   facet normal 0 0 1
      outer loop
         vertex 0.021375 -3.5e-05 0.0074916
         vertex 0.021375 0 0.0074916
         vertex 0.021121 0 0.0074916
      endloop
   endfacet
   facet normal 0 0 1
      outer loop
         vertex 0.021121 0 0.0074916
         vertex 0.021121 -3.5e-05 0.0074916
         vertex 0.021375 -3.5e-05 0.0074916
      endloop
   endfacet
   facet normal 1 0 0
      outer loop
         vertex 0.021121 -3.5e-05 0.0074916
         vertex 0.021121 0 0.0074916
         vertex 0.021121 0 0.00769
      endloop
   endfacet
   facet normal 1 0 0
      outer loop
         vertex 0.021121 0 0.00769
         vertex 0.021121 -3.5e-05 0.00769
         vertex 0.021121 -3.5e-05 0.0074916
      endloop
   endfacet
   facet normal 0 0 1
      outer loop
         vertex 0.021121 -3.5e-05 0.00769
         vertex 0.021121 0 0.00769
         vertex 0.019571 0 0.00769
      endloop
   endfacet
   facet normal 0 0 1
      outer loop
         vertex 0.019571 0 0.00769
         vertex 0.019571 -3.5e-05 0.00769
         vertex 0.021121 -3.5e-05 0.00769
      endloop
   endfacet
endsolid 1-copper. Units = meters