solid 1-copper. STL generated by ONSHAPE BY PTC INC, 1.213. Units = meters
   facet normal 0 1 0
      outer loop
         vertex 0.011046 0 0.007237
         vertex 0.011046 0 0.007487
         vertex 0.011521 0 0.007487
      endloop
   endfacet
   facet normal 0 1 0
      outer loop
         vertex 0.011521 0 0.007487
         vertex 0.011521 0 0.007237
         vertex 0.011046 0 0.007237
      endloop
   endfacet
   facet normal 0 0 1
      outer loop
         vertex 0.011521 -3.5e-05 0.007487
         vertex 0.011521 0 0.007487
         vertex 0.011046 0 0.007487
      endloop
   endfacet
   facet normal 0 0 1
      outer loop
         vertex 0.011046 0 0.007487
         vertex 0.011046 -3.5e-05 0.007487
         vertex 0.011521 -3.5e-05 0.007487
      endloop
   endfacet
   facet normal 0 -1 0
      outer loop
         vertex 0.011521 -3.5e-05 0.007237
         vertex 0.011521 -3.5e-05 0.007487
         vertex 0.011046 -3.5e-05 0.007487
      endloop
   endfacet
   facet normal 0 -1 0
      outer loop
         vertex 0.011046 -3.5e-05 0.007487
         vertex 0.011046 -3.5e-05 0.007237
         vertex 0.011521 -3.5e-05 0.007237
      endloop
   endfacet
   facet normal -1 0 0
      outer loop
         vertex 0.011046 -3.5e-05 0.007487
         vertex 0.011046 0 0.007487
         vertex 0.011046 0 0.007237
      endloop
   endfacet
   facet normal -1 0 0
      outer loop
         vertex 0.011046 0 0.007237
         vertex 0.011046 -3.5e-05 0.007237
         vertex 0.011046 -3.5e-05 0.007487
      endloop
   endfacet
   facet normal 0 0 -1
      outer loop
         vertex 0.011046 -3.5e-05 0.007237
         vertex 0.011046 0 0.007237
         vertex 0.011521 0 0.007237
      endloop
   endfacet
   facet normal 0 0 -1
      outer loop
         vertex 0.011521 0 0.007237
         vertex 0.011521 -3.5e-05 0.007237
         vertex 0.011046 -3.5e-05 0.007237
      endloop
   endfacet
   facet normal 1 0 0
      outer loop
         vertex 0.011521 -3.5e-05 0.007237
         vertex 0.011521 0 0.007237
         vertex 0.011521 0 0.007487
      endloop
   endfacet
   facet normal 1 0 0
      outer loop
         vertex 0.011521 0 0.007487
         vertex 0.011521 -3.5e-05 0.007487
         vertex 0.011521 -3.5e-05 0.007237
      endloop
   endfacet
endsolid 1-copper. Units = meters