solid 1-copper. STL generated by ONSHAPE BY PTC INC, 1.213. Units = meters
   facet normal 0 0 -1
      outer loop
         vertex 0.004706 -3.5e-05 0.0123827
         vertex 0.004706 0 0.0123827
         vertex 0.0067783 0 0.0123827
      endloop
   endfacet
   facet normal 0 0 -1
      outer loop
         vertex 0.0067783 0 0.0123827
         vertex 0.0067783 -3.5e-05 0.0123827
         vertex 0.004706 -3.5e-05 0.0123827
      endloop
   endfacet
   facet normal 1.95887e-05 0 -1
      outer loop
         vertex 0.0067783 -3.5e-05 0.0123827
         vertex 0.0067783 0 0.0123827
         vertex 0.00681718 0 0.0123904
      endloop
   endfacet
   facet normal 0.382702 0 -0.923872
      outer loop
         vertex 0.00681718 -3.5e-05 0.0123904
         vertex 0.00681718 0 0.0123904
         vertex 0.00685014 0 0.0124125
      endloop
   endfacet
   facet normal 0.707121 0 -0.707093
      outer loop
         vertex 0.00685014 0 0.0124125
         vertex 0.00685014 -3.5e-05 0.0124125
         vertex 0.00681718 -3.5e-05 0.0123904
      endloop
   endfacet
   facet normal 0.382702 0 -0.923872
      outer loop
         vertex 0.00681718 0 0.0123904
         vertex 0.00681718 -3.5e-05 0.0123904
         vertex 0.0067783 -3.5e-05 0.0123827
      endloop
   endfacet
   facet normal 0.707107 0 -0.707107
      outer loop
         vertex 0.00685014 -3.5e-05 0.0124125
         vertex 0.00685014 0 0.0124125
         vertex 0.00734718 0 0.0129095
      endloop
   endfacet
   facet normal 0.707107 0 -0.707107
      outer loop
         vertex 0.00734718 0 0.0129095
         vertex 0.00734718 -3.5e-05 0.0129095
         vertex 0.00685014 -3.5e-05 0.0124125
      endloop
   endfacet
   facet normal 0 0 -1
      outer loop
         vertex 0.00734718 -3.5e-05 0.0129095
         vertex 0.00734718 0 0.0129095
         vertex 0.007688 0 0.0129095
      endloop
   endfacet
   facet normal 0 0 -1
      outer loop
         vertex 0.007688 0 0.0129095
         vertex 0.007688 -3.5e-05 0.0129095
         vertex 0.00734718 -3.5e-05 0.0129095
      endloop
   endfacet
   facet normal 1 0 0
      outer loop
         vertex 0.007688 -3.5e-05 0.0129095
         vertex 0.007688 0 0.0129095
         vertex 0.007688 0 0.0138095
      endloop
   endfacet
   facet normal 1 0 0
      outer loop
         vertex 0.007688 0 0.0138095
         vertex 0.007688 -3.5e-05 0.0138095
         vertex 0.007688 -3.5e-05 0.0129095
      endloop
   endfacet
   facet normal 0 0 1
      outer loop
         vertex 0.007688 -3.5e-05 0.0138095
         vertex 0.007688 0 0.0138095
         vertex 0.007238 0 0.0138095
      endloop
   endfacet
   facet normal 0 0 1
      outer loop
         vertex 0.007238 0 0.0138095
         vertex 0.007238 -3.5e-05 0.0138095
         vertex 0.007688 -3.5e-05 0.0138095
      endloop
   endfacet
   facet normal -1 0 0
      outer loop
         vertex 0.007238 -3.5e-05 0.0138095
         vertex 0.007238 0 0.0138095
         vertex 0.007238 0 0.0130877
      endloop
   endfacet
   facet normal -1 0 0
      outer loop
         vertex 0.007238 0 0.0130877
         vertex 0.007238 -3.5e-05 0.0130877
         vertex 0.007238 -3.5e-05 0.0138095
      endloop
   endfacet
   facet normal -0.707107 0 0.707107
      outer loop
         vertex 0.007238 -3.5e-05 0.0130877
         vertex 0.007238 0 0.0130877
         vertex 0.00673622 0 0.0125859
      endloop
   endfacet
   facet normal -0.707107 0 0.707107
      outer loop
         vertex 0.00673622 0 0.0125859
         vertex 0.00673622 -3.5e-05 0.0125859
         vertex 0.007238 -3.5e-05 0.0130877
      endloop
   endfacet
   facet normal 0 0 1
      outer loop
         vertex 0.00673622 -3.5e-05 0.0125859
         vertex 0.00673622 0 0.0125859
         vertex 0.004706 0 0.0125859
      endloop
   endfacet
   facet normal 0 0 1
      outer loop
         vertex 0.004706 0 0.0125859
         vertex 0.004706 -3.5e-05 0.0125859
         vertex 0.00673622 -3.5e-05 0.0125859
      endloop
   endfacet
   facet normal 1 0 0
      outer loop
         vertex 0.004706 -3.5e-05 0.0125859
         vertex 0.004706 0 0.0125859
         vertex 0.004706 0 0.012973
      endloop
   endfacet
   facet normal 1 0 0
      outer loop
         vertex 0.004706 0 0.012973
         vertex 0.004706 -3.5e-05 0.012973
         vertex 0.004706 -3.5e-05 0.0125859
      endloop
   endfacet
   facet normal 0 0 1
      outer loop
         vertex 0.004706 -3.5e-05 0.012973
         vertex 0.004706 0 0.012973
         vertex 0.003906 0 0.012973
      endloop
   endfacet
   facet normal 0 0 1
      outer loop
         vertex 0.003906 0 0.012973
         vertex 0.003906 -3.5e-05 0.012973
         vertex 0.004706 -3.5e-05 0.012973
      endloop
   endfacet
   facet normal 0 1 0
      outer loop
         vertex 0.00673622 0 0.0125859
         vertex 0.007238 0 0.0130877
         vertex 0.00734718 0 0.0129095
      endloop
   endfacet
   facet normal 0 1 0
      outer loop
         vertex 0.004706 0 0.0123827
         vertex 0.004706 0 0.0125859
         vertex 0.00673622 0 0.0125859
      endloop
   endfacet
   facet normal 0 1 0
      outer loop
         vertex 0.00734718 0 0.0129095
         vertex 0.00685014 0 0.0124125
         vertex 0.00673622 0 0.0125859
      endloop
   endfacet
   facet normal 0 1 0
      outer loop
         vertex 0.00673622 0 0.0125859
         vertex 0.00681718 0 0.0123904
         vertex 0.0067783 0 0.0123827
      endloop
   endfacet
   facet normal 0 1 0
      outer loop
         vertex 0.007688 0 0.0138095
         vertex 0.007688 0 0.0129095
         vertex 0.007238 0 0.0130877
      endloop
   endfacet
   facet normal 0 1 0
      outer loop
         vertex 0.00673622 0 0.0125859
         vertex 0.0067783 0 0.0123827
         vertex 0.004706 0 0.0123827
      endloop
   endfacet
   facet normal 0 1 0
      outer loop
         vertex 0.007688 0 0.0129095
         vertex 0.00734718 0 0.0129095
         vertex 0.007238 0 0.0130877
      endloop
   endfacet
   facet normal 0 1 0
      outer loop
         vertex 0.007238 0 0.0130877
         vertex 0.007238 0 0.0138095
         vertex 0.007688 0 0.0138095
      endloop
   endfacet
   facet normal 0 1 0
      outer loop
         vertex 0.003906 0 0.012973
         vertex 0.004706 0 0.012973
         vertex 0.004706 0 0.0125859
      endloop
   endfacet
   facet normal 0 1 0
      outer loop
         vertex 0.003906 0 0.012173
         vertex 0.003906 0 0.012973
         vertex 0.004706 0 0.0123827
      endloop
   endfacet
   facet normal 0 1 0
      outer loop
         vertex 0.004706 0 0.0125859
         vertex 0.004706 0 0.0123827
         vertex 0.003906 0 0.012973
      endloop
   endfacet
   facet normal 0 1 0
      outer loop
         vertex 0.00685014 0 0.0124125
         vertex 0.00681718 0 0.0123904
         vertex 0.00673622 0 0.0125859
      endloop
   endfacet
   facet normal 0 1 0
      outer loop
         vertex 0.004706 0 0.0123827
         vertex 0.004706 0 0.012173
         vertex 0.003906 0 0.012173
      endloop
   endfacet
   facet normal 0 -1 0
      outer loop
         vertex 0.004706 -3.5e-05 0.0123827
         vertex 0.0067783 -3.5e-05 0.0123827
         vertex 0.00673622 -3.5e-05 0.0125859
      endloop
   endfacet
   facet normal 0 -1 0
      outer loop
         vertex 0.00673622 -3.5e-05 0.0125859
         vertex 0.00685014 -3.5e-05 0.0124125
         vertex 0.00734718 -3.5e-05 0.0129095
      endloop
   endfacet
   facet normal 0 -1 0
      outer loop
         vertex 0.007688 -3.5e-05 0.0138095
         vertex 0.007238 -3.5e-05 0.0138095
         vertex 0.007238 -3.5e-05 0.0130877
      endloop
   endfacet
   facet normal 0 -1 0
      outer loop
         vertex 0.00673622 -3.5e-05 0.0125859
         vertex 0.004706 -3.5e-05 0.0125859
         vertex 0.004706 -3.5e-05 0.0123827
      endloop
   endfacet
   facet normal 0 -1 0
      outer loop
         vertex 0.00673622 -3.5e-05 0.0125859
         vertex 0.00681718 -3.5e-05 0.0123904
         vertex 0.00685014 -3.5e-05 0.0124125
      endloop
   endfacet
   facet normal 0 -1 0
      outer loop
         vertex 0.007238 -3.5e-05 0.0130877
         vertex 0.007688 -3.5e-05 0.0129095
         vertex 0.007688 -3.5e-05 0.0138095
      endloop
   endfacet
   facet normal 0 -1 0
      outer loop
         vertex 0.00734718 -3.5e-05 0.0129095
         vertex 0.007238 -3.5e-05 0.0130877
         vertex 0.00673622 -3.5e-05 0.0125859
      endloop
   endfacet
   facet normal 0 -1 0
      outer loop
         vertex 0.0067783 -3.5e-05 0.0123827
         vertex 0.00681718 -3.5e-05 0.0123904
         vertex 0.00673622 -3.5e-05 0.0125859
      endloop
   endfacet
   facet normal 0 -1 0
      outer loop
         vertex 0.003906 -3.5e-05 0.012173
         vertex 0.004706 -3.5e-05 0.012173
         vertex 0.004706 -3.5e-05 0.0123827
      endloop
   endfacet
   facet normal 0 -1 0
      outer loop
         vertex 0.003906 -3.5e-05 0.012973
         vertex 0.003906 -3.5e-05 0.012173
         vertex 0.004706 -3.5e-05 0.0125859
      endloop
   endfacet
   facet normal 0 -1 0
      outer loop
         vertex 0.004706 -3.5e-05 0.0123827
         vertex 0.004706 -3.5e-05 0.0125859
         vertex 0.003906 -3.5e-05 0.012173
      endloop
   endfacet
   facet normal 0 -1 0
      outer loop
         vertex 0.007238 -3.5e-05 0.0130877
         vertex 0.00734718 -3.5e-05 0.0129095
         vertex 0.007688 -3.5e-05 0.0129095
      endloop
   endfacet
   facet normal 0 -1 0
      outer loop
         vertex 0.004706 -3.5e-05 0.0125859
         vertex 0.004706 -3.5e-05 0.012973
         vertex 0.003906 -3.5e-05 0.012973
      endloop
   endfacet
   facet normal -1 0 0
      outer loop
         vertex 0.003906 -3.5e-05 0.012973
         vertex 0.003906 0 0.012973
         vertex 0.003906 0 0.012173
      endloop
   endfacet
   facet normal -1 0 0
      outer loop
         vertex 0.003906 0 0.012173
         vertex 0.003906 -3.5e-05 0.012173
         vertex 0.003906 -3.5e-05 0.012973
      endloop
   endfacet
   facet normal 0 0 -1
      outer loop
         vertex 0.003906 -3.5e-05 0.012173
         vertex 0.003906 0 0.012173
         vertex 0.004706 0 0.012173
      endloop
   endfacet
   facet normal 0 0 -1
      outer loop
         vertex 0.004706 0 0.012173
         vertex 0.004706 -3.5e-05 0.012173
         vertex 0.003906 -3.5e-05 0.012173
      endloop
   endfacet
   facet normal 1 0 0
      outer loop
         vertex 0.004706 -3.5e-05 0.012173
         vertex 0.004706 0 0.012173
         vertex 0.004706 0 0.0123827
      endloop
   endfacet
   facet normal 1 0 0
      outer loop
         vertex 0.004706 0 0.0123827
         vertex 0.004706 -3.5e-05 0.0123827
         vertex 0.004706 -3.5e-05 0.012173
      endloop
   endfacet
endsolid 1-copper. Units = meters