solid 2.54 mm DUPONT MALE PIN HEADER, IO, 2X20, RPi4ModelB. STL generated by ONSHAPE BY PTC INC, 1.213. Units = meters
   facet normal 0 0.984808 -0.173648
      outer loop
         vertex -0.02381 -0.00095 -0.0025
         vertex -0.0238982 -0.00103816 -0.003
         vertex -0.0243618 -0.00103816 -0.003
      endloop
   endfacet
   facet normal 0 0.984808 -0.173648
      outer loop
         vertex -0.0243618 -0.00103816 -0.003
         vertex -0.02445 -0.00095 -0.0025
         vertex -0.02381 -0.00095 -0.0025
      endloop
   endfacet
   facet normal 0 0 -1
      outer loop
         vertex -0.0238982 -0.00150184 -0.003
         vertex -0.0243618 -0.00150184 -0.003
         vertex -0.0243618 -0.00103816 -0.003
      endloop
   endfacet
   facet normal 0 0 -1
      outer loop
         vertex -0.0243618 -0.00103816 -0.003
         vertex -0.0238982 -0.00103816 -0.003
         vertex -0.0238982 -0.00150184 -0.003
      endloop
   endfacet
   facet normal -0.984808 0 -0.173648
      outer loop
         vertex -0.02445 -0.00159 -0.0025
         vertex -0.02445 -0.00095 -0.0025
         vertex -0.0243618 -0.00103816 -0.003
      endloop
   endfacet
   facet normal -0.984808 0 -0.173648
      outer loop
         vertex -0.0243618 -0.00103816 -0.003
         vertex -0.0243618 -0.00150184 -0.003
         vertex -0.02445 -0.00159 -0.0025
      endloop
   endfacet
   facet normal 0.984808 0 -0.173648
      outer loop
         vertex -0.02381 -0.00159 -0.0025
         vertex -0.0238982 -0.00150184 -0.003
         vertex -0.0238982 -0.00103816 -0.003
      endloop
   endfacet
   facet normal 0.984808 0 -0.173648
      outer loop
         vertex -0.0238982 -0.00103816 -0.003
         vertex -0.02381 -0.00095 -0.0025
         vertex -0.02381 -0.00159 -0.0025
      endloop
   endfacet
   facet normal 0 -0.984808 -0.173648
      outer loop
         vertex -0.02381 -0.00159 -0.0025
         vertex -0.02445 -0.00159 -0.0025
         vertex -0.0243618 -0.00150184 -0.003
      endloop
   endfacet
   facet normal 0 -0.984808 -0.173648
      outer loop
         vertex -0.0243618 -0.00150184 -0.003
         vertex -0.0238982 -0.00150184 -0.003
         vertex -0.02381 -0.00159 -0.0025
      endloop
   endfacet
   facet normal 0 -1 0
      outer loop
         vertex -0.02381 -0.00159 0.0078
         vertex -0.02445 -0.00159 0.0078
         vertex -0.02445 -0.00159 -0.0025
      endloop
   endfacet
   facet normal 0 -1 0
      outer loop
         vertex -0.02445 -0.00159 -0.0025
         vertex -0.02381 -0.00159 -0.0025
         vertex -0.02381 -0.00159 0.0078
      endloop
   endfacet
   facet normal -1 0 0
      outer loop
         vertex -0.02445 -0.00159 0.0078
         vertex -0.02445 -0.00095 0.0078
         vertex -0.02445 -0.00095 -0.0025
      endloop
   endfacet
   facet normal -1 0 0
      outer loop
         vertex -0.02445 -0.00095 -0.0025
         vertex -0.02445 -0.00159 -0.0025
         vertex -0.02445 -0.00159 0.0078
      endloop
   endfacet
   facet normal 0 1 0
      outer loop
         vertex -0.02445 -0.00095 0.0078
         vertex -0.02381 -0.00095 0.0078
         vertex -0.02381 -0.00095 -0.0025
      endloop
   endfacet
   facet normal 0 1 0
      outer loop
         vertex -0.02381 -0.00095 -0.0025
         vertex -0.02445 -0.00095 -0.0025
         vertex -0.02445 -0.00095 0.0078
      endloop
   endfacet
   facet normal -0.984808 0 0.173648
      outer loop
         vertex -0.02445 -0.00159 0.0078
         vertex -0.0243618 -0.00150184 0.0083
         vertex -0.0243618 -0.00103816 0.0083
      endloop
   endfacet
   facet normal -0.984808 0 0.173648
      outer loop
         vertex -0.0243618 -0.00103816 0.0083
         vertex -0.02445 -0.00095 0.0078
         vertex -0.02445 -0.00159 0.0078
      endloop
   endfacet
   facet normal 0 -0.984808 0.173648
      outer loop
         vertex -0.02381 -0.00159 0.0078
         vertex -0.0238982 -0.00150184 0.0083
         vertex -0.0243618 -0.00150184 0.0083
      endloop
   endfacet
   facet normal 0 -0.984808 0.173648
      outer loop
         vertex -0.0243618 -0.00150184 0.0083
         vertex -0.02445 -0.00159 0.0078
         vertex -0.02381 -0.00159 0.0078
      endloop
   endfacet
   facet normal 0.984808 0 0.173648
      outer loop
         vertex -0.02381 -0.00159 0.0078
         vertex -0.02381 -0.00095 0.0078
         vertex -0.0238982 -0.00103816 0.0083
      endloop
   endfacet
   facet normal 0.984808 0 0.173648
      outer loop
         vertex -0.0238982 -0.00103816 0.0083
         vertex -0.0238982 -0.00150184 0.0083
         vertex -0.02381 -0.00159 0.0078
      endloop
   endfacet
   facet normal 0 0.984808 0.173648
      outer loop
         vertex -0.02381 -0.00095 0.0078
         vertex -0.02445 -0.00095 0.0078
         vertex -0.0243618 -0.00103816 0.0083
      endloop
   endfacet
   facet normal 0 0.984808 0.173648
      outer loop
         vertex -0.0243618 -0.00103816 0.0083
         vertex -0.0238982 -0.00103816 0.0083
         vertex -0.02381 -0.00095 0.0078
      endloop
   endfacet
   facet normal 0 0 1
      outer loop
         vertex -0.0238982 -0.00103816 0.0083
         vertex -0.0243618 -0.00103816 0.0083
         vertex -0.0243618 -0.00150184 0.0083
      endloop
   endfacet
   facet normal 0 0 1
      outer loop
         vertex -0.0243618 -0.00150184 0.0083
         vertex -0.0238982 -0.00150184 0.0083
         vertex -0.0238982 -0.00103816 0.0083
      endloop
   endfacet
   facet normal 1 0 0
      outer loop
         vertex -0.02381 -0.00095 0.0078
         vertex -0.02381 -0.00159 0.0078
         vertex -0.02381 -0.00159 -0.0025
      endloop
   endfacet
   facet normal 1 0 0
      outer loop
         vertex -0.02381 -0.00159 -0.0025
         vertex -0.02381 -0.00095 -0.0025
         vertex -0.02381 -0.00095 0.0078
      endloop
   endfacet
endsolid 2.54 mm DUPONT MALE PIN HEADER, IO, 2X20, RPi4ModelB. Units = meters