solid Broadcom BCM2711B0 CPU, RPi4ModelB. STL generated by ONSHAPE BY PTC INC, 1.213. Units = meters
   facet normal 0 0 1
      outer loop
         vertex -0.007 -0.007 0.00049
         vertex -0.0065 -0.007 0.00049
         vertex -0.007 -0.0065 0.00049
      endloop
   endfacet
   facet normal 0 1 0
      outer loop
         vertex -0.007 -0.007 0.00049
         vertex -0.007 -0.007 0.0005
         vertex -0.0065 -0.007 0.0005
      endloop
   endfacet
   facet normal 0 1 0
      outer loop
         vertex -0.0065 -0.007 0.0005
         vertex -0.0065 -0.007 0.00049
         vertex -0.007 -0.007 0.00049
      endloop
   endfacet
   facet normal -0.707107 -0.707107 0
      outer loop
         vertex -0.0065 -0.007 0.00049
         vertex -0.0065 -0.007 0.0005
         vertex -0.007 -0.0065 0.0005
      endloop
   endfacet
   facet normal -0.707107 -0.707107 0
      outer loop
         vertex -0.007 -0.0065 0.0005
         vertex -0.007 -0.0065 0.00049
         vertex -0.0065 -0.007 0.00049
      endloop
   endfacet
   facet normal 1 0 0
      outer loop
         vertex -0.007 -0.0065 0.00049
         vertex -0.007 -0.0065 0.0005
         vertex -0.007 -0.007 0.0005
      endloop
   endfacet
   facet normal 1 0 0
      outer loop
         vertex -0.007 -0.007 0.0005
         vertex -0.007 -0.007 0.00049
         vertex -0.007 -0.0065 0.00049
      endloop
   endfacet
   facet normal 0 0 1
      outer loop
         vertex 0.0075 0.0075 0.0005
         vertex -0.007 -0.0065 0.0005
         vertex -0.0065 -0.007 0.0005
      endloop
   endfacet
   facet normal 0 0 1
      outer loop
         vertex -0.0075 -0.0075 0.0005
         vertex -0.007 -0.007 0.0005
         vertex -0.007 -0.0065 0.0005
      endloop
   endfacet
   facet normal 0 0 1
      outer loop
         vertex -0.0075 -0.0075 0.0005
         vertex 0.0075 -0.0075 0.0005
         vertex -0.0065 -0.007 0.0005
      endloop
   endfacet
   facet normal 0 0 1
      outer loop
         vertex 0.0075 0.0075 0.0005
         vertex -0.0075 0.0075 0.0005
         vertex -0.007 -0.0065 0.0005
      endloop
   endfacet
   facet normal 0 0 1
      outer loop
         vertex -0.0065 -0.007 0.0005
         vertex -0.007 -0.007 0.0005
         vertex -0.0075 -0.0075 0.0005
      endloop
   endfacet
   facet normal 0 0 1
      outer loop
         vertex -0.007 -0.0065 0.0005
         vertex -0.0075 0.0075 0.0005
         vertex -0.0075 -0.0075 0.0005
      endloop
   endfacet
   facet normal 0 0 1
      outer loop
         vertex -0.0065 -0.007 0.0005
         vertex 0.0075 -0.0075 0.0005
         vertex 0.0075 0.0075 0.0005
      endloop
   endfacet
   facet normal 0 -1 0
      outer loop
         vertex -0.0075 -0.0075 0.0005
         vertex -0.0075 -0.0075 0
         vertex 0.0075 -0.0075 0
      endloop
   endfacet
   facet normal 0 -1 0
      outer loop
         vertex 0.0075 -0.0075 0
         vertex 0.0075 -0.0075 0.0005
         vertex -0.0075 -0.0075 0.0005
      endloop
   endfacet
   facet normal 0 0 -1
      outer loop
         vertex -0.0075 0.0075 0
         vertex 0.0075 0.0075 0
         vertex 0.0075 -0.0075 0
      endloop
   endfacet
   facet normal 0 0 -1
      outer loop
         vertex 0.0075 -0.0075 0
         vertex -0.0075 -0.0075 0
         vertex -0.0075 0.0075 0
      endloop
   endfacet
   facet normal -1 0 0
      outer loop
         vertex -0.0075 0.0075 0.0005
         vertex -0.0075 0.0075 0
         vertex -0.0075 -0.0075 0
      endloop
   endfacet
   facet normal -1 0 0
      outer loop
         vertex -0.0075 -0.0075 0
         vertex -0.0075 -0.0075 0.0005
         vertex -0.0075 0.0075 0.0005
      endloop
   endfacet
   facet normal 0 1 0
      outer loop
         vertex 0.0075 0.0075 0.0005
         vertex 0.0075 0.0075 0
         vertex -0.0075 0.0075 0
      endloop
   endfacet
   facet normal 0 1 0
      outer loop
         vertex -0.0075 0.0075 0
         vertex -0.0075 0.0075 0.0005
         vertex 0.0075 0.0075 0.0005
      endloop
   endfacet
   facet normal 1 0 0
      outer loop
         vertex 0.0075 -0.0075 0.0005
         vertex 0.0075 -0.0075 0
         vertex 0.0075 0.0075 0
      endloop
   endfacet
   facet normal 1 0 0
      outer loop
         vertex 0.0075 0.0075 0
         vertex 0.0075 0.0075 0.0005
         vertex 0.0075 -0.0075 0.0005
      endloop
   endfacet
endsolid Broadcom BCM2711B0 CPU, RPi4ModelB. Units = meters