solid Display Connector, RPi4ModelB. STL generated by ONSHAPE BY PTC INC, 1.213. Units = meters
   facet normal 0 -0.707107 -0.707107
      outer loop
         vertex 0.00872 -0.00061 0.0005
         vertex 0.00872 -0.00041 0.0003
         vertex 0.00969 -0.00041 0.0003
      endloop
   endfacet
   facet normal 0 -0.707107 -0.707107
      outer loop
         vertex 0.00969 -0.00041 0.0003
         vertex 0.00989 -0.00061 0.0005
         vertex 0.00872 -0.00061 0.0005
      endloop
   endfacet
   facet normal -1 0 0
      outer loop
         vertex 0.00872 0.00031 0.0043
         vertex 0.00872 0.00031 0.0003
         vertex 0.00872 -0.00061 0.0005
      endloop
   endfacet
   facet normal -1 0 0
      outer loop
         vertex 0.00872 0.00031 0.0003
         vertex 0.00872 -0.00041 0.0003
         vertex 0.00872 -0.00061 0.0005
      endloop
   endfacet
   facet normal -1 0 0
      outer loop
         vertex 0.00872 -0.00061 0.0005
         vertex 0.00872 -0.00061 0.0043
         vertex 0.00872 0.00031 0.0043
      endloop
   endfacet
   facet normal 0 1 0
      outer loop
         vertex 0.00902 0.00031 0.0043
         vertex 0.00902 0.00031 0.0003
         vertex 0.00872 0.00031 0.0003
      endloop
   endfacet
   facet normal 0 1 0
      outer loop
         vertex 0.00872 0.00031 0.0003
         vertex 0.00872 0.00031 0.0043
         vertex 0.00902 0.00031 0.0043
      endloop
   endfacet
   facet normal 0 0 -1
      outer loop
         vertex 0.00969 0.00041 0.0003
         vertex 0.00969 -0.00041 0.0003
         vertex 0.00902 0.00031 0.0003
      endloop
   endfacet
   facet normal 0 0 -1
      outer loop
         vertex 0.00872 -0.00041 0.0003
         vertex 0.00872 0.00031 0.0003
         vertex 0.00902 0.00031 0.0003
      endloop
   endfacet
   facet normal 0 0 -1
      outer loop
         vertex 0.00902 0.00031 0.0003
         vertex 0.00969 -0.00041 0.0003
         vertex 0.00872 -0.00041 0.0003
      endloop
   endfacet
   facet normal 0 0 -1
      outer loop
         vertex 0.00902 0.00031 0.0003
         vertex 0.00902 0.00041 0.0003
         vertex 0.00969 0.00041 0.0003
      endloop
   endfacet
   facet normal -1 0 0
      outer loop
         vertex 0.00902 0.00031 0.0043
         vertex 0.00902 0.00061 0.0043
         vertex 0.00902 0.00061 0.0005
      endloop
   endfacet
   facet normal -1 0 0
      outer loop
         vertex 0.00902 0.00061 0.0005
         vertex 0.00902 0.00031 0.0003
         vertex 0.00902 0.00031 0.0043
      endloop
   endfacet
   facet normal -1 0 0
      outer loop
         vertex 0.00902 0.00061 0.0005
         vertex 0.00902 0.00041 0.0003
         vertex 0.00902 0.00031 0.0003
      endloop
   endfacet
   facet normal 0 0.707107 -0.707107
      outer loop
         vertex 0.00902 0.00061 0.0005
         vertex 0.00989 0.00061 0.0005
         vertex 0.00969 0.00041 0.0003
      endloop
   endfacet
   facet normal 0 0.707107 -0.707107
      outer loop
         vertex 0.00969 0.00041 0.0003
         vertex 0.00902 0.00041 0.0003
         vertex 0.00902 0.00061 0.0005
      endloop
   endfacet
   facet normal 0.707107 0 -0.707107
      outer loop
         vertex 0.00989 0.00061 0.0005
         vertex 0.00989 -0.00061 0.0005
         vertex 0.00969 -0.00041 0.0003
      endloop
   endfacet
   facet normal 0.707107 0 -0.707107
      outer loop
         vertex 0.00969 -0.00041 0.0003
         vertex 0.00969 0.00041 0.0003
         vertex 0.00989 0.00061 0.0005
      endloop
   endfacet
   facet normal 1 0 0
      outer loop
         vertex 0.00989 0.00061 0.0005
         vertex 0.00989 0.00061 0.0013
         vertex 0.00989 -0.00061 0.00086
      endloop
   endfacet
   facet normal 1 0 0
      outer loop
         vertex 0.00989 -0.00061 0.00086
         vertex 0.00989 -0.00061 0.0005
         vertex 0.00989 0.00061 0.0005
      endloop
   endfacet
   facet normal 0 -1 0
      outer loop
         vertex 0.00872 -0.00061 0.0043
         vertex 0.00872 -0.00061 0.0005
         vertex 0.0095 -0.00061 0.00086
      endloop
   endfacet
   facet normal 0 -1 0
      outer loop
         vertex 0.00989 -0.00061 0.0005
         vertex 0.00989 -0.00061 0.00086
         vertex 0.0095 -0.00061 0.00086
      endloop
   endfacet
   facet normal 0 -1 0
      outer loop
         vertex 0.0095 -0.00061 0.00086
         vertex 0.00872 -0.00061 0.0005
         vertex 0.00989 -0.00061 0.0005
      endloop
   endfacet
   facet normal 0 -1 0
      outer loop
         vertex 0.0095 -0.00061 0.00086
         vertex 0.0095 -0.00061 0.0043
         vertex 0.00872 -0.00061 0.0043
      endloop
   endfacet
   facet normal 0 1 0
      outer loop
         vertex 0.00989 0.00061 0.0005
         vertex 0.00902 0.00061 0.0005
         vertex 0.0095 0.00061 0.0013
      endloop
   endfacet
   facet normal 0 1 0
      outer loop
         vertex 0.00902 0.00061 0.0043
         vertex 0.0095 0.00061 0.0043
         vertex 0.0095 0.00061 0.0013
      endloop
   endfacet
   facet normal 0 1 0
      outer loop
         vertex 0.0095 0.00061 0.0013
         vertex 0.00902 0.00061 0.0005
         vertex 0.00902 0.00061 0.0043
      endloop
   endfacet
   facet normal 0 1 0
      outer loop
         vertex 0.0095 0.00061 0.0013
         vertex 0.00989 0.00061 0.0013
         vertex 0.00989 0.00061 0.0005
      endloop
   endfacet
   facet normal 1 0 0
      outer loop
         vertex 0.0095 -0.00061 0.0043
         vertex 0.0095 -0.00061 0.00086
         vertex 0.0095 0.00061 0.0013
      endloop
   endfacet
   facet normal 1 0 0
      outer loop
         vertex 0.0095 0.00061 0.0013
         vertex 0.0095 0.00061 0.0043
         vertex 0.0095 -0.00061 0.0043
      endloop
   endfacet
   facet normal 0 -0.339265 0.940691
      outer loop
         vertex 0.0095 -0.00061 0.00086
         vertex 0.00989 -0.00061 0.00086
         vertex 0.00989 0.00061 0.0013
      endloop
   endfacet
   facet normal 0 -0.339265 0.940691
      outer loop
         vertex 0.00989 0.00061 0.0013
         vertex 0.0095 0.00061 0.0013
         vertex 0.0095 -0.00061 0.00086
      endloop
   endfacet
   facet normal 0 0 -1
      outer loop
         vertex 0.011 -0.0014 0.0043
         vertex 0.00792 -0.00045 0.0043
         vertex 0.00872 -0.00061 0.0043
      endloop
   endfacet
   facet normal 0 0 -1
      outer loop
         vertex 0.00792 -0.00045 0.0043
         vertex 0.00792 0.0001 0.0043
         vertex 0.0082 0.0001 0.0043
      endloop
   endfacet
   facet normal 0 0 -1
      outer loop
         vertex -0.00660622 -0.0014 0.0043
         vertex -0.00872 -0.00061 0.0043
         vertex -0.00792 -0.00045 0.0043
      endloop
   endfacet
   facet normal 0 0 -1
      outer loop
         vertex -0.00660622 -0.0014 0.0043
         vertex 0.00660622 -0.0014 0.0043
         vertex 0.006 -0.00245 0.0043
      endloop
   endfacet
   facet normal 0 0 -1
      outer loop
         vertex -0.0084 0.00145 0.0043
         vertex -0.0082 0.00125 0.0043
         vertex -0.00902 0.00061 0.0043
      endloop
   endfacet
   facet normal 0 0 -1
      outer loop
         vertex 0.0084 0.00145 0.0043
         vertex 0.0095 0.00061 0.0043
         vertex 0.00902 0.00061 0.0043
      endloop
   endfacet
   facet normal 0 0 -1
      outer loop
         vertex 0.0082 0.0001 0.0043
         vertex 0.0082 0.00125 0.0043
         vertex 0.00872 0.00031 0.0043
      endloop
   endfacet
   facet normal 0 0 -1
      outer loop
         vertex 0.0082 0.0001 0.0043
         vertex 0.00872 -0.00061 0.0043
         vertex 0.00792 -0.00045 0.0043
      endloop
   endfacet
   facet normal 0 0 -1
      outer loop
         vertex 0.006 -0.00245 0.0043
         vertex -0.006 -0.00245 0.0043
         vertex -0.00660622 -0.0014 0.0043
      endloop
   endfacet
   facet normal 0 0 -1
      outer loop
         vertex 0.00792 -0.00045 0.0043
         vertex 0.011 -0.0014 0.0043
         vertex 0.00660622 -0.0014 0.0043
      endloop
   endfacet
   facet normal 0 0 -1
      outer loop
         vertex -0.00902 0.00061 0.0043
         vertex -0.0095 0.00061 0.0043
         vertex -0.0084 0.00145 0.0043
      endloop
   endfacet
   facet normal 0 0 -1
      outer loop
         vertex -0.00872 0.00031 0.0043
         vertex -0.00902 0.00031 0.0043
         vertex -0.00902 0.00061 0.0043
      endloop
   endfacet
   facet normal 0 0 -1
      outer loop
         vertex -0.00792 -0.00045 0.0043
         vertex -0.00872 -0.00061 0.0043
         vertex -0.0082 0.0001 0.0043
      endloop
   endfacet
   facet normal 0 0 -1
      outer loop
         vertex -0.0082 0.0001 0.0043
         vertex -0.00872 -0.00061 0.0043
         vertex -0.00872 0.00031 0.0043
      endloop
   endfacet
   facet normal 0 0 -1
      outer loop
         vertex 0.0084 0.00145 0.0043
         vertex 0.011 0.00145 0.0043
         vertex 0.0095 0.00061 0.0043
      endloop
   endfacet
   facet normal 0 0 -1
      outer loop
         vertex 0.011 -0.0014 0.0043
         vertex 0.0095 -0.00061 0.0043
         vertex 0.0095 0.00061 0.0043
      endloop
   endfacet
   facet normal 0 0 -1
      outer loop
         vertex 0.00872 -0.00061 0.0043
         vertex 0.0095 -0.00061 0.0043
         vertex 0.011 -0.0014 0.0043
      endloop
   endfacet
   facet normal 0 0 -1
      outer loop
         vertex 0.00660622 -0.0014 0.0043
         vertex -0.00792 -0.00045 0.0043
         vertex 0.00792 -0.00045 0.0043
      endloop
   endfacet
   facet normal 0 0 -1
      outer loop
         vertex -0.00902 0.00061 0.0043
         vertex -0.0082 0.00125 0.0043
         vertex -0.00872 0.00031 0.0043
      endloop
   endfacet
   facet normal 0 0 -1
      outer loop
         vertex -0.00872 0.00031 0.0043
         vertex -0.0082 0.00125 0.0043
         vertex -0.0082 0.0001 0.0043
      endloop
   endfacet
   facet normal 0 0 -1
      outer loop
         vertex 0.00872 0.00031 0.0043
         vertex 0.0082 0.00125 0.0043
         vertex 0.00902 0.00061 0.0043
      endloop
   endfacet
   facet normal 0 0 -1
      outer loop
         vertex 0.0095 0.00061 0.0043
         vertex 0.011 0.00145 0.0043
         vertex 0.011 -0.0014 0.0043
      endloop
   endfacet
   facet normal 0 0 -1
      outer loop
         vertex -0.00792 -0.00045 0.0043
         vertex 0.00660622 -0.0014 0.0043
         vertex -0.00660622 -0.0014 0.0043
      endloop
   endfacet
   facet normal 0 0 -1
      outer loop
         vertex -0.0082 0.0001 0.0043
         vertex -0.00792 0.0001 0.0043
         vertex -0.00792 -0.00045 0.0043
      endloop
   endfacet
   facet normal 0 0 -1
      outer loop
         vertex 0.00902 0.00061 0.0043
         vertex 0.0082 0.00125 0.0043
         vertex 0.0084 0.00145 0.0043
      endloop
   endfacet
   facet normal 0 0 -1
      outer loop
         vertex -0.0095 0.00061 0.0043
         vertex -0.011 0.00145 0.0043
         vertex -0.0084 0.00145 0.0043
      endloop
   endfacet
   facet normal 0 0 -1
      outer loop
         vertex -0.011 -0.0014 0.0043
         vertex -0.0095 -0.00061 0.0043
         vertex -0.00872 -0.00061 0.0043
      endloop
   endfacet
   facet normal 0 0 -1
      outer loop
         vertex -0.011 -0.0014 0.0043
         vertex -0.011 0.00145 0.0043
         vertex -0.0095 0.00061 0.0043
      endloop
   endfacet
   facet normal 0 0 -1
      outer loop
         vertex 0.00872 0.00031 0.0043
         vertex 0.00872 -0.00061 0.0043
         vertex 0.0082 0.0001 0.0043
      endloop
   endfacet
   facet normal 0 0 -1
      outer loop
         vertex -0.0095 0.00061 0.0043
         vertex -0.0095 -0.00061 0.0043
         vertex -0.011 -0.0014 0.0043
      endloop
   endfacet
   facet normal 0 0 -1
      outer loop
         vertex -0.00872 -0.00061 0.0043
         vertex -0.00660622 -0.0014 0.0043
         vertex -0.011 -0.0014 0.0043
      endloop
   endfacet
   facet normal 0 0 -1
      outer loop
         vertex 0.00902 0.00061 0.0043
         vertex 0.00902 0.00031 0.0043
         vertex 0.00872 0.00031 0.0043
      endloop
   endfacet
   facet normal -1 0 0
      outer loop
         vertex -0.0095 -0.00061 0.0043
         vertex -0.0095 0.00061 0.0043
         vertex -0.0095 0.00061 0.0013
      endloop
   endfacet
   facet normal -1 0 0
      outer loop
         vertex -0.0095 0.00061 0.0013
         vertex -0.0095 -0.00061 0.00086
         vertex -0.0095 -0.00061 0.0043
      endloop
   endfacet
   facet normal 0 -0.339265 0.940691
      outer loop
         vertex -0.00989 -0.00061 0.00086
         vertex -0.0095 -0.00061 0.00086
         vertex -0.0095 0.00061 0.0013
      endloop
   endfacet
   facet normal 0 -0.339265 0.940691
      outer loop
         vertex -0.0095 0.00061 0.0013
         vertex -0.00989 0.00061 0.0013
         vertex -0.00989 -0.00061 0.00086
      endloop
   endfacet
   facet normal 0 -1 0
      outer loop
         vertex -0.00989 -0.00061 0.0005
         vertex -0.00872 -0.00061 0.0005
         vertex -0.0095 -0.00061 0.00086
      endloop
   endfacet
   facet normal 0 -1 0
      outer loop
         vertex -0.00872 -0.00061 0.0043
         vertex -0.0095 -0.00061 0.0043
         vertex -0.0095 -0.00061 0.00086
      endloop
   endfacet
   facet normal 0 -1 0
      outer loop
         vertex -0.0095 -0.00061 0.00086
         vertex -0.00872 -0.00061 0.0005
         vertex -0.00872 -0.00061 0.0043
      endloop
   endfacet
   facet normal 0 -1 0
      outer loop
         vertex -0.0095 -0.00061 0.00086
         vertex -0.00989 -0.00061 0.00086
         vertex -0.00989 -0.00061 0.0005
      endloop
   endfacet
   facet normal 0 1 0
      outer loop
         vertex -0.00902 0.00061 0.0043
         vertex -0.00902 0.00061 0.0005
         vertex -0.0095 0.00061 0.0013
      endloop
   endfacet
   facet normal 0 1 0
      outer loop
         vertex -0.00989 0.00061 0.0005
         vertex -0.00989 0.00061 0.0013
         vertex -0.0095 0.00061 0.0013
      endloop
   endfacet
   facet normal 0 1 0
      outer loop
         vertex -0.0095 0.00061 0.0013
         vertex -0.00902 0.00061 0.0005
         vertex -0.00989 0.00061 0.0005
      endloop
   endfacet
   facet normal 0 1 0
      outer loop
         vertex -0.0095 0.00061 0.0013
         vertex -0.0095 0.00061 0.0043
         vertex -0.00902 0.00061 0.0043
      endloop
   endfacet
   facet normal 1 0 0
      outer loop
         vertex -0.00872 0.00031 0.0043
         vertex -0.00872 -0.00061 0.0043
         vertex -0.00872 -0.00061 0.0005
      endloop
   endfacet
   facet normal 1 0 0
      outer loop
         vertex -0.00872 -0.00061 0.0005
         vertex -0.00872 -0.00041 0.0003
         vertex -0.00872 0.00031 0.0043
      endloop
   endfacet
   facet normal 1 0 0
      outer loop
         vertex -0.00872 -0.00041 0.0003
         vertex -0.00872 0.00031 0.0003
         vertex -0.00872 0.00031 0.0043
      endloop
   endfacet
   facet normal 1 0 0
      outer loop
         vertex -0.00902 0.00031 0.0043
         vertex -0.00902 0.00041 0.0003
         vertex -0.00902 0.00061 0.0005
      endloop
   endfacet
   facet normal 1 0 0
      outer loop
         vertex -0.00902 0.00031 0.0043
         vertex -0.00902 0.00031 0.0003
         vertex -0.00902 0.00041 0.0003
      endloop
   endfacet
   facet normal 1 0 0
      outer loop
         vertex -0.00902 0.00061 0.0005
         vertex -0.00902 0.00061 0.0043
         vertex -0.00902 0.00031 0.0043
      endloop
   endfacet
   facet normal 0 1 0
      outer loop
         vertex -0.00872 0.00031 0.0043
         vertex -0.00872 0.00031 0.0003
         vertex -0.00902 0.00031 0.0003
      endloop
   endfacet
   facet normal 0 1 0
      outer loop
         vertex -0.00902 0.00031 0.0003
         vertex -0.00902 0.00031 0.0043
         vertex -0.00872 0.00031 0.0043
      endloop
   endfacet
   facet normal 0 0 -1
      outer loop
         vertex -0.00872 -0.00041 0.0003
         vertex -0.00969 -0.00041 0.0003
         vertex -0.00902 0.00031 0.0003
      endloop
   endfacet
   facet normal 0 0 -1
      outer loop
         vertex -0.00969 0.00041 0.0003
         vertex -0.00902 0.00041 0.0003
         vertex -0.00902 0.00031 0.0003
      endloop
   endfacet
   facet normal 0 0 -1
      outer loop
         vertex -0.00902 0.00031 0.0003
         vertex -0.00969 -0.00041 0.0003
         vertex -0.00969 0.00041 0.0003
      endloop
   endfacet
   facet normal 0 0 -1
      outer loop
         vertex -0.00902 0.00031 0.0003
         vertex -0.00872 0.00031 0.0003
         vertex -0.00872 -0.00041 0.0003
      endloop
   endfacet
   facet normal 0 -0.707107 -0.707107
      outer loop
         vertex -0.00872 -0.00061 0.0005
         vertex -0.00989 -0.00061 0.0005
         vertex -0.00969 -0.00041 0.0003
      endloop
   endfacet
   facet normal 0 -0.707107 -0.707107
      outer loop
         vertex -0.00969 -0.00041 0.0003
         vertex -0.00872 -0.00041 0.0003
         vertex -0.00872 -0.00061 0.0005
      endloop
   endfacet
   facet normal -0.707107 0 -0.707107
      outer loop
         vertex -0.00989 -0.00061 0.0005
         vertex -0.00989 0.00061 0.0005
         vertex -0.00969 0.00041 0.0003
      endloop
   endfacet
   facet normal -0.707107 0 -0.707107
      outer loop
         vertex -0.00969 0.00041 0.0003
         vertex -0.00969 -0.00041 0.0003
         vertex -0.00989 -0.00061 0.0005
      endloop
   endfacet
   facet normal -1 0 0
      outer loop
         vertex -0.00989 0.00061 0.0005
         vertex -0.00989 -0.00061 0.0005
         vertex -0.00989 -0.00061 0.00086
      endloop
   endfacet
   facet normal -1 0 0
      outer loop
         vertex -0.00989 -0.00061 0.00086
         vertex -0.00989 0.00061 0.0013
         vertex -0.00989 0.00061 0.0005
      endloop
   endfacet
   facet normal 0 0.707107 -0.707107
      outer loop
         vertex -0.00902 0.00061 0.0005
         vertex -0.00902 0.00041 0.0003
         vertex -0.00969 0.00041 0.0003
      endloop
   endfacet
   facet normal 0 0.707107 -0.707107
      outer loop
         vertex -0.00969 0.00041 0.0003
         vertex -0.00989 0.00061 0.0005
         vertex -0.00902 0.00061 0.0005
      endloop
   endfacet
   facet normal 0 -1 0
      outer loop
         vertex -0.00792 -0.00045 0.00213
         vertex 0.00792 -0.00045 0.00213
         vertex 0.00792 -0.00045 0.0043
      endloop
   endfacet
   facet normal 0 -1 0
      outer loop
         vertex 0.00792 -0.00045 0.0043
         vertex -0.00792 -0.00045 0.0043
         vertex -0.00792 -0.00045 0.00213
      endloop
   endfacet
   facet normal -1 0 0
      outer loop
         vertex -0.00792 -0.00045 0.00213
         vertex -0.00792 -0.00045 0.0043
         vertex -0.00792 0.0001 0.0031
      endloop
   endfacet
   facet normal -1 0 0
      outer loop
         vertex -0.00792 -0.00045 0.0043
         vertex -0.00792 0.0001 0.0043
         vertex -0.00792 0.0001 0.0031
      endloop
   endfacet
   facet normal -1 0 0
      outer loop
         vertex -0.00792 0.0001 0.0031
         vertex -0.00792 -0.0003 0.00213
         vertex -0.00792 -0.00045 0.00213
      endloop
   endfacet
   facet normal 1 0 0
      outer loop
         vertex 0.00792 -0.00045 0.00213
         vertex 0.00792 -0.0003 0.00213
         vertex 0.00792 0.0001 0.0031
      endloop
   endfacet
   facet normal 1 0 0
      outer loop
         vertex 0.00792 0.0001 0.0031
         vertex 0.00792 -0.00045 0.0043
         vertex 0.00792 -0.00045 0.00213
      endloop
   endfacet
   facet normal 1 0 0
      outer loop
         vertex 0.00792 0.0001 0.0031
         vertex 0.00792 0.0001 0.0043
         vertex 0.00792 -0.00045 0.0043
      endloop
   endfacet
   facet normal 0 0.924481 -0.381229
      outer loop
         vertex -0.00792 -0.0003 0.00213
         vertex -0.00792 0.0001 0.0031
         vertex 0.00792 0.0001 0.0031
      endloop
   endfacet
   facet normal 0 0.924481 -0.381229
      outer loop
         vertex 0.00792 0.0001 0.0031
         vertex 0.00792 -0.0003 0.00213
         vertex -0.00792 -0.0003 0.00213
      endloop
   endfacet
   facet normal 0 0 -1
      outer loop
         vertex 0.00792 -0.0003 0.00213
         vertex 0.00792 -0.00045 0.00213
         vertex -0.00792 -0.00045 0.00213
      endloop
   endfacet
   facet normal 0 0 -1
      outer loop
         vertex -0.00792 -0.00045 0.00213
         vertex -0.00792 -0.0003 0.00213
         vertex 0.00792 -0.0003 0.00213
      endloop
   endfacet
   facet normal 0 1 0
      outer loop
         vertex 0.00792 0.0001 0.0043
         vertex 0.00792 0.0001 0.0031
         vertex -0.00792 0.0001 0.0031
      endloop
   endfacet
   facet normal 0 1 0
      outer loop
         vertex 0.0082 0.0001 0.00528
         vertex 0.0082 0.0001 0.0043
         vertex 0.00792 0.0001 0.0043
      endloop
   endfacet
   facet normal 0 1 0
      outer loop
         vertex -0.0082 0.0001 0.00528
         vertex 0.0082 0.0001 0.00528
         vertex -0.00792 0.0001 0.0043
      endloop
   endfacet
   facet normal 0 1 0
      outer loop
         vertex 0.00792 0.0001 0.0043
         vertex -0.00792 0.0001 0.0043
         vertex 0.0082 0.0001 0.00528
      endloop
   endfacet
   facet normal 0 1 0
      outer loop
         vertex -0.00792 0.0001 0.0031
         vertex -0.00792 0.0001 0.0043
         vertex 0.00792 0.0001 0.0043
      endloop
   endfacet
   facet normal 0 1 0
      outer loop
         vertex -0.00792 0.0001 0.0043
         vertex -0.0082 0.0001 0.0043
         vertex -0.0082 0.0001 0.00528
      endloop
   endfacet
   facet normal -1 0 0
      outer loop
         vertex 0.0082 0.00125 0.00528
         vertex 0.0082 0.00125 0.0043
         vertex 0.0082 0.0001 0.0043
      endloop
   endfacet
   facet normal -1 0 0
      outer loop
         vertex 0.0082 0.0001 0.0043
         vertex 0.0082 0.0001 0.00528
         vertex 0.0082 0.00125 0.00528
      endloop
   endfacet
   facet normal -0.707107 0.707107 0
      outer loop
         vertex 0.0084 0.00145 0.0043
         vertex 0.0082 0.00125 0.0043
         vertex 0.0082 0.00125 0.00528
      endloop
   endfacet
   facet normal -0.707107 0.707107 0
      outer loop
         vertex 0.0082 0.00125 0.00528
         vertex 0.0084 0.00145 0.00548
         vertex 0.0084 0.00145 0.0043
      endloop
   endfacet
   facet normal -0.707107 0 0.707107
      outer loop
         vertex 0.0084 0.00145 0.00548
         vertex 0.0082 0.00125 0.00528
         vertex 0.0082 0.0001 0.00528
      endloop
   endfacet
   facet normal -0.707107 0 0.707107
      outer loop
         vertex 0.0082 0.0001 0.00528
         vertex 0.0084 -0.0001 0.00548
         vertex 0.0084 0.00145 0.00548
      endloop
   endfacet
   facet normal 0.866025 -0.5 0
      outer loop
         vertex 0.006 -0.00245 0.00548
         vertex 0.006 -0.00245 0.0043
         vertex 0.00660622 -0.0014 0.0043
      endloop
   endfacet
   facet normal 0.866025 -0.5 0
      outer loop
         vertex 0.00660622 -0.0014 0.0043
         vertex 0.00660622 -0.0014 0.00548
         vertex 0.006 -0.00245 0.00548
      endloop
   endfacet
   facet normal 0 -1 0
      outer loop
         vertex -0.006 -0.00245 0.00548
         vertex -0.006 -0.00245 0.0043
         vertex 0.006 -0.00245 0.0043
      endloop
   endfacet
   facet normal 0 -1 0
      outer loop
         vertex 0.006 -0.00245 0.0043
         vertex 0.006 -0.00245 0.00548
         vertex -0.006 -0.00245 0.00548
      endloop
   endfacet
   facet normal -0.866025 -0.5 0
      outer loop
         vertex -0.00660622 -0.0014 0.00548
         vertex -0.00660622 -0.0014 0.0043
         vertex -0.006 -0.00245 0.0043
      endloop
   endfacet
   facet normal -0.866025 -0.5 0
      outer loop
         vertex -0.006 -0.00245 0.0043
         vertex -0.006 -0.00245 0.00548
         vertex -0.00660622 -0.0014 0.00548
      endloop
   endfacet
   facet normal 0 0.707107 0.707107
      outer loop
         vertex 0.0084 -0.0001 0.00548
         vertex 0.0082 0.0001 0.00528
         vertex -0.0082 0.0001 0.00528
      endloop
   endfacet
   facet normal 0 0.707107 0.707107
      outer loop
         vertex -0.0082 0.0001 0.00528
         vertex -0.0084 -0.0001 0.00548
         vertex 0.0084 -0.0001 0.00548
      endloop
   endfacet
   facet normal 0.707107 0 0.707107
      outer loop
         vertex -0.0084 0.00145 0.00548
         vertex -0.0084 -0.0001 0.00548
         vertex -0.0082 0.0001 0.00528
      endloop
   endfacet
   facet normal 0.707107 0 0.707107
      outer loop
         vertex -0.0082 0.0001 0.00528
         vertex -0.0082 0.00125 0.00528
         vertex -0.0084 0.00145 0.00548
      endloop
   endfacet
   facet normal 0.707107 0.707107 0
      outer loop
         vertex -0.0084 0.00145 0.0043
         vertex -0.0084 0.00145 0.00548
         vertex -0.0082 0.00125 0.00528
      endloop
   endfacet
   facet normal 0.707107 0.707107 0
      outer loop
         vertex -0.0082 0.00125 0.00528
         vertex -0.0082 0.00125 0.0043
         vertex -0.0084 0.00145 0.0043
      endloop
   endfacet
   facet normal 1 0 0
      outer loop
         vertex -0.0082 0.00125 0.00528
         vertex -0.0082 0.0001 0.00528
         vertex -0.0082 0.0001 0.0043
      endloop
   endfacet
   facet normal 1 0 0
      outer loop
         vertex -0.0082 0.0001 0.0043
         vertex -0.0082 0.00125 0.0043
         vertex -0.0082 0.00125 0.00528
      endloop
   endfacet
   facet normal 0 1 0
      outer loop
         vertex 0.011 0.00145 0.00548
         vertex 0.011 0.00145 0.0043
         vertex 0.0084 0.00145 0.0043
      endloop
   endfacet
   facet normal 0 1 0
      outer loop
         vertex 0.0084 0.00145 0.0043
         vertex 0.0084 0.00145 0.00548
         vertex 0.011 0.00145 0.00548
      endloop
   endfacet
   facet normal 0 -1 0
      outer loop
         vertex 0.011 -0.0014 0.0043
         vertex 0.011 -0.0014 0.00548
         vertex 0.00660622 -0.0014 0.00548
      endloop
   endfacet
   facet normal 0 -1 0
      outer loop
         vertex 0.00660622 -0.0014 0.00548
         vertex 0.00660622 -0.0014 0.0043
         vertex 0.011 -0.0014 0.0043
      endloop
   endfacet
   facet normal 0.707107 0 -0.707107
      outer loop
         vertex 0.011 0.00145 0.0043
         vertex 0.0112 0.00125 0.0045
         vertex 0.0112 -0.0012 0.0045
      endloop
   endfacet
   facet normal 0.707107 0 -0.707107
      outer loop
         vertex 0.0112 -0.0012 0.0045
         vertex 0.011 -0.0014 0.0043
         vertex 0.011 0.00145 0.0043
      endloop
   endfacet
   facet normal 0.707107 0.707107 0
      outer loop
         vertex 0.011 0.00145 0.0043
         vertex 0.011 0.00145 0.00548
         vertex 0.0112 0.00125 0.00528
      endloop
   endfacet
   facet normal 0.707107 0.707107 0
      outer loop
         vertex 0.0112 0.00125 0.00528
         vertex 0.0112 0.00125 0.0045
         vertex 0.011 0.00145 0.0043
      endloop
   endfacet
   facet normal 0.707107 0 0.707107
      outer loop
         vertex 0.011 0.00145 0.00548
         vertex 0.011 -0.0014 0.00548
         vertex 0.0112 -0.0012 0.00528
      endloop
   endfacet
   facet normal 0.707107 0 0.707107
      outer loop
         vertex 0.0112 -0.0012 0.00528
         vertex 0.0112 0.00125 0.00528
         vertex 0.011 0.00145 0.00548
      endloop
   endfacet
   facet normal 1 0 0
      outer loop
         vertex 0.0112 0.00125 0.0045
         vertex 0.0112 0.00125 0.00528
         vertex 0.0112 -0.0012 0.00528
      endloop
   endfacet
   facet normal 1 0 0
      outer loop
         vertex 0.0112 -0.0012 0.00528
         vertex 0.0112 -0.0012 0.0045
         vertex 0.0112 0.00125 0.0045
      endloop
   endfacet
   facet normal 0.707107 -0.707107 0
      outer loop
         vertex 0.011 -0.0014 0.00548
         vertex 0.011 -0.0014 0.0043
         vertex 0.0112 -0.0012 0.0045
      endloop
   endfacet
   facet normal 0.707107 -0.707107 0
      outer loop
         vertex 0.0112 -0.0012 0.0045
         vertex 0.0112 -0.0012 0.00528
         vertex 0.011 -0.0014 0.00548
      endloop
   endfacet
   facet normal 0 0 1
      outer loop
         vertex 0.0084 -0.0001 0.00548
         vertex -0.00660622 -0.0014 0.00548
         vertex 0.00660622 -0.0014 0.00548
      endloop
   endfacet
   facet normal 0 0 1
      outer loop
         vertex 0.00660622 -0.0014 0.00548
         vertex -0.00660622 -0.0014 0.00548
         vertex -0.006 -0.00245 0.00548
      endloop
   endfacet
   facet normal 0 0 1
      outer loop
         vertex -0.006 -0.00245 0.00548
         vertex 0.006 -0.00245 0.00548
         vertex 0.00660622 -0.0014 0.00548
      endloop
   endfacet
   facet normal 0 0 1
      outer loop
         vertex -0.0084 -0.0001 0.00548
         vertex -0.011 -0.0014 0.00548
         vertex -0.00660622 -0.0014 0.00548
      endloop
   endfacet
   facet normal 0 0 1
      outer loop
         vertex -0.011 0.00145 0.00548
         vertex -0.011 -0.0014 0.00548
         vertex -0.0084 -0.0001 0.00548
      endloop
   endfacet
   facet normal 0 0 1
      outer loop
         vertex -0.00660622 -0.0014 0.00548
         vertex 0.0084 -0.0001 0.00548
         vertex -0.0084 -0.0001 0.00548
      endloop
   endfacet
   facet normal 0 0 1
      outer loop
         vertex 0.00660622 -0.0014 0.00548
         vertex 0.011 -0.0014 0.00548
         vertex 0.0084 -0.0001 0.00548
      endloop
   endfacet
   facet normal 0 0 1
      outer loop
         vertex 0.011 0.00145 0.00548
         vertex 0.0084 0.00145 0.00548
         vertex 0.0084 -0.0001 0.00548
      endloop
   endfacet
   facet normal 0 0 1
      outer loop
         vertex 0.0084 -0.0001 0.00548
         vertex 0.011 -0.0014 0.00548
         vertex 0.011 0.00145 0.00548
      endloop
   endfacet
   facet normal 0 0 1
      outer loop
         vertex -0.0084 -0.0001 0.00548
         vertex -0.0084 0.00145 0.00548
         vertex -0.011 0.00145 0.00548
      endloop
   endfacet
   facet normal 0 -1 0
      outer loop
         vertex -0.011 -0.0014 0.00548
         vertex -0.011 -0.0014 0.0043
         vertex -0.00660622 -0.0014 0.0043
      endloop
   endfacet
   facet normal 0 -1 0
      outer loop
         vertex -0.00660622 -0.0014 0.0043
         vertex -0.00660622 -0.0014 0.00548
         vertex -0.011 -0.0014 0.00548
      endloop
   endfacet
   facet normal -0.707107 -0.707107 0
      outer loop
         vertex -0.011 -0.0014 0.0043
         vertex -0.011 -0.0014 0.00548
         vertex -0.0112 -0.0012 0.00528
      endloop
   endfacet
   facet normal -0.707107 -0.707107 0
      outer loop
         vertex -0.0112 -0.0012 0.00528
         vertex -0.0112 -0.0012 0.0045
         vertex -0.011 -0.0014 0.0043
      endloop
   endfacet
   facet normal -0.707107 0 0.707107
      outer loop
         vertex -0.011 0.00145 0.00548
         vertex -0.0112 0.00125 0.00528
         vertex -0.0112 -0.0012 0.00528
      endloop
   endfacet
   facet normal -0.707107 0 0.707107
      outer loop
         vertex -0.0112 -0.0012 0.00528
         vertex -0.011 -0.0014 0.00548
         vertex -0.011 0.00145 0.00548
      endloop
   endfacet
   facet normal -1 0 0
      outer loop
         vertex -0.0112 -0.0012 0.0045
         vertex -0.0112 -0.0012 0.00528
         vertex -0.0112 0.00125 0.00528
      endloop
   endfacet
   facet normal -1 0 0
      outer loop
         vertex -0.0112 0.00125 0.00528
         vertex -0.0112 0.00125 0.0045
         vertex -0.0112 -0.0012 0.0045
      endloop
   endfacet
   facet normal -0.707107 0.707107 0
      outer loop
         vertex -0.011 0.00145 0.00548
         vertex -0.011 0.00145 0.0043
         vertex -0.0112 0.00125 0.0045
      endloop
   endfacet
   facet normal -0.707107 0.707107 0
      outer loop
         vertex -0.0112 0.00125 0.0045
         vertex -0.0112 0.00125 0.00528
         vertex -0.011 0.00145 0.00548
      endloop
   endfacet
   facet normal -0.707107 0 -0.707107
      outer loop
         vertex -0.011 0.00145 0.0043
         vertex -0.011 -0.0014 0.0043
         vertex -0.0112 -0.0012 0.0045
      endloop
   endfacet
   facet normal -0.707107 0 -0.707107
      outer loop
         vertex -0.0112 -0.0012 0.0045
         vertex -0.0112 0.00125 0.0045
         vertex -0.011 0.00145 0.0043
      endloop
   endfacet
   facet normal 0 1 0
      outer loop
         vertex -0.011 0.00145 0.0043
         vertex -0.011 0.00145 0.00548
         vertex -0.0084 0.00145 0.00548
      endloop
   endfacet
   facet normal 0 1 0
      outer loop
         vertex -0.0084 0.00145 0.00548
         vertex -0.0084 0.00145 0.0043
         vertex -0.011 0.00145 0.0043
      endloop
   endfacet
endsolid Display Connector, RPi4ModelB. Units = meters