solid Document. STL generated by ONSHAPE BY PTC INC, 1.213. Units = meters
   facet normal 0 0 -1
      outer loop
         vertex 0.01875 -0.009 0.019
         vertex 0.01875 -0.004 0.019
         vertex 0.023 -0.004 0.019
      endloop
   endfacet
   facet normal 0 0 -1
      outer loop
         vertex 0.023 -0.004 0.019
         vertex 0.023 -0.009 0.019
         vertex 0.01875 -0.009 0.019
      endloop
   endfacet
   facet normal -0.707107 0 -0.707107
      outer loop
         vertex 0.023 -0.009 0.019
         vertex 0.023 -0.004 0.019
         vertex 0.0235 -0.004 0.0185
      endloop
   endfacet
   facet normal -0.707107 0 -0.707107
      outer loop
         vertex 0.0235 -0.004 0.0185
         vertex 0.0235 -0.009 0.0185
         vertex 0.023 -0.009 0.019
      endloop
   endfacet
   facet normal -1 0 0
      outer loop
         vertex 0.0235 -0.009 0.0185
         vertex 0.0235 -0.004 0.0185
         vertex 0.0235 -0.004 0.016
      endloop
   endfacet
   facet normal -1 0 0
      outer loop
         vertex 0.0235 -0.004 0.016
         vertex 0.0235 -0.009 0.016
         vertex 0.0235 -0.009 0.0185
      endloop
   endfacet
   facet normal -0.707107 0 0.707107
      outer loop
         vertex 0.0235 -0.009 0.016
         vertex 0.0235 -0.004 0.016
         vertex 0.02325 -0.004 0.01575
      endloop
   endfacet
   facet normal -0.707107 0 0.707107
      outer loop
         vertex 0.02325 -0.004 0.01575
         vertex 0.02325 -0.009 0.01575
         vertex 0.0235 -0.009 0.016
      endloop
   endfacet
   facet normal -0.707107 0 -0.707107
      outer loop
         vertex 0.02325 -0.009 0.01575
         vertex 0.02325 -0.004 0.01575
         vertex 0.0235 -0.004 0.0155
      endloop
   endfacet
   facet normal -0.707107 0 -0.707107
      outer loop
         vertex 0.0235 -0.004 0.0155
         vertex 0.0235 -0.009 0.0155
         vertex 0.02325 -0.009 0.01575
      endloop
   endfacet
   facet normal -1 0 0
      outer loop
         vertex 0.0235 -0.009 0.0155
         vertex 0.0235 -0.004 0.0155
         vertex 0.0235 -0.004 0.01325
      endloop
   endfacet
   facet normal -1 0 0
      outer loop
         vertex 0.0235 -0.004 0.01325
         vertex 0.0235 -0.009 0.01325
         vertex 0.0235 -0.009 0.0155
      endloop
   endfacet
   facet normal -0.707107 0 0.707107
      outer loop
         vertex 0.0235 -0.009 0.01325
         vertex 0.0235 -0.004 0.01325
         vertex 0.02325 -0.004 0.013
      endloop
   endfacet
   facet normal -0.707107 0 0.707107
      outer loop
         vertex 0.02325 -0.004 0.013
         vertex 0.02325 -0.009 0.013
         vertex 0.0235 -0.009 0.01325
      endloop
   endfacet
   facet normal -0.707107 0 -0.707107
      outer loop
         vertex 0.02325 -0.009 0.013
         vertex 0.02325 -0.004 0.013
         vertex 0.0235 -0.004 0.01275
      endloop
   endfacet
   facet normal -0.707107 0 -0.707107
      outer loop
         vertex 0.0235 -0.004 0.01275
         vertex 0.0235 -0.009 0.01275
         vertex 0.02325 -0.009 0.013
      endloop
   endfacet
   facet normal -1 0 0
      outer loop
         vertex 0.0235 -0.009 0.01275
         vertex 0.0235 -0.004 0.01275
         vertex 0.0235 -0.004 0.01075
      endloop
   endfacet
   facet normal -1 0 0
      outer loop
         vertex 0.0235 -0.004 0.01075
         vertex 0.0235 -0.009 0.01075
         vertex 0.0235 -0.009 0.01275
      endloop
   endfacet
   facet normal 0 1 0
      outer loop
         vertex 0.02325 -0.009 0.013
         vertex 0.02325 -0.009 0.01575
         vertex 0.0235 -0.009 0.0155
      endloop
   endfacet
   facet normal 0 1 0
      outer loop
         vertex 0.02275 -0.009 0.01
         vertex 0.02325 -0.009 0.013
         vertex 0.0235 -0.009 0.01275
      endloop
   endfacet
   facet normal 0 1 0
      outer loop
         vertex 0.0235 -0.009 0.0155
         vertex 0.0235 -0.009 0.01325
         vertex 0.02325 -0.009 0.013
      endloop
   endfacet
   facet normal 0 1 0
      outer loop
         vertex 0.0235 -0.009 0.01275
         vertex 0.0235 -0.009 0.01075
         vertex 0.02275 -0.009 0.01
      endloop
   endfacet
   facet normal 0 1 0
      outer loop
         vertex 0.01875 -0.009 0.01
         vertex 0.01875 -0.009 0.019
         vertex 0.02325 -0.009 0.01575
      endloop
   endfacet
   facet normal 0 1 0
      outer loop
         vertex 0.02325 -0.009 0.01575
         vertex 0.023 -0.009 0.019
         vertex 0.0235 -0.009 0.0185
      endloop
   endfacet
   facet normal 0 1 0
      outer loop
         vertex 0.02325 -0.009 0.013
         vertex 0.01875 -0.009 0.01
         vertex 0.02325 -0.009 0.01575
      endloop
   endfacet
   facet normal 0 1 0
      outer loop
         vertex 0.02325 -0.009 0.01575
         vertex 0.01875 -0.009 0.019
         vertex 0.023 -0.009 0.019
      endloop
   endfacet
   facet normal 0 1 0
      outer loop
         vertex 0.0235 -0.009 0.0185
         vertex 0.0235 -0.009 0.016
         vertex 0.02325 -0.009 0.01575
      endloop
   endfacet
   facet normal 0 1 0
      outer loop
         vertex 0.02275 -0.009 0.01
         vertex 0.01875 -0.009 0.01
         vertex 0.02325 -0.009 0.013
      endloop
   endfacet
   facet normal -0.707107 0 0.707107
      outer loop
         vertex 0.0235 -0.009 0.01075
         vertex 0.0235 -0.004 0.01075
         vertex 0.02275 -0.004 0.01
      endloop
   endfacet
   facet normal -0.707107 0 0.707107
      outer loop
         vertex 0.02275 -0.004 0.01
         vertex 0.02275 -0.009 0.01
         vertex 0.0235 -0.009 0.01075
      endloop
   endfacet
   facet normal 0 0 1
      outer loop
         vertex 0.02275 -0.009 0.01
         vertex 0.02275 -0.004 0.01
         vertex 0.01875 -0.004 0.01
      endloop
   endfacet
   facet normal 0 0 1
      outer loop
         vertex 0.01875 -0.004 0.01
         vertex 0.01875 -0.009 0.01
         vertex 0.02275 -0.009 0.01
      endloop
   endfacet
   facet normal 1 0 0
      outer loop
         vertex 0.01875 -0.009 0.01
         vertex 0.01875 -0.004 0.01
         vertex 0.01875 -0.004 0.019
      endloop
   endfacet
   facet normal 1 0 0
      outer loop
         vertex 0.01875 -0.004 0.019
         vertex 0.01875 -0.009 0.019
         vertex 0.01875 -0.009 0.01
      endloop
   endfacet
   facet normal 0 1 0
      outer loop
         vertex 0.023 -0.004 0.0195
         vertex 0.024 -0.004 0.0185
         vertex 0.0235 -0.004 0.0185
      endloop
   endfacet
   facet normal 0 1 0
      outer loop
         vertex 0.024 -0.004 0.0185
         vertex 0.0235 -0.004 0.0155
         vertex 0.0235 -0.004 0.016
      endloop
   endfacet
   facet normal 0 1 0
      outer loop
         vertex 0.0235 -0.004 0.016
         vertex 0.0235 -0.004 0.0185
         vertex 0.024 -0.004 0.0185
      endloop
   endfacet
   facet normal 0 1 0
      outer loop
         vertex 0.0235 -0.004 0.0155
         vertex 0.02325 -0.004 0.01575
         vertex 0.0235 -0.004 0.016
      endloop
   endfacet
   facet normal 0 1 0
      outer loop
         vertex 0.024 -0.004 0.0185
         vertex 0.0235 -0.004 0.01275
         vertex 0.0235 -0.004 0.01325
      endloop
   endfacet
   facet normal 0 1 0
      outer loop
         vertex 0.0235 -0.004 0.01325
         vertex 0.0235 -0.004 0.0155
         vertex 0.024 -0.004 0.0185
      endloop
   endfacet
   facet normal 0 1 0
      outer loop
         vertex 0.0235 -0.004 0.01275
         vertex 0.02325 -0.004 0.013
         vertex 0.0235 -0.004 0.01325
      endloop
   endfacet
   facet normal 0 1 0
      outer loop
         vertex 0.024 -0.004 0.0095
         vertex 0.0235 -0.004 0.01075
         vertex 0.0235 -0.004 0.01275
      endloop
   endfacet
   facet normal 0 1 0
      outer loop
         vertex 0.01825 -0.004 0.0095
         vertex 0.01875 -0.004 0.01
         vertex 0.02275 -0.004 0.01
      endloop
   endfacet
   facet normal 0 1 0
      outer loop
         vertex 0.0235 -0.004 0.01275
         vertex 0.024 -0.004 0.0185
         vertex 0.024 -0.004 0.0095
      endloop
   endfacet
   facet normal 0 1 0
      outer loop
         vertex 0.02275 -0.004 0.01
         vertex 0.024 -0.004 0.0095
         vertex 0.01825 -0.004 0.0095
      endloop
   endfacet
   facet normal 0 1 0
      outer loop
         vertex 0.02275 -0.004 0.01
         vertex 0.0235 -0.004 0.01075
         vertex 0.024 -0.004 0.0095
      endloop
   endfacet
   facet normal 0 1 0
      outer loop
         vertex 0.01825 -0.004 0.0095
         vertex 0.01825 -0.004 0.0195
         vertex 0.01875 -0.004 0.019
      endloop
   endfacet
   facet normal 0 1 0
      outer loop
         vertex 0.01875 -0.004 0.019
         vertex 0.01875 -0.004 0.01
         vertex 0.01825 -0.004 0.0095
      endloop
   endfacet
   facet normal 0 1 0
      outer loop
         vertex 0.023 -0.004 0.0195
         vertex 0.023 -0.004 0.019
         vertex 0.01875 -0.004 0.019
      endloop
   endfacet
   facet normal 0 1 0
      outer loop
         vertex 0.01875 -0.004 0.019
         vertex 0.01825 -0.004 0.0195
         vertex 0.023 -0.004 0.0195
      endloop
   endfacet
   facet normal 0 1 0
      outer loop
         vertex 0.0235 -0.004 0.0185
         vertex 0.023 -0.004 0.019
         vertex 0.023 -0.004 0.0195
      endloop
   endfacet
   facet normal 0.707107 0 0.707107
      outer loop
         vertex 0.023 -0.01 0.0195
         vertex 0.024 -0.01 0.0185
         vertex 0.024 -0.004 0.0185
      endloop
   endfacet
   facet normal 0.707107 0 0.707107
      outer loop
         vertex 0.024 -0.004 0.0185
         vertex 0.023 -0.004 0.0195
         vertex 0.023 -0.01 0.0195
      endloop
   endfacet
   facet normal 0 -1 0
      outer loop
         vertex 0.01825 -0.01 0.0095
         vertex 0.024 -0.01 0.0095
         vertex 0.024 -0.01 0.0185
      endloop
   endfacet
   facet normal 0 -1 0
      outer loop
         vertex 0.024 -0.01 0.0185
         vertex 0.023 -0.01 0.0195
         vertex 0.01825 -0.01 0.0095
      endloop
   endfacet
   facet normal 0 -1 0
      outer loop
         vertex 0.023 -0.01 0.0195
         vertex 0.01825 -0.01 0.0195
         vertex 0.01825 -0.01 0.0095
      endloop
   endfacet
   facet normal 0 0 1
      outer loop
         vertex 0.01825 -0.01 0.0195
         vertex 0.023 -0.01 0.0195
         vertex 0.023 -0.004 0.0195
      endloop
   endfacet
   facet normal 0 0 1
      outer loop
         vertex 0.023 -0.004 0.0195
         vertex 0.01825 -0.004 0.0195
         vertex 0.01825 -0.01 0.0195
      endloop
   endfacet
   facet normal -1 0 0
      outer loop
         vertex 0.01825 -0.01 0.0095
         vertex 0.01825 -0.01 0.0195
         vertex 0.01825 -0.004 0.0195
      endloop
   endfacet
   facet normal -1 0 0
      outer loop
         vertex 0.01825 -0.004 0.0195
         vertex 0.01825 -0.004 0.0095
         vertex 0.01825 -0.01 0.0095
      endloop
   endfacet
   facet normal 1 0 0
      outer loop
         vertex 0.024 -0.004 0.0185
         vertex 0.024 -0.01 0.0185
         vertex 0.024 -0.01 0.0095
      endloop
   endfacet
   facet normal 1 0 0
      outer loop
         vertex 0.024 -0.01 0.0095
         vertex 0.024 -0.004 0.0095
         vertex 0.024 -0.004 0.0185
      endloop
   endfacet
   facet normal 0 0 -1
      outer loop
         vertex 0.024 -0.01 0.0095
         vertex 0.01825 -0.01 0.0095
         vertex 0.01825 -0.004 0.0095
      endloop
   endfacet
   facet normal 0 0 -1
      outer loop
         vertex 0.01825 -0.004 0.0095
         vertex 0.024 -0.004 0.0095
         vertex 0.024 -0.01 0.0095
      endloop
   endfacet
endsolid Document. Units = meters