solid Document. STL generated by ONSHAPE BY PTC INC, 1.213. Units = meters
   facet normal 0 0 -1
      outer loop
         vertex 0.01875 -0.009 0.009
         vertex 0.01875 -0.004 0.009
         vertex 0.023 -0.004 0.009
      endloop
   endfacet
   facet normal 0 0 -1
      outer loop
         vertex 0.023 -0.004 0.009
         vertex 0.023 -0.009 0.009
         vertex 0.01875 -0.009 0.009
      endloop
   endfacet
   facet normal -0.707107 0 -0.707107
      outer loop
         vertex 0.023 -0.009 0.009
         vertex 0.023 -0.004 0.009
         vertex 0.0235 -0.004 0.0085
      endloop
   endfacet
   facet normal -0.707107 0 -0.707107
      outer loop
         vertex 0.0235 -0.004 0.0085
         vertex 0.0235 -0.009 0.0085
         vertex 0.023 -0.009 0.009
      endloop
   endfacet
   facet normal -1 0 0
      outer loop
         vertex 0.0235 -0.009 0.0085
         vertex 0.0235 -0.004 0.0085
         vertex 0.0235 -0.004 0.006
      endloop
   endfacet
   facet normal -1 0 0
      outer loop
         vertex 0.0235 -0.004 0.006
         vertex 0.0235 -0.009 0.006
         vertex 0.0235 -0.009 0.0085
      endloop
   endfacet
   facet normal -0.707107 0 0.707107
      outer loop
         vertex 0.0235 -0.009 0.006
         vertex 0.0235 -0.004 0.006
         vertex 0.02325 -0.004 0.00575
      endloop
   endfacet
   facet normal -0.707107 0 0.707107
      outer loop
         vertex 0.02325 -0.004 0.00575
         vertex 0.02325 -0.009 0.00575
         vertex 0.0235 -0.009 0.006
      endloop
   endfacet
   facet normal -0.707107 0 -0.707107
      outer loop
         vertex 0.02325 -0.009 0.00575
         vertex 0.02325 -0.004 0.00575
         vertex 0.0235 -0.004 0.0055
      endloop
   endfacet
   facet normal -0.707107 0 -0.707107
      outer loop
         vertex 0.0235 -0.004 0.0055
         vertex 0.0235 -0.009 0.0055
         vertex 0.02325 -0.009 0.00575
      endloop
   endfacet
   facet normal -1 0 0
      outer loop
         vertex 0.0235 -0.009 0.0055
         vertex 0.0235 -0.004 0.0055
         vertex 0.0235 -0.004 0.00325
      endloop
   endfacet
   facet normal -1 0 0
      outer loop
         vertex 0.0235 -0.004 0.00325
         vertex 0.0235 -0.009 0.00325
         vertex 0.0235 -0.009 0.0055
      endloop
   endfacet
   facet normal -0.707107 0 0.707107
      outer loop
         vertex 0.0235 -0.009 0.00325
         vertex 0.0235 -0.004 0.00325
         vertex 0.02325 -0.004 0.003
      endloop
   endfacet
   facet normal -0.707107 0 0.707107
      outer loop
         vertex 0.02325 -0.004 0.003
         vertex 0.02325 -0.009 0.003
         vertex 0.0235 -0.009 0.00325
      endloop
   endfacet
   facet normal -0.707107 0 -0.707107
      outer loop
         vertex 0.02325 -0.009 0.003
         vertex 0.02325 -0.004 0.003
         vertex 0.0235 -0.004 0.00275
      endloop
   endfacet
   facet normal -0.707107 0 -0.707107
      outer loop
         vertex 0.0235 -0.004 0.00275
         vertex 0.0235 -0.009 0.00275
         vertex 0.02325 -0.009 0.003
      endloop
   endfacet
   facet normal -1 0 0
      outer loop
         vertex 0.0235 -0.009 0.00275
         vertex 0.0235 -0.004 0.00275
         vertex 0.0235 -0.004 0.00075
      endloop
   endfacet
   facet normal -1 0 0
      outer loop
         vertex 0.0235 -0.004 0.00075
         vertex 0.0235 -0.009 0.00075
         vertex 0.0235 -0.009 0.00275
      endloop
   endfacet
   facet normal 0 1 0
      outer loop
         vertex 0.02325 -0.009 0.003
         vertex 0.02325 -0.009 0.00575
         vertex 0.0235 -0.009 0.0055
      endloop
   endfacet
   facet normal 0 1 0
      outer loop
         vertex 0.0235 -0.009 0.0055
         vertex 0.0235 -0.009 0.00325
         vertex 0.02325 -0.009 0.003
      endloop
   endfacet
   facet normal 0 1 0
      outer loop
         vertex 0.023 -0.009 0.009
         vertex 0.0235 -0.009 0.0085
         vertex 0.0235 -0.009 0.006
      endloop
   endfacet
   facet normal 0 1 0
      outer loop
         vertex 0.02275 -0.009 0
         vertex 0.02325 -0.009 0.003
         vertex 0.0235 -0.009 0.00275
      endloop
   endfacet
   facet normal 0 1 0
      outer loop
         vertex 0.01875 -0.009 0
         vertex 0.01875 -0.009 0.009
         vertex 0.02325 -0.009 0.00575
      endloop
   endfacet
   facet normal 0 1 0
      outer loop
         vertex 0.02325 -0.009 0.00575
         vertex 0.01875 -0.009 0.009
         vertex 0.023 -0.009 0.009
      endloop
   endfacet
   facet normal 0 1 0
      outer loop
         vertex 0.0235 -0.009 0.00275
         vertex 0.0235 -0.009 0.00075
         vertex 0.02275 -0.009 0
      endloop
   endfacet
   facet normal 0 1 0
      outer loop
         vertex 0.0235 -0.009 0.006
         vertex 0.02325 -0.009 0.00575
         vertex 0.023 -0.009 0.009
      endloop
   endfacet
   facet normal 0 1 0
      outer loop
         vertex 0.02325 -0.009 0.003
         vertex 0.01875 -0.009 0
         vertex 0.02325 -0.009 0.00575
      endloop
   endfacet
   facet normal 0 1 0
      outer loop
         vertex 0.02275 -0.009 0
         vertex 0.01875 -0.009 0
         vertex 0.02325 -0.009 0.003
      endloop
   endfacet
   facet normal -0.707107 0 0.707107
      outer loop
         vertex 0.0235 -0.009 0.00075
         vertex 0.0235 -0.004 0.00075
         vertex 0.02275 -0.004 -3.61401e-20
      endloop
   endfacet
   facet normal -0.707107 0 0.707107
      outer loop
         vertex 0.02275 -0.004 -3.61401e-20
         vertex 0.02275 -0.009 0
         vertex 0.0235 -0.009 0.00075
      endloop
   endfacet
   facet normal 0 0 1
      outer loop
         vertex 0.02275 -0.009 0
         vertex 0.02275 -0.004 -3.61401e-20
         vertex 0.01875 -0.004 0
      endloop
   endfacet
   facet normal 0 0 1
      outer loop
         vertex 0.01875 -0.004 0
         vertex 0.01875 -0.009 0
         vertex 0.02275 -0.009 0
      endloop
   endfacet
   facet normal 1 0 0
      outer loop
         vertex 0.01875 -0.009 0
         vertex 0.01875 -0.004 0
         vertex 0.01875 -0.004 0.009
      endloop
   endfacet
   facet normal 1 0 0
      outer loop
         vertex 0.01875 -0.004 0.009
         vertex 0.01875 -0.009 0.009
         vertex 0.01875 -0.009 0
      endloop
   endfacet
   facet normal 0 1 0
      outer loop
         vertex 0.024 -0.004 0.0085
         vertex 0.0235 -0.004 0.0055
         vertex 0.0235 -0.004 0.006
      endloop
   endfacet
   facet normal 0 1 0
      outer loop
         vertex 0.024 -0.004 -0.0005
         vertex 0.0235 -0.004 0.00075
         vertex 0.0235 -0.004 0.00275
      endloop
   endfacet
   facet normal 0 1 0
      outer loop
         vertex 0.01825 -0.004 -0.0005
         vertex 0.01875 -0.004 0
         vertex 0.02275 -0.004 -3.61401e-20
      endloop
   endfacet
   facet normal 0 1 0
      outer loop
         vertex 0.0235 -0.004 0.0055
         vertex 0.02325 -0.004 0.00575
         vertex 0.0235 -0.004 0.006
      endloop
   endfacet
   facet normal 0 1 0
      outer loop
         vertex 0.024 -0.004 0.0085
         vertex 0.024 -0.004 -0.0005
         vertex 0.0235 -0.004 0.00325
      endloop
   endfacet
   facet normal 0 1 0
      outer loop
         vertex 0.0235 -0.004 0.00275
         vertex 0.0235 -0.004 0.00325
         vertex 0.024 -0.004 -0.0005
      endloop
   endfacet
   facet normal 0 1 0
      outer loop
         vertex 0.02275 -0.004 -3.61401e-20
         vertex 0.024 -0.004 -0.0005
         vertex 0.01825 -0.004 -0.0005
      endloop
   endfacet
   facet normal 0 1 0
      outer loop
         vertex 0.0235 -0.004 0.00325
         vertex 0.0235 -0.004 0.0055
         vertex 0.024 -0.004 0.0085
      endloop
   endfacet
   facet normal 0 1 0
      outer loop
         vertex 0.02275 -0.004 -3.61401e-20
         vertex 0.0235 -0.004 0.00075
         vertex 0.024 -0.004 -0.0005
      endloop
   endfacet
   facet normal 0 1 0
      outer loop
         vertex 0.023 -0.004 0.0095
         vertex 0.024 -0.004 0.0085
         vertex 0.0235 -0.004 0.0085
      endloop
   endfacet
   facet normal 0 1 0
      outer loop
         vertex 0.0235 -0.004 0.00275
         vertex 0.02325 -0.004 0.003
         vertex 0.0235 -0.004 0.00325
      endloop
   endfacet
   facet normal 0 1 0
      outer loop
         vertex 0.0235 -0.004 0.006
         vertex 0.0235 -0.004 0.0085
         vertex 0.024 -0.004 0.0085
      endloop
   endfacet
   facet normal 0 1 0
      outer loop
         vertex 0.01825 -0.004 -0.0005
         vertex 0.01825 -0.004 0.0095
         vertex 0.01875 -0.004 0.009
      endloop
   endfacet
   facet normal 0 1 0
      outer loop
         vertex 0.01875 -0.004 0.009
         vertex 0.01875 -0.004 0
         vertex 0.01825 -0.004 -0.0005
      endloop
   endfacet
   facet normal 0 1 0
      outer loop
         vertex 0.023 -0.004 0.0095
         vertex 0.023 -0.004 0.009
         vertex 0.01875 -0.004 0.009
      endloop
   endfacet
   facet normal 0 1 0
      outer loop
         vertex 0.01875 -0.004 0.009
         vertex 0.01825 -0.004 0.0095
         vertex 0.023 -0.004 0.0095
      endloop
   endfacet
   facet normal 0 1 0
      outer loop
         vertex 0.0235 -0.004 0.0085
         vertex 0.023 -0.004 0.009
         vertex 0.023 -0.004 0.0095
      endloop
   endfacet
   facet normal 0.707107 0 0.707107
      outer loop
         vertex 0.023 -0.01 0.0095
         vertex 0.024 -0.01 0.0085
         vertex 0.024 -0.004 0.0085
      endloop
   endfacet
   facet normal 0.707107 0 0.707107
      outer loop
         vertex 0.024 -0.004 0.0085
         vertex 0.023 -0.004 0.0095
         vertex 0.023 -0.01 0.0095
      endloop
   endfacet
   facet normal 0 -1 0
      outer loop
         vertex 0.01825 -0.01 -0.0005
         vertex 0.024 -0.01 -0.0005
         vertex 0.024 -0.01 0.0085
      endloop
   endfacet
   facet normal 0 -1 0
      outer loop
         vertex 0.024 -0.01 0.0085
         vertex 0.023 -0.01 0.0095
         vertex 0.01825 -0.01 -0.0005
      endloop
   endfacet
   facet normal 0 -1 0
      outer loop
         vertex 0.023 -0.01 0.0095
         vertex 0.01825 -0.01 0.0095
         vertex 0.01825 -0.01 -0.0005
      endloop
   endfacet
   facet normal 0 0 1
      outer loop
         vertex 0.01825 -0.01 0.0095
         vertex 0.023 -0.01 0.0095
         vertex 0.023 -0.004 0.0095
      endloop
   endfacet
   facet normal 0 0 1
      outer loop
         vertex 0.023 -0.004 0.0095
         vertex 0.01825 -0.004 0.0095
         vertex 0.01825 -0.01 0.0095
      endloop
   endfacet
   facet normal -1 0 0
      outer loop
         vertex 0.01825 -0.01 -0.0005
         vertex 0.01825 -0.01 0.0095
         vertex 0.01825 -0.004 0.0095
      endloop
   endfacet
   facet normal -1 0 0
      outer loop
         vertex 0.01825 -0.004 0.0095
         vertex 0.01825 -0.004 -0.0005
         vertex 0.01825 -0.01 -0.0005
      endloop
   endfacet
   facet normal 1 0 0
      outer loop
         vertex 0.024 -0.004 0.0085
         vertex 0.024 -0.01 0.0085
         vertex 0.024 -0.01 -0.0005
      endloop
   endfacet
   facet normal 1 0 0
      outer loop
         vertex 0.024 -0.01 -0.0005
         vertex 0.024 -0.004 -0.0005
         vertex 0.024 -0.004 0.0085
      endloop
   endfacet
   facet normal 0 0 -1
      outer loop
         vertex 0.024 -0.01 -0.0005
         vertex 0.01825 -0.01 -0.0005
         vertex 0.01825 -0.004 -0.0005
      endloop
   endfacet
   facet normal 0 0 -1
      outer loop
         vertex 0.01825 -0.004 -0.0005
         vertex 0.024 -0.004 -0.0005
         vertex 0.024 -0.01 -0.0005
      endloop
   endfacet
endsolid Document. Units = meters