solid 2.54 mm DUPONT MALE PIN HEADER, POE, 2X2, RPi4ModelB. STL generated by ONSHAPE BY PTC INC, 1.213. Units = meters
   facet normal 1 0 0
      outer loop
         vertex -0.00159 0.00095 0.0006
         vertex -0.00159 0.00159 0.0006
         vertex -0.00159 0.00159 0.0025
      endloop
   endfacet
   facet normal 1 0 0
      outer loop
         vertex -0.00159 0.00159 0.0025
         vertex -0.00159 0.00095 0.0025
         vertex -0.00159 0.00095 0.0006
      endloop
   endfacet
   facet normal 0 -1 0
      outer loop
         vertex -0.00159 0.00159 0.0006
         vertex -0.00095 0.00159 0.0006
         vertex -0.00095 0.00159 0.0025
      endloop
   endfacet
   facet normal 0 -1 0
      outer loop
         vertex -0.00095 0.00159 0.0025
         vertex -0.00159 0.00159 0.0025
         vertex -0.00159 0.00159 0.0006
      endloop
   endfacet
   facet normal 0 1 0
      outer loop
         vertex -0.00095 0.00095 0.0006
         vertex -0.00159 0.00095 0.0006
         vertex -0.00159 0.00095 0.0025
      endloop
   endfacet
   facet normal 0 1 0
      outer loop
         vertex -0.00159 0.00095 0.0025
         vertex -0.00095 0.00095 0.0025
         vertex -0.00095 0.00095 0.0006
      endloop
   endfacet
   facet normal -1 0 0
      outer loop
         vertex -0.00095 0.00159 0.0006
         vertex -0.00095 0.00095 0.0006
         vertex -0.00095 0.00095 0.0025
      endloop
   endfacet
   facet normal -1 0 0
      outer loop
         vertex -0.00095 0.00095 0.0025
         vertex -0.00095 0.00159 0.0025
         vertex -0.00095 0.00159 0.0006
      endloop
   endfacet
   facet normal 0 0 -1
      outer loop
         vertex 0.00254 0.00209 0.0006
         vertex 0.00159 0.00159 0.0006
         vertex 0.00095 0.00159 0.0006
      endloop
   endfacet
   facet normal 0 0 -1
      outer loop
         vertex -0.00254 0.00209 0.0006
         vertex 0.00254 0.00209 0.0006
         vertex -0.00095 0.00159 0.0006
      endloop
   endfacet
   facet normal 0 0 -1
      outer loop
         vertex 0.00095 0.00159 0.0006
         vertex -0.00095 0.00159 0.0006
         vertex 0.00254 0.00209 0.0006
      endloop
   endfacet
   facet normal 0 0 -1
      outer loop
         vertex 0.00095 0.00159 0.0006
         vertex -0.00095 0.00095 0.0006
         vertex -0.00095 0.00159 0.0006
      endloop
   endfacet
   facet normal 0 0 -1
      outer loop
         vertex 0.00254 0.00209 0.0006
         vertex 0.00254 0.00045 0.0006
         vertex 0.00159 0.00095 0.0006
      endloop
   endfacet
   facet normal 0 0 -1
      outer loop
         vertex 0.00159 0.00095 0.0006
         vertex 0.00159 0.00159 0.0006
         vertex 0.00254 0.00209 0.0006
      endloop
   endfacet
   facet normal 0 0 -1
      outer loop
         vertex 0.00254 0.00045 0.0006
         vertex -0.00254 0.00045 0.0006
         vertex 0.00095 0.00095 0.0006
      endloop
   endfacet
   facet normal 0 0 -1
      outer loop
         vertex -0.00254 0.00045 0.0006
         vertex -0.00159 0.00095 0.0006
         vertex -0.00095 0.00095 0.0006
      endloop
   endfacet
   facet normal 0 0 -1
      outer loop
         vertex 0.00095 0.00095 0.0006
         vertex 0.00159 0.00095 0.0006
         vertex 0.00254 0.00045 0.0006
      endloop
   endfacet
   facet normal 0 0 -1
      outer loop
         vertex -0.00095 0.00095 0.0006
         vertex 0.00095 0.00095 0.0006
         vertex -0.00254 0.00045 0.0006
      endloop
   endfacet
   facet normal 0 0 -1
      outer loop
         vertex -0.00095 0.00095 0.0006
         vertex 0.00095 0.00159 0.0006
         vertex 0.00095 0.00095 0.0006
      endloop
   endfacet
   facet normal 0 0 -1
      outer loop
         vertex -0.00254 0.00209 0.0006
         vertex -0.00159 0.00159 0.0006
         vertex -0.00159 0.00095 0.0006
      endloop
   endfacet
   facet normal 0 0 -1
      outer loop
         vertex -0.00159 0.00095 0.0006
         vertex -0.00254 0.00045 0.0006
         vertex -0.00254 0.00209 0.0006
      endloop
   endfacet
   facet normal 0 0 -1
      outer loop
         vertex -0.00095 0.00159 0.0006
         vertex -0.00159 0.00159 0.0006
         vertex -0.00254 0.00209 0.0006
      endloop
   endfacet
   facet normal 1 0 0
      outer loop
         vertex 0.00095 0.00095 0.0006
         vertex 0.00095 0.00159 0.0006
         vertex 0.00095 0.00159 0.0025
      endloop
   endfacet
   facet normal 1 0 0
      outer loop
         vertex 0.00095 0.00159 0.0025
         vertex 0.00095 0.00095 0.0025
         vertex 0.00095 0.00095 0.0006
      endloop
   endfacet
   facet normal 0 -1 0
      outer loop
         vertex 0.00095 0.00159 0.0006
         vertex 0.00159 0.00159 0.0006
         vertex 0.00159 0.00159 0.0025
      endloop
   endfacet
   facet normal 0 -1 0
      outer loop
         vertex 0.00159 0.00159 0.0025
         vertex 0.00095 0.00159 0.0025
         vertex 0.00095 0.00159 0.0006
      endloop
   endfacet
   facet normal 0 1 0
      outer loop
         vertex 0.00159 0.00095 0.0006
         vertex 0.00095 0.00095 0.0006
         vertex 0.00095 0.00095 0.0025
      endloop
   endfacet
   facet normal 0 1 0
      outer loop
         vertex 0.00095 0.00095 0.0025
         vertex 0.00159 0.00095 0.0025
         vertex 0.00159 0.00095 0.0006
      endloop
   endfacet
   facet normal -1 0 0
      outer loop
         vertex 0.00159 0.00159 0.0006
         vertex 0.00159 0.00095 0.0006
         vertex 0.00159 0.00095 0.0025
      endloop
   endfacet
   facet normal -1 0 0
      outer loop
         vertex 0.00159 0.00095 0.0025
         vertex 0.00159 0.00159 0.0025
         vertex 0.00159 0.00159 0.0006
      endloop
   endfacet
   facet normal 0 -1 0
      outer loop
         vertex 0.00254 0.00209 0
         vertex 0.00254 0.00209 0.0006
         vertex -0.00254 0.00209 0.0006
      endloop
   endfacet
   facet normal 0 -1 0
      outer loop
         vertex -0.00254 0.00209 0.0006
         vertex -0.00254 0.00209 0
         vertex 0.00254 0.00209 0
      endloop
   endfacet
   facet normal 0 1 0
      outer loop
         vertex -0.00254 0.00045 0
         vertex -0.00254 0.00045 0.0006
         vertex 0.00254 0.00045 0.0006
      endloop
   endfacet
   facet normal 0 1 0
      outer loop
         vertex 0.00254 0.00045 0.0006
         vertex 0.00254 0.00045 0
         vertex -0.00254 0.00045 0
      endloop
   endfacet
   facet normal -1 0 0
      outer loop
         vertex -0.00254 0.0004 0.0025
         vertex -0.00254 0.00214 0.0025
         vertex -0.00254 0.00209 0.0006
      endloop
   endfacet
   facet normal -1 0 0
      outer loop
         vertex -0.00254 0.00214 0
         vertex -0.00254 0.00209 0
         vertex -0.00254 0.00209 0.0006
      endloop
   endfacet
   facet normal -1 0 0
      outer loop
         vertex -0.00254 0.0004 0
         vertex -0.00254 0.0004 0.0025
         vertex -0.00254 0.00045 0.0006
      endloop
   endfacet
   facet normal -1 0 0
      outer loop
         vertex -0.00254 0.00209 0.0006
         vertex -0.00254 0.00214 0.0025
         vertex -0.00254 0.00214 0
      endloop
   endfacet
   facet normal -1 0 0
      outer loop
         vertex -0.00254 0.00209 0.0006
         vertex -0.00254 0.00045 0.0006
         vertex -0.00254 0.0004 0.0025
      endloop
   endfacet
   facet normal -1 0 0
      outer loop
         vertex -0.00254 0.00045 0.0006
         vertex -0.00254 0.00045 0
         vertex -0.00254 0.0004 0
      endloop
   endfacet
   facet normal -0.707107 -0.707107 0
      outer loop
         vertex -0.00254 0.0004 0
         vertex -0.00214 -3.87621e-19 0
         vertex -0.00214 -2.93195e-19 0.0025
      endloop
   endfacet
   facet normal -0.707107 -0.707107 0
      outer loop
         vertex -0.00214 -2.93195e-19 0.0025
         vertex -0.00254 0.0004 0.0025
         vertex -0.00254 0.0004 0
      endloop
   endfacet
   facet normal -0.707107 0.707107 0
      outer loop
         vertex -0.00254 0.00214 0.0025
         vertex -0.00214 0.00254 0.0025
         vertex -0.00214 0.00254 1.4456e-19
      endloop
   endfacet
   facet normal -0.707107 0.707107 0
      outer loop
         vertex -0.00214 0.00254 1.4456e-19
         vertex -0.00254 0.00214 0
         vertex -0.00254 0.00214 0.0025
      endloop
   endfacet
   facet normal -0.707107 0.707107 0
      outer loop
         vertex -0.00214 -3.87621e-19 0
         vertex -0.00254 -0.0004 0
         vertex -0.00254 -0.0004 0.0025
      endloop
   endfacet
   facet normal -0.707107 0.707107 0
      outer loop
         vertex -0.00254 -0.0004 0.0025
         vertex -0.00214 -2.93195e-19 0.0025
         vertex -0.00214 -3.87621e-19 0
      endloop
   endfacet
   facet normal 0 1 0
      outer loop
         vertex -0.0004 0.00254 0.0025
         vertex -0.0004 0.00254 0
         vertex -0.00214 0.00254 1.4456e-19
      endloop
   endfacet
   facet normal 0 1 0
      outer loop
         vertex -0.00214 0.00254 1.4456e-19
         vertex -0.00214 0.00254 0.0025
         vertex -0.0004 0.00254 0.0025
      endloop
   endfacet
   facet normal 0.707107 0.707107 0
      outer loop
         vertex -6.43193e-19 0.00214 0
         vertex -0.0004 0.00254 0
         vertex -0.0004 0.00254 0.0025
      endloop
   endfacet
   facet normal 0.707107 0.707107 0
      outer loop
         vertex -0.0004 0.00254 0.0025
         vertex -6.01844e-19 0.00214 0.0025
         vertex -6.43193e-19 0.00214 0
      endloop
   endfacet
   facet normal -0.707107 0.707107 0
      outer loop
         vertex 0.0004 0.00254 0.0025
         vertex 0.0004 0.00254 -1.4456e-19
         vertex -6.43193e-19 0.00214 0
      endloop
   endfacet
   facet normal -0.707107 0.707107 0
      outer loop
         vertex -6.43193e-19 0.00214 0
         vertex -6.01844e-19 0.00214 0.0025
         vertex 0.0004 0.00254 0.0025
      endloop
   endfacet
   facet normal 0 0 -1
      outer loop
         vertex 0.00254 0.00209 0
         vertex 0.0004 0.00254 -1.4456e-19
         vertex 0.00214 0.00254 0
      endloop
   endfacet
   facet normal 0 0 -1
      outer loop
         vertex 0.00254 0.00209 0
         vertex -6.43193e-19 0.00214 0
         vertex 0.0004 0.00254 -1.4456e-19
      endloop
   endfacet
   facet normal 0 0 -1
      outer loop
         vertex -6.43193e-19 0.00214 0
         vertex -0.00254 0.00214 0
         vertex -0.00214 0.00254 1.4456e-19
      endloop
   endfacet
   facet normal 0 0 -1
      outer loop
         vertex 0.00254 0.00209 0
         vertex -0.00254 0.00209 0
         vertex -6.43193e-19 0.00214 0
      endloop
   endfacet
   facet normal 0 0 -1
      outer loop
         vertex -6.43193e-19 0.00214 0
         vertex -0.00254 0.00209 0
         vertex -0.00254 0.00214 0
      endloop
   endfacet
   facet normal 0 0 -1
      outer loop
         vertex -0.00214 0.00254 1.4456e-19
         vertex -0.0004 0.00254 0
         vertex -6.43193e-19 0.00214 0
      endloop
   endfacet
   facet normal 0 0 -1
      outer loop
         vertex 0.00214 0.00254 0
         vertex 0.00254 0.00214 0
         vertex 0.00254 0.00209 0
      endloop
   endfacet
   facet normal 0.707107 0.707107 0
      outer loop
         vertex 0.00254 0.00214 0
         vertex 0.00214 0.00254 0
         vertex 0.00214 0.00254 0.0025
      endloop
   endfacet
   facet normal 0.707107 0.707107 0
      outer loop
         vertex 0.00214 0.00254 0.0025
         vertex 0.00254 0.00214 0.0025
         vertex 0.00254 0.00214 0
      endloop
   endfacet
   facet normal 0 1 0
      outer loop
         vertex 0.0004 0.00254 0.0025
         vertex 0.00214 0.00254 0.0025
         vertex 0.00214 0.00254 0
      endloop
   endfacet
   facet normal 0 1 0
      outer loop
         vertex 0.00214 0.00254 0
         vertex 0.0004 0.00254 -1.4456e-19
         vertex 0.0004 0.00254 0.0025
      endloop
   endfacet
   facet normal 1 0 0
      outer loop
         vertex 0.00254 0.00214 0
         vertex 0.00254 0.00214 0.0025
         vertex 0.00254 0.00209 0.0006
      endloop
   endfacet
   facet normal 1 0 0
      outer loop
         vertex 0.00254 0.00214 0.0025
         vertex 0.00254 0.0004 0.0025
         vertex 0.00254 0.00045 0.0006
      endloop
   endfacet
   facet normal 1 0 0
      outer loop
         vertex 0.00254 0.00045 0.0006
         vertex 0.00254 0.00209 0.0006
         vertex 0.00254 0.00214 0.0025
      endloop
   endfacet
   facet normal 1 0 0
      outer loop
         vertex 0.00254 0.0004 0
         vertex 0.00254 0.00045 0
         vertex 0.00254 0.00045 0.0006
      endloop
   endfacet
   facet normal 1 0 0
      outer loop
         vertex 0.00254 0.00045 0.0006
         vertex 0.00254 0.0004 0.0025
         vertex 0.00254 0.0004 0
      endloop
   endfacet
   facet normal 1 0 0
      outer loop
         vertex 0.00254 0.00209 0.0006
         vertex 0.00254 0.00209 0
         vertex 0.00254 0.00214 0
      endloop
   endfacet
   facet normal 0.707107 -0.707107 0
      outer loop
         vertex 0.00214 6.41304e-20 0
         vertex 0.00254 0.0004 0
         vertex 0.00254 0.0004 0.0025
      endloop
   endfacet
   facet normal 0.707107 -0.707107 0
      outer loop
         vertex 0.00254 0.0004 0.0025
         vertex 0.00214 1.72551e-19 0.0025
         vertex 0.00214 6.41304e-20 0
      endloop
   endfacet
   facet normal 0.707107 0.707107 0
      outer loop
         vertex 0.00254 -0.0004 0
         vertex 0.00214 6.41304e-20 0
         vertex 0.00214 1.72551e-19 0.0025
      endloop
   endfacet
   facet normal 0.707107 0.707107 0
      outer loop
         vertex 0.00214 1.72551e-19 0.0025
         vertex 0.00254 -0.0004 0.0025
         vertex 0.00254 -0.0004 0
      endloop
   endfacet
   facet normal 0 0 -1
      outer loop
         vertex -0.00254 0.0004 0
         vertex 0.00254 0.00045 0
         vertex 0.00254 0.0004 0
      endloop
   endfacet
   facet normal 0 0 -1
      outer loop
         vertex 0.00254 -0.00045 0
         vertex -0.00214 -3.87621e-19 0
         vertex 0.00214 6.41304e-20 0
      endloop
   endfacet
   facet normal 0 0 -1
      outer loop
         vertex 0.00254 -0.00045 0
         vertex -0.00254 -0.00045 0
         vertex -0.00254 -0.0004 0
      endloop
   endfacet
   facet normal 0 0 -1
      outer loop
         vertex 0.00254 0.0004 0
         vertex 0.00214 6.41304e-20 0
         vertex -0.00254 0.0004 0
      endloop
   endfacet
   facet normal 0 0 -1
      outer loop
         vertex -0.00254 -0.0004 0
         vertex -0.00214 -3.87621e-19 0
         vertex 0.00254 -0.00045 0
      endloop
   endfacet
   facet normal 0 0 -1
      outer loop
         vertex 0.00214 6.41304e-20 0
         vertex -0.00214 -3.87621e-19 0
         vertex -0.00254 0.0004 0
      endloop
   endfacet
   facet normal 0 0 -1
      outer loop
         vertex -0.00254 0.0004 0
         vertex -0.00254 0.00045 0
         vertex 0.00254 0.00045 0
      endloop
   endfacet
   facet normal 0 0 -1
      outer loop
         vertex 0.00214 6.41304e-20 0
         vertex 0.00254 -0.0004 0
         vertex 0.00254 -0.00045 0
      endloop
   endfacet
   facet normal 0 -1 0
      outer loop
         vertex 0.00254 -0.00045 0
         vertex 0.00254 -0.00045 0.0006
         vertex -0.00254 -0.00045 0.0006
      endloop
   endfacet
   facet normal 0 -1 0
      outer loop
         vertex -0.00254 -0.00045 0.0006
         vertex -0.00254 -0.00045 0
         vertex 0.00254 -0.00045 0
      endloop
   endfacet
   facet normal 1 0 0
      outer loop
         vertex 0.00254 -0.0004 0
         vertex 0.00254 -0.0004 0.0025
         vertex 0.00254 -0.00045 0.0006
      endloop
   endfacet
   facet normal 1 0 0
      outer loop
         vertex 0.00254 -0.0004 0.0025
         vertex 0.00254 -0.00214 0.0025
         vertex 0.00254 -0.00209 0.0006
      endloop
   endfacet
   facet normal 1 0 0
      outer loop
         vertex 0.00254 -0.00209 0.0006
         vertex 0.00254 -0.00045 0.0006
         vertex 0.00254 -0.0004 0.0025
      endloop
   endfacet
   facet normal 1 0 0
      outer loop
         vertex 0.00254 -0.00214 0
         vertex 0.00254 -0.00209 0
         vertex 0.00254 -0.00209 0.0006
      endloop
   endfacet
   facet normal 1 0 0
      outer loop
         vertex 0.00254 -0.00209 0.0006
         vertex 0.00254 -0.00214 0.0025
         vertex 0.00254 -0.00214 0
      endloop
   endfacet
   facet normal 1 0 0
      outer loop
         vertex 0.00254 -0.00045 0.0006
         vertex 0.00254 -0.00045 0
         vertex 0.00254 -0.0004 0
      endloop
   endfacet
   facet normal 0 1 0
      outer loop
         vertex -0.00254 -0.00209 0
         vertex -0.00254 -0.00209 0.0006
         vertex 0.00254 -0.00209 0.0006
      endloop
   endfacet
   facet normal 0 1 0
      outer loop
         vertex 0.00254 -0.00209 0.0006
         vertex 0.00254 -0.00209 0
         vertex -0.00254 -0.00209 0
      endloop
   endfacet
   facet normal -1 0 0
      outer loop
         vertex -0.00254 -0.00214 0.0025
         vertex -0.00254 -0.0004 0.0025
         vertex -0.00254 -0.00045 0.0006
      endloop
   endfacet
   facet normal -1 0 0
      outer loop
         vertex -0.00254 -0.0004 0
         vertex -0.00254 -0.00045 0
         vertex -0.00254 -0.00045 0.0006
      endloop
   endfacet
   facet normal -1 0 0
      outer loop
         vertex -0.00254 -0.00214 0
         vertex -0.00254 -0.00214 0.0025
         vertex -0.00254 -0.00209 0.0006
      endloop
   endfacet
   facet normal -1 0 0
      outer loop
         vertex -0.00254 -0.00045 0.0006
         vertex -0.00254 -0.0004 0.0025
         vertex -0.00254 -0.0004 0
      endloop
   endfacet
   facet normal -1 0 0
      outer loop
         vertex -0.00254 -0.00045 0.0006
         vertex -0.00254 -0.00209 0.0006
         vertex -0.00254 -0.00214 0.0025
      endloop
   endfacet
   facet normal -1 0 0
      outer loop
         vertex -0.00254 -0.00209 0.0006
         vertex -0.00254 -0.00209 0
         vertex -0.00254 -0.00214 0
      endloop
   endfacet
   facet normal 0.707107 -0.707107 0
      outer loop
         vertex 0.00254 -0.00214 0.0025
         vertex 0.00214 -0.00254 0.0025
         vertex 0.00214 -0.00254 1.4456e-19
      endloop
   endfacet
   facet normal 0.707107 -0.707107 0
      outer loop
         vertex 0.00214 -0.00254 1.4456e-19
         vertex 0.00254 -0.00214 0
         vertex 0.00254 -0.00214 0.0025
      endloop
   endfacet
   facet normal -0.707107 -0.707107 0
      outer loop
         vertex -0.00254 -0.00214 0
         vertex -0.00214 -0.00254 0
         vertex -0.00214 -0.00254 0.0025
      endloop
   endfacet
   facet normal -0.707107 -0.707107 0
      outer loop
         vertex -0.00214 -0.00254 0.0025
         vertex -0.00254 -0.00214 0.0025
         vertex -0.00254 -0.00214 0
      endloop
   endfacet
   facet normal 0 -1 0
      outer loop
         vertex 0.0004 -0.00254 0.0025
         vertex 0.0004 -0.00254 0
         vertex 0.00214 -0.00254 1.4456e-19
      endloop
   endfacet
   facet normal 0 -1 0
      outer loop
         vertex 0.00214 -0.00254 1.4456e-19
         vertex 0.00214 -0.00254 0.0025
         vertex 0.0004 -0.00254 0.0025
      endloop
   endfacet
   facet normal 0 0 -1
      outer loop
         vertex 0.0004 -0.00254 0
         vertex 0.00254 -0.00209 0
         vertex 0.00254 -0.00214 0
      endloop
   endfacet
   facet normal 0 0 -1
      outer loop
         vertex -2.94654e-19 -0.00214 0
         vertex -0.00214 -0.00254 0
         vertex -0.00254 -0.00214 0
      endloop
   endfacet
   facet normal 0 0 -1
      outer loop
         vertex 0.00254 -0.00214 0
         vertex 0.00214 -0.00254 1.4456e-19
         vertex 0.0004 -0.00254 0
      endloop
   endfacet
   facet normal 0 0 -1
      outer loop
         vertex -2.94654e-19 -0.00214 0
         vertex -0.0004 -0.00254 0
         vertex -0.00214 -0.00254 0
      endloop
   endfacet
   facet normal 0 0 -1
      outer loop
         vertex 0.0004 -0.00254 0
         vertex -2.94654e-19 -0.00214 0
         vertex 0.00254 -0.00209 0
      endloop
   endfacet
   facet normal 0 0 -1
      outer loop
         vertex -2.94654e-19 -0.00214 0
         vertex -0.00254 -0.00209 0
         vertex 0.00254 -0.00209 0
      endloop
   endfacet
   facet normal 0 0 -1
      outer loop
         vertex -0.00254 -0.00214 0
         vertex -0.00254 -0.00209 0
         vertex -2.94654e-19 -0.00214 0
      endloop
   endfacet
   facet normal -0.707107 -0.707107 0
      outer loop
         vertex -2.94654e-19 -0.00214 0
         vertex 0.0004 -0.00254 0
         vertex 0.0004 -0.00254 0.0025
      endloop
   endfacet
   facet normal -0.707107 -0.707107 0
      outer loop
         vertex 0.0004 -0.00254 0.0025
         vertex -2.2514e-19 -0.00214 0.0025
         vertex -2.94654e-19 -0.00214 0
      endloop
   endfacet
   facet normal 0.707107 -0.707107 0
      outer loop
         vertex -0.0004 -0.00254 0
         vertex -2.94654e-19 -0.00214 0
         vertex -2.2514e-19 -0.00214 0.0025
      endloop
   endfacet
   facet normal 0.707107 -0.707107 0
      outer loop
         vertex -2.2514e-19 -0.00214 0.0025
         vertex -0.0004 -0.00254 0.0025
         vertex -0.0004 -0.00254 0
      endloop
   endfacet
   facet normal 0 -1 0
      outer loop
         vertex -0.00214 -0.00254 0
         vertex -0.0004 -0.00254 0
         vertex -0.0004 -0.00254 0.0025
      endloop
   endfacet
   facet normal 0 -1 0
      outer loop
         vertex -0.0004 -0.00254 0.0025
         vertex -0.00214 -0.00254 0.0025
         vertex -0.00214 -0.00254 0
      endloop
   endfacet
   facet normal 0 0 1
      outer loop
         vertex -0.00095 0.00159 0.0025
         vertex -6.01844e-19 0.00214 0.0025
         vertex -0.0004 0.00254 0.0025
      endloop
   endfacet
   facet normal 0 0 1
      outer loop
         vertex -0.00159 0.00159 0.0025
         vertex -0.00214 0.00254 0.0025
         vertex -0.00254 0.00214 0.0025
      endloop
   endfacet
   facet normal 0 0 1
      outer loop
         vertex -0.00214 0.00254 0.0025
         vertex -0.00159 0.00159 0.0025
         vertex -0.00095 0.00159 0.0025
      endloop
   endfacet
   facet normal 0 0 1
      outer loop
         vertex -0.00254 0.0004 0.0025
         vertex -0.00159 0.00095 0.0025
         vertex -0.00159 0.00159 0.0025
      endloop
   endfacet
   facet normal 0 0 1
      outer loop
         vertex -0.00095 0.00095 0.0025
         vertex -0.00214 -2.93195e-19 0.0025
         vertex -0.00159 -0.00095 0.0025
      endloop
   endfacet
   facet normal 0 0 1
      outer loop
         vertex -0.00214 -2.93195e-19 0.0025
         vertex -0.00095 0.00095 0.0025
         vertex -0.00159 0.00095 0.0025
      endloop
   endfacet
   facet normal 0 0 1
      outer loop
         vertex 0.00214 0.00254 0.0025
         vertex 0.00095 0.00159 0.0025
         vertex 0.00159 0.00159 0.0025
      endloop
   endfacet
   facet normal 0 0 1
      outer loop
         vertex 0.00095 0.00159 0.0025
         vertex 0.00214 0.00254 0.0025
         vertex 0.0004 0.00254 0.0025
      endloop
   endfacet
   facet normal 0 0 1
      outer loop
         vertex -0.00254 0.00214 0.0025
         vertex -0.00254 0.0004 0.0025
         vertex -0.00159 0.00159 0.0025
      endloop
   endfacet
   facet normal 0 0 1
      outer loop
         vertex -0.00159 0.00095 0.0025
         vertex -0.00254 0.0004 0.0025
         vertex -0.00214 -2.93195e-19 0.0025
      endloop
   endfacet
   facet normal 0 0 1
      outer loop
         vertex -0.00095 0.00159 0.0025
         vertex -0.00095 0.00095 0.0025
         vertex 0.00095 0.00095 0.0025
      endloop
   endfacet
   facet normal 0 0 1
      outer loop
         vertex 0.00095 -0.00095 0.0025
         vertex 0.00159 -0.00095 0.0025
         vertex 0.00159 0.00095 0.0025
      endloop
   endfacet
   facet normal 0 0 1
      outer loop
         vertex 0.00254 0.00214 0.0025
         vertex 0.00159 0.00159 0.0025
         vertex 0.00159 0.00095 0.0025
      endloop
   endfacet
   facet normal 0 0 1
      outer loop
         vertex -0.00095 -0.00095 0.0025
         vertex -2.2514e-19 -0.00214 0.0025
         vertex 0.00095 -0.00159 0.0025
      endloop
   endfacet
   facet normal 0 0 1
      outer loop
         vertex 0.0004 0.00254 0.0025
         vertex -6.01844e-19 0.00214 0.0025
         vertex 0.00095 0.00159 0.0025
      endloop
   endfacet
   facet normal 0 0 1
      outer loop
         vertex -0.00159 -0.00095 0.0025
         vertex -0.00095 -0.00095 0.0025
         vertex -0.00095 0.00095 0.0025
      endloop
   endfacet
   facet normal 0 0 1
      outer loop
         vertex 0.00095 0.00095 0.0025
         vertex 0.00095 0.00159 0.0025
         vertex -0.00095 0.00159 0.0025
      endloop
   endfacet
   facet normal 0 0 1
      outer loop
         vertex 0.00159 0.00095 0.0025
         vertex 0.00159 -0.00095 0.0025
         vertex 0.00254 0.00214 0.0025
      endloop
   endfacet
   facet normal 0 0 1
      outer loop
         vertex 0.00095 -0.00159 0.0025
         vertex 0.00095 -0.00095 0.0025
         vertex -0.00095 -0.00095 0.0025
      endloop
   endfacet
   facet normal 0 0 1
      outer loop
         vertex 0.00095 -0.00159 0.0025
         vertex -2.2514e-19 -0.00214 0.0025
         vertex 0.0004 -0.00254 0.0025
      endloop
   endfacet
   facet normal 0 0 1
      outer loop
         vertex 0.00159 0.00159 0.0025
         vertex 0.00254 0.00214 0.0025
         vertex 0.00214 0.00254 0.0025
      endloop
   endfacet
   facet normal 0 0 1
      outer loop
         vertex -0.00095 0.00095 0.0025
         vertex -0.00095 -0.00095 0.0025
         vertex 0.00095 0.00095 0.0025
      endloop
   endfacet
   facet normal 0 0 1
      outer loop
         vertex -0.00159 -0.00095 0.0025
         vertex -0.00214 -2.93195e-19 0.0025
         vertex -0.00254 -0.0004 0.0025
      endloop
   endfacet
   facet normal 0 0 1
      outer loop
         vertex 0.00095 -0.00095 0.0025
         vertex 0.00095 0.00095 0.0025
         vertex -0.00095 -0.00095 0.0025
      endloop
   endfacet
   facet normal 0 0 1
      outer loop
         vertex 0.00214 -0.00254 0.0025
         vertex 0.00159 -0.00159 0.0025
         vertex 0.00095 -0.00159 0.0025
      endloop
   endfacet
   facet normal 0 0 1
      outer loop
         vertex 0.00254 -0.00214 0.0025
         vertex 0.00159 -0.00095 0.0025
         vertex 0.00159 -0.00159 0.0025
      endloop
   endfacet
   facet normal 0 0 1
      outer loop
         vertex 0.00159 -0.00095 0.0025
         vertex 0.00254 -0.00214 0.0025
         vertex 0.00254 -0.0004 0.0025
      endloop
   endfacet
   facet normal 0 0 1
      outer loop
         vertex -0.0004 0.00254 0.0025
         vertex -0.00214 0.00254 0.0025
         vertex -0.00095 0.00159 0.0025
      endloop
   endfacet
   facet normal 0 0 1
      outer loop
         vertex -0.00254 -0.00214 0.0025
         vertex -0.00159 -0.00159 0.0025
         vertex -0.00159 -0.00095 0.0025
      endloop
   endfacet
   facet normal 0 0 1
      outer loop
         vertex -0.00214 -0.00254 0.0025
         vertex -0.00095 -0.00159 0.0025
         vertex -0.00159 -0.00159 0.0025
      endloop
   endfacet
   facet normal 0 0 1
      outer loop
         vertex -0.00095 -0.00159 0.0025
         vertex -0.00214 -0.00254 0.0025
         vertex -0.0004 -0.00254 0.0025
      endloop
   endfacet
   facet normal 0 0 1
      outer loop
         vertex 0.0004 -0.00254 0.0025
         vertex 0.00214 -0.00254 0.0025
         vertex 0.00095 -0.00159 0.0025
      endloop
   endfacet
   facet normal 0 0 1
      outer loop
         vertex 0.00254 -0.0004 0.0025
         vertex 0.00214 1.72551e-19 0.0025
         vertex 0.00159 -0.00095 0.0025
      endloop
   endfacet
   facet normal 0 0 1
      outer loop
         vertex -0.00254 -0.0004 0.0025
         vertex -0.00254 -0.00214 0.0025
         vertex -0.00159 -0.00095 0.0025
      endloop
   endfacet
   facet normal 0 0 1
      outer loop
         vertex -0.0004 -0.00254 0.0025
         vertex -2.2514e-19 -0.00214 0.0025
         vertex -0.00095 -0.00159 0.0025
      endloop
   endfacet
   facet normal 0 0 1
      outer loop
         vertex 0.00254 0.00214 0.0025
         vertex 0.00159 -0.00095 0.0025
         vertex 0.00214 1.72551e-19 0.0025
      endloop
   endfacet
   facet normal 0 0 1
      outer loop
         vertex 0.00159 -0.00159 0.0025
         vertex 0.00214 -0.00254 0.0025
         vertex 0.00254 -0.00214 0.0025
      endloop
   endfacet
   facet normal 0 0 1
      outer loop
         vertex -0.00159 -0.00159 0.0025
         vertex -0.00254 -0.00214 0.0025
         vertex -0.00214 -0.00254 0.0025
      endloop
   endfacet
   facet normal 0 0 1
      outer loop
         vertex 0.00159 0.00095 0.0025
         vertex 0.00095 0.00095 0.0025
         vertex 0.00095 -0.00095 0.0025
      endloop
   endfacet
   facet normal 0 0 1
      outer loop
         vertex -2.2514e-19 -0.00214 0.0025
         vertex -0.00095 -0.00095 0.0025
         vertex -0.00095 -0.00159 0.0025
      endloop
   endfacet
   facet normal 0 0 1
      outer loop
         vertex -6.01844e-19 0.00214 0.0025
         vertex -0.00095 0.00159 0.0025
         vertex 0.00095 0.00159 0.0025
      endloop
   endfacet
   facet normal 0 0 1
      outer loop
         vertex 0.00214 1.72551e-19 0.0025
         vertex 0.00254 0.0004 0.0025
         vertex 0.00254 0.00214 0.0025
      endloop
   endfacet
   facet normal 0 0 -1
      outer loop
         vertex 0.00254 -0.00045 0.0006
         vertex 0.00159 -0.00095 0.0006
         vertex 0.00095 -0.00095 0.0006
      endloop
   endfacet
   facet normal 0 0 -1
      outer loop
         vertex -0.00254 -0.00045 0.0006
         vertex 0.00254 -0.00045 0.0006
         vertex -0.00095 -0.00095 0.0006
      endloop
   endfacet
   facet normal 0 0 -1
      outer loop
         vertex 0.00095 -0.00095 0.0006
         vertex -0.00095 -0.00095 0.0006
         vertex 0.00254 -0.00045 0.0006
      endloop
   endfacet
   facet normal 0 0 -1
      outer loop
         vertex 0.00095 -0.00095 0.0006
         vertex -0.00095 -0.00159 0.0006
         vertex -0.00095 -0.00095 0.0006
      endloop
   endfacet
   facet normal 0 0 -1
      outer loop
         vertex 0.00254 -0.00209 0.0006
         vertex 0.00159 -0.00159 0.0006
         vertex 0.00159 -0.00095 0.0006
      endloop
   endfacet
   facet normal 0 0 -1
      outer loop
         vertex 0.00159 -0.00095 0.0006
         vertex 0.00254 -0.00045 0.0006
         vertex 0.00254 -0.00209 0.0006
      endloop
   endfacet
   facet normal 0 0 -1
      outer loop
         vertex 0.00254 -0.00209 0.0006
         vertex -0.00254 -0.00209 0.0006
         vertex 0.00095 -0.00159 0.0006
      endloop
   endfacet
   facet normal 0 0 -1
      outer loop
         vertex -0.00254 -0.00209 0.0006
         vertex -0.00159 -0.00159 0.0006
         vertex -0.00095 -0.00159 0.0006
      endloop
   endfacet
   facet normal 0 0 -1
      outer loop
         vertex 0.00095 -0.00159 0.0006
         vertex 0.00159 -0.00159 0.0006
         vertex 0.00254 -0.00209 0.0006
      endloop
   endfacet
   facet normal 0 0 -1
      outer loop
         vertex -0.00095 -0.00159 0.0006
         vertex 0.00095 -0.00159 0.0006
         vertex -0.00254 -0.00209 0.0006
      endloop
   endfacet
   facet normal 0 0 -1
      outer loop
         vertex -0.00095 -0.00159 0.0006
         vertex 0.00095 -0.00095 0.0006
         vertex 0.00095 -0.00159 0.0006
      endloop
   endfacet
   facet normal 0 0 -1
      outer loop
         vertex -0.00254 -0.00209 0.0006
         vertex -0.00254 -0.00045 0.0006
         vertex -0.00159 -0.00095 0.0006
      endloop
   endfacet
   facet normal 0 0 -1
      outer loop
         vertex -0.00159 -0.00095 0.0006
         vertex -0.00159 -0.00159 0.0006
         vertex -0.00254 -0.00209 0.0006
      endloop
   endfacet
   facet normal 0 0 -1
      outer loop
         vertex -0.00095 -0.00095 0.0006
         vertex -0.00159 -0.00095 0.0006
         vertex -0.00254 -0.00045 0.0006
      endloop
   endfacet
   facet normal 1 0 0
      outer loop
         vertex -0.00159 -0.00159 0.0006
         vertex -0.00159 -0.00095 0.0006
         vertex -0.00159 -0.00095 0.0025
      endloop
   endfacet
   facet normal 1 0 0
      outer loop
         vertex -0.00159 -0.00095 0.0025
         vertex -0.00159 -0.00159 0.0025
         vertex -0.00159 -0.00159 0.0006
      endloop
   endfacet
   facet normal 1 0 0
      outer loop
         vertex 0.00095 -0.00159 0.0006
         vertex 0.00095 -0.00095 0.0006
         vertex 0.00095 -0.00095 0.0025
      endloop
   endfacet
   facet normal 1 0 0
      outer loop
         vertex 0.00095 -0.00095 0.0025
         vertex 0.00095 -0.00159 0.0025
         vertex 0.00095 -0.00159 0.0006
      endloop
   endfacet
   facet normal 0 -1 0
      outer loop
         vertex -0.00159 -0.00095 0.0006
         vertex -0.00095 -0.00095 0.0006
         vertex -0.00095 -0.00095 0.0025
      endloop
   endfacet
   facet normal 0 -1 0
      outer loop
         vertex -0.00095 -0.00095 0.0025
         vertex -0.00159 -0.00095 0.0025
         vertex -0.00159 -0.00095 0.0006
      endloop
   endfacet
   facet normal 0 1 0
      outer loop
         vertex -0.00095 -0.00159 0.0006
         vertex -0.00159 -0.00159 0.0006
         vertex -0.00159 -0.00159 0.0025
      endloop
   endfacet
   facet normal 0 1 0
      outer loop
         vertex -0.00159 -0.00159 0.0025
         vertex -0.00095 -0.00159 0.0025
         vertex -0.00095 -0.00159 0.0006
      endloop
   endfacet
   facet normal 0 -1 0
      outer loop
         vertex 0.00095 -0.00095 0.0006
         vertex 0.00159 -0.00095 0.0006
         vertex 0.00159 -0.00095 0.0025
      endloop
   endfacet
   facet normal 0 -1 0
      outer loop
         vertex 0.00159 -0.00095 0.0025
         vertex 0.00095 -0.00095 0.0025
         vertex 0.00095 -0.00095 0.0006
      endloop
   endfacet
   facet normal 0 1 0
      outer loop
         vertex 0.00159 -0.00159 0.0006
         vertex 0.00095 -0.00159 0.0006
         vertex 0.00095 -0.00159 0.0025
      endloop
   endfacet
   facet normal 0 1 0
      outer loop
         vertex 0.00095 -0.00159 0.0025
         vertex 0.00159 -0.00159 0.0025
         vertex 0.00159 -0.00159 0.0006
      endloop
   endfacet
   facet normal -1 0 0
      outer loop
         vertex -0.00095 -0.00095 0.0006
         vertex -0.00095 -0.00159 0.0006
         vertex -0.00095 -0.00159 0.0025
      endloop
   endfacet
   facet normal -1 0 0
      outer loop
         vertex -0.00095 -0.00159 0.0025
         vertex -0.00095 -0.00095 0.0025
         vertex -0.00095 -0.00095 0.0006
      endloop
   endfacet
   facet normal -1 0 0
      outer loop
         vertex 0.00159 -0.00095 0.0006
         vertex 0.00159 -0.00159 0.0006
         vertex 0.00159 -0.00159 0.0025
      endloop
   endfacet
   facet normal -1 0 0
      outer loop
         vertex 0.00159 -0.00159 0.0025
         vertex 0.00159 -0.00095 0.0025
         vertex 0.00159 -0.00095 0.0006
      endloop
   endfacet
endsolid 2.54 mm DUPONT MALE PIN HEADER, POE, 2X2, RPi4ModelB. Units = meters